<?xml version="1.0" standalone="no"?>
<!DOCTYPE svg PUBLIC "-//W3C//DTD SVG 1.1//EN" "http://www.w3.org/Graphics/SVG/1.1/DTD/svg11.dtd" >
<svg>
<metadata>
Created by FontForge 20090914 at Fri Sep  4 11:23:13 2020
 By www-data
Typeface &#194;&#169; The Monotype Corporation plc. Data &#194;&#169; The Monotype Corporation plc/Type Solutions Inc. 1990-1992. All Rights Reserved. Generated by Andrey Karchin for IZET Company.
</metadata>
<defs>
<font id="KZTimesNewRoman" horiz-adv-x="1024" >
  <font-face 
    font-family="KZ Times New Roman"
    font-weight="400"
    font-stretch="normal"
    units-per-em="2048"
    panose-1="2 2 6 3 5 4 5 2 3 4"
    ascent="1638"
    descent="-410"
    x-height="915.999"
    cap-height="1356"
    bbox="-341 -628 2066 2062"
    underline-thickness="100"
    underline-position="-173"
    unicode-range="U+0020-U+FFFC"
  />
<missing-glyph 
d="M128 0v1825h768v-1825h-768zM256 128h512v1569h-512v-1569z" />
    <glyph glyph-name=".notdef" 
d="M128 0v1825h768v-1825h-768zM256 128h512v1569h-512v-1569z" />
    <glyph glyph-name="space" unicode=" " horiz-adv-x="512" 
 />
    <glyph glyph-name="exclam" unicode="!" horiz-adv-x="682" 
d="M454 1236c0 -20.667 -1.33301 -43 -4 -67l-90 -810h-38l-88 810c-4 36.667 -6 63 -6 79c0 37.333 9.66699 69 29 95c20.667 29.333 49 44 85 44c74.667 0 112 -50.333 112 -151zM451 83c0 -30.667 -10.833 -56.834 -32.5 -78.501s-47.834 -32.5 -78.501 -32.5
s-56.834 10.833 -78.501 32.5s-32.5 47.834 -32.5 78.501s10.833 56.667 32.5 78s47.834 32 78.501 32s56.834 -10.667 78.501 -32s32.5 -47.333 32.5 -78z" />
    <glyph glyph-name="quotedbl" unicode="&#x22;" horiz-adv-x="836" 
d="M700 1280c0 -57.333 -6.33301 -118.668 -19 -184.001l-57 -293h-48l-76 413c-1.33301 16.667 -2 33.334 -2 50.001c0 80.667 34 121 102 121c66.667 0 100 -35.667 100 -107zM333 1279c0 -26 -8.66797 -86.334 -26.001 -181.001l-54 -295h-43l-55 296
c-14.667 78.667 -22 134 -22 166c0 81.333 32.667 122 98 122c30.667 0 55.334 -10.167 74.001 -30.5s28 -46.166 28 -77.499z" />
    <glyph glyph-name="numbersign" unicode="#" 
d="M987 427h-272l-93 -455h-81l91 455h-339l-95 -455h-83l93 455h-171v82h187l69 343h-256v80h275l91 455h83l-91 -455h337l97 455h83l-95 -455h170v-80h-185l-70 -343h255v-82zM719 852h-341l-70 -343h339z" />
    <glyph glyph-name="dollar" unicode="$" 
d="M921 336c0 -105.333 -40.667 -191.667 -122 -259c-72.667 -60.667 -163.667 -95.667 -273 -105v-128h-64v128c-119.333 5.33301 -237.333 31.666 -354 78.999v283h44c14.667 -180 118 -279 310 -297v584c-150 92.667 -250 174.667 -300 246
c-35.333 50.667 -53 112.334 -53 185.001c0 94 36.333 171 109 231c64 52 145.333 83.667 244 95v92h64v-92c54 -3.33301 100 -9.66602 138 -18.999c20 -4.66699 84 -27.667 192 -69v-299h-39c-8 100.667 -33.333 175.667 -76 225c-46 53.333 -117.667 85 -215 95v-508
c144 -100.667 230.333 -164.334 259 -191.001c90.667 -86 136 -178 136 -276zM462 844.999v465.001c-131.333 -16 -197 -80.333 -197 -193c0 -94.667 65.667 -185.334 197 -272.001zM762 286c0 60.667 -26.667 118 -80 172c-26 26.667 -78 66.667 -156 120v-541
c50.667 8.66699 89 21 115 37c80.667 49.333 121 120 121 212z" />
    <glyph glyph-name="percent" unicode="%" horiz-adv-x="1706" 
d="M1635 308c0 -98 -22.667 -180.666 -68 -247.999c-52 -77.333 -124.667 -116 -218 -116c-111.333 0 -194.333 58 -249 174c-26.667 55.333 -40 118.666 -40 189.999c0 152.667 49.333 260 148 322c45.333 28.667 91.333 43 138 43c54 0 104 -17 150 -51
c44 -32 77.667 -73.667 101 -125c25.333 -57.333 38 -120.333 38 -189zM1392 1387l-988 -1443h-89l988 1443h89zM648 1018c0 -98 -22.667 -180.668 -68 -248.001c-52 -77.333 -124.667 -116 -218 -116c-114 0 -197.333 57.667 -250 173c-26.667 57.333 -40 121 -40 191
c0 154.667 50 263.334 150 326.001c46 28.667 93.333 43 142 43c91.333 0 163.333 -40 216 -120c45.333 -69.333 68 -152.333 68 -249zM1477 306c0 209.333 -43.333 314 -130 314c-32 0 -59.667 -18 -83 -54c-30 -46.667 -45 -135 -45 -265c0 -120 15.333 -203.333 46 -250
c22 -34 49.333 -51 82 -51c86.667 0 130 102 130 306zM490 1013c0 212 -43 318 -129 318c-86.667 0 -130 -104 -130 -312c0 -156 25 -255 75 -297c14 -12 31.333 -18 52 -18c88 0 132 103 132 309z" />
    <glyph glyph-name="ampersand" unicode="&#x26;" horiz-adv-x="1593" 
d="M1531 244c-48 -183.333 -151.333 -274.999 -310 -274.999c-111.333 0 -228.333 65 -351 195c-146.667 -130 -292 -195 -436 -195c-96.667 0 -178.667 25 -246 75c-75.333 55.333 -113 129.666 -113 222.999c0 178.667 138 342.334 414 491.001
c-54 119.333 -81 218.666 -81 297.999c0 114 42 201 126 261c65.333 46.667 139.666 70 222.999 70c74.667 0 137.334 -21.667 188.001 -65c54 -46 81 -105.667 81 -179c0 -82.667 -36.667 -157 -110 -223c-44 -39.333 -117 -85.333 -219 -138
c84.667 -150.667 173 -288.667 265 -414c117.333 140 176 258 176 354c0 68.667 -31 106.667 -93 114v37h420v-37c-69.333 -5.33301 -123 -29 -161 -71c-16 -17.333 -48.333 -70 -97 -158c-58.667 -106 -124.667 -205 -198 -297c106.667 -124.667 206.667 -187 300 -187
c96 0 157.667 49.333 185 148zM910 1148c0 46.667 -14.333 86 -43 118s-66 48 -112 48c-49.333 0 -91 -17.5 -125 -52.5s-51 -77.167 -51 -126.5c0 -60 28 -156 84 -288c164.667 78.667 247 179 247 301zM818 222.001c-128.667 175.333 -227.002 331.668 -295.002 469.001
c-160.667 -92.667 -241 -203.334 -241 -332.001c0 -75.333 23.833 -139 71.5 -191s108.834 -78 183.501 -78c78.667 0 172.334 44 281.001 132z" />
    <glyph glyph-name="quotesingle" unicode="'" horiz-adv-x="369" 
d="M282 1280c0 -26.667 -8.66699 -87.333 -26 -182l-54 -295h-44l-54 296c-15.333 84 -23 139.333 -23 166c0 81.333 32.333 122 97 122c31.333 0 56.5 -10 75.5 -30s28.5 -45.667 28.5 -77z" />
    <glyph glyph-name="parenleft" unicode="(" horiz-adv-x="682" 
d="M636 -438c-100.667 50.667 -184.667 110.002 -252 178.002c-200 201.333 -300 451.666 -300 750.999c0 197.333 47.333 380 142 548c100.667 178 237.334 305.667 410.001 383v-42c-163.333 -90 -270 -251.667 -320 -485c-26 -120.667 -39 -246.667 -39 -378
c0 -142.667 11 -272.334 33 -389.001c30 -158 84.333 -285.333 163 -382c41.333 -51.333 95.666 -100.333 162.999 -147v-37z" />
    <glyph glyph-name="parenright" unicode=")" horiz-adv-x="682" 
d="M598 493c0 -198 -47.332 -380.667 -141.999 -548c-100.667 -178 -237.334 -305.667 -410.001 -383v37c164.667 92.667 271.667 254.667 321 486c25.333 120.667 38 246.667 38 378c0 140 -11 269.667 -33 389c-28.667 155.333 -82.667 282.333 -162 381
c-41.333 51.333 -96 100.333 -164 147v42c222 -109.333 380 -282.333 474 -519c52 -131.333 78 -268 78 -410z" />
    <glyph glyph-name="asterisk" unicode="*" 
d="M880 1170c0 -38 -24.9971 -68.002 -74.9971 -90.002c-22 -9.33301 -63 -20.666 -123 -33.999c-51.333 -11.333 -94 -24.333 -128 -39c35.333 -18 77.666 -31.667 126.999 -41c130.667 -24 196 -66.333 196 -127c0 -20 -7.5 -37.333 -22.5 -52s-32.5 -22 -52.5 -22
c-45.333 0 -100.333 38.333 -165 115c-28 33.333 -62 64 -102 92c1.33301 -37.333 9 -78.666 23 -123.999c24 -78 36 -131.667 36 -161c0 -22.667 -6.66699 -43.667 -20 -63c-15.333 -21.333 -33.666 -32 -54.999 -32c-58.667 0 -88 32 -88 96c0 28.667 6.66699 64 20 106
c20 62.667 30.667 97 32 103c4 16.667 7.66699 41.667 11 75c-40.667 -26.667 -75 -55.667 -103 -87c-49.333 -54.667 -86 -89.334 -110 -104.001c-18 -10.667 -36 -16 -54 -16c-20.667 0 -39.5 7.16699 -56.5 21.5s-25.5 31.833 -25.5 52.5c0 41.333 27.333 74 82 98
c18 8 59 18.667 123 32c41.333 8.66699 81.666 21.334 120.999 38.001c-34.667 17.333 -77.667 31.333 -129 42c-81.333 16.667 -132 32.334 -152 47.001c-30 22 -45 48.667 -45 80c0 19.333 7.66699 36.166 23 50.499s32.666 21.5 51.999 21.5
c47.333 0 101.333 -35 162 -105c36.667 -42.667 74 -75.667 112 -99c-2.66699 45.333 -12 91 -28 137c-22.667 64.667 -34 109.667 -34 135c0 70.667 28.333 106 85 106c51.333 0 77 -34.667 77 -104c0 -27.333 -8.66699 -71 -26 -131
c-19.333 -65.333 -30.333 -113 -33 -143c37.333 24 70.333 52.333 99 85c68 78 124 117 168 117c21.333 0 39.666 -7.33301 54.999 -22s23 -32.667 23 -54z" />
    <glyph glyph-name="plus" unicode="+" horiz-adv-x="1155" 
d="M1115 640h-500v-499h-80v499h-498v82h498v497h80v-497h500v-82z" />
    <glyph glyph-name="comma" unicode="," horiz-adv-x="512" 
d="M408 -10c0 -155.333 -99.334 -265.667 -298.001 -331v44c60.667 20 110.667 51.667 150 95c44 48 66 102 66 162c0 27.333 -7.66699 41 -23 41c-6.66699 0 -22.667 -6.66699 -48 -20c-11.333 -6 -24 -9 -38 -9c-71.333 0 -107 36.333 -107 109
c0 34 12.833 62.333 38.5 85s55.834 34 90.501 34c52 0 94 -22.667 126 -68c28.667 -40.667 43 -88 43 -142z" />
    <glyph glyph-name="hyphen" unicode="-" horiz-adv-x="682" 
d="M600 384h-517v151h517v-151z" />
    <glyph glyph-name="hyphen" unicode="&#x2010;" horiz-adv-x="682" 
d="M600 384h-517v151h517v-151z" />
    <glyph glyph-name="period" unicode="." horiz-adv-x="512" 
d="M367 83c0 -30.667 -10.8291 -56.834 -32.4961 -78.501s-47.834 -32.5 -78.501 -32.5s-56.834 10.833 -78.501 32.5s-32.5 47.834 -32.5 78.501c0 31.333 10.667 57.666 32 78.999s47.666 32 78.999 32s57.666 -10.667 78.999 -32s32 -47.666 32 -78.999z" />
    <glyph glyph-name="slash" unicode="/" horiz-adv-x="569" 
d="M574 1422l-491 -1450h-80l491 1450h80z" />
    <glyph glyph-name="zero" unicode="0" 
d="M951 691c0 -128 -16.666 -245 -49.999 -351c-42 -132 -105.667 -228.333 -191 -289c-70.667 -50 -138.667 -75 -204 -75c-129.333 0 -237 76.333 -323 229c-72.667 128.667 -109 283.667 -109 465c0 310.667 85.333 527 256 649c60.667 43.333 122.667 65 186 65
c103.333 0 196.666 -53 279.999 -159c103.333 -132 155 -310 155 -534zM755.001 735c0 155.333 -16.001 284.332 -48.001 386.999c-40.667 130.667 -104.667 196 -192 196c-114.667 0 -187.667 -107.333 -219 -322c-17.333 -118.667 -26 -235.667 -26 -351
c0 -185.333 23 -337.666 69 -456.999c38.667 -99.333 95.334 -149 170.001 -149c96 0 162.667 70.333 200 211c30.667 115.333 46 277 46 485z" />
    <glyph glyph-name="one" unicode="1" 
d="M774 0l-510.001 0.00195312v37c44.667 0.666992 75 3 91 7c36.667 7.33301 60.667 23.666 72 48.999c7.33301 16 11 64.667 11 146v732c0 97.333 -3.33301 160.666 -10 189.999c-9.33301 41.333 -32.666 62 -69.999 62c-24.667 0 -59 -10.333 -103 -31l-15 31l330 161h33
v-1145c0 -62.667 0.333008 -96.667 1 -102c5.33301 -42 21.333 -69.667 48 -83c20 -10 60.667 -15.667 122 -17v-37z" />
    <glyph glyph-name="two" unicode="2" 
d="M939 261l-94.999 -261h-800v37c184 168 317.667 302 401 402c160 191.333 240 357 240 497c0 80.667 -24.333 149.334 -73 206.001c-50.667 59.333 -115.667 89 -195 89c-146.667 0 -245.667 -76.667 -297 -230h-37c15.333 114.667 54.333 205.667 117 273
c68.667 73.333 158.667 110 270 110c104 0 193.667 -33 269 -99c78 -68.667 117 -154.334 117 -257.001c0 -68 -16 -136.667 -48 -206c-50 -108.667 -130 -223 -240 -343c-166.667 -182 -270.334 -291.333 -311.001 -328h354c114.667 0 191.334 13.667 230.001 41
c23.333 16 43.666 39 60.999 69h37z" />
    <glyph glyph-name="three" unicode="3" 
d="M854 449c0 -117.333 -37.334 -219 -112.001 -305c-97.333 -112 -238.333 -168 -423 -168c-157.333 0 -236 35.667 -236 107c0 20.667 8.16699 38 24.5 52s34.833 21 55.5 21c16.667 0 33.667 -2.66699 51 -8c34.667 -19.333 88 -44 160 -74
c26 -7.33301 52.333 -11 79 -11c70 0 129.667 26.667 179 80s74 115.333 74 186c0 52.667 -11.667 104 -35 154c-17.333 37.333 -36.333 65.666 -57 84.999c-75.333 70 -165.666 105 -270.999 105h-32v30c53.333 6.66699 105.333 25 156 55c54.667 32.667 94 71 118 115
s36 92.333 36 145c0 66.667 -20.833 121.667 -62.5 165s-95.834 65 -162.501 65c-103.333 0 -189.666 -55.333 -258.999 -166l-33 16c80.667 190.667 203 286 367 286c108 0 191.333 -35.333 250 -106c44 -53.333 66 -109.666 66 -168.999c0 -98.667 -62 -200.667 -186 -306
c168.667 -66 253 -184 253 -354z" />
    <glyph glyph-name="four" unicode="4" 
d="M953 358h-182v-358h-165v358h-574v128l629 898h110v-884h182v-142zM606 500v673l-476 -673h476z" />
    <glyph glyph-name="five" unicode="5" 
d="M889 1356l-77.9971 -169.998h-408l-89 -182c176.667 -26 316.667 -91.667 420 -197c88.667 -90.667 133 -197.334 133 -320.001c0 -136.667 -51 -254.334 -153 -353.001c-108.667 -105.333 -236.334 -158 -383.001 -158c-56 0 -105 8.33301 -147 25
c-57.333 23.333 -86 59.333 -86 108c0 20.667 8.16699 37.667 24.5 51s35.166 20 56.499 20c28 0 65.333 -16.333 112 -49c50 -34.667 100.667 -52 152 -52c81.333 0 150.666 30.167 207.999 90.5s86 131.5 86 213.5c0 88 -29.333 168.333 -88 241
c-53.333 66 -123 117 -209 153c-72 30 -171 47.333 -297 52l260 527h486z" />
    <glyph glyph-name="six" unicode="6" 
d="M945 456c0 -112.667 -34.3301 -216 -102.997 -310c-82.667 -113.333 -192 -170 -328 -170c-92.667 0 -171.334 30.667 -236.001 92c-126.667 119.333 -190 274 -190 464c0 248.667 94 461 282 637c152.667 143.333 316 215 490 215h58v-37
c-152.667 -15.333 -279.334 -73 -380.001 -173c-104 -103.333 -179 -242.333 -225 -417c96 66 192.333 99 289 99c103.333 0 187.666 -41.667 252.999 -125c60 -77.333 90 -169 90 -275zM767.003 348c0 102.667 -18 192.667 -54 270c-46.667 100.667 -115.667 151 -207 151
c-49.333 0 -119.333 -28.333 -210 -85c-12 -90 -18 -162.667 -18 -218c0 -97.333 20 -188.666 60 -273.999c50.667 -106.667 119 -160 205 -160c74 0 131.667 36 173 108c34 59.333 51 128.666 51 207.999z" />
    <glyph glyph-name="seven" unicode="7" 
d="M933 1318l-451.999 -1346h-112l405 1221h-373c-74.667 0 -128.334 -9 -161.001 -27c-56 -31.333 -101 -78.666 -135 -141.999l-29 11l130 321h727v-38z" />
    <glyph glyph-name="eight" unicode="8" 
d="M906 322c0 -105.333 -40.334 -190.333 -121.001 -255c-74.667 -60.667 -166 -91 -274 -91c-128.667 0 -229 40.333 -301 121c-57.333 64.667 -86 135.334 -86 212.001c0 120 89.667 244.667 269 374c-82 67.333 -139.333 121.666 -172 162.999
c-54.667 68.667 -82 140.334 -82 215.001c0 98.667 38.333 178.334 115 239.001c70.667 56 156.667 84 258 84c93.333 0 175 -24.667 245 -74c79.333 -55.333 119 -128 119 -218c0 -110.667 -93 -224.334 -279 -341.001c116.667 -90 194.334 -161.333 233.001 -214
c50.667 -68.667 76 -140.334 76 -215.001zM733.999 1102c0 69.333 -19.332 124 -57.999 164s-92.667 60 -162 60c-60.667 0 -113.334 -17.333 -158.001 -52c-48 -37.333 -72 -85.666 -72 -144.999c0 -34.667 9 -69.334 27 -104.001c21.333 -42 46.333 -75 75 -99l164 -136
c64 58 107.333 103.333 130 136c36 52 54 110.667 54 176zM765 239c0 48 -12.666 90.999 -37.999 128.999c-47.333 70.667 -143 163 -287 277c-108.667 -91.333 -163 -201.666 -163 -330.999c0 -80 21.333 -146.333 64 -199c46 -56.667 108 -85 186 -85
c65.333 0 120.666 18 165.999 54c48 39.333 72 91 72 155z" />
    <glyph glyph-name="nine" unicode="9" 
d="M936 824c0 -152.667 -37.998 -294.667 -113.998 -426c-73.333 -127.333 -175.333 -234 -306 -320c-108 -70.667 -225 -106 -351 -106h-57v37c181.333 2.66699 334.333 91 459 265c69.333 97.333 117.666 204.333 144.999 321
c-104.667 -67.333 -199.334 -101 -284.001 -101c-106.667 0 -192.667 41.667 -258 125c-59.333 76 -89 169 -89 279c0 118 34 223.667 102 317c82 112.667 189 169 321 169c112 0 207.333 -46 286 -138c97.333 -113.333 146 -254 146 -422zM746.002 877
c0 66.667 -10.333 134.333 -31 203c-23.333 79.333 -55.166 139 -95.499 179s-86.166 60 -137.499 60c-76 0 -134 -36 -174 -108c-32.667 -58 -49 -128 -49 -210c0 -141.333 29.667 -251.333 89 -330c43.333 -57.333 96.666 -86 159.999 -86c79.333 0 152.666 28 219.999 84
c12 86.667 18 156 18 208z" />
    <glyph glyph-name="colon" unicode=":" horiz-adv-x="569" 
d="M400 833c0 -30.667 -10.833 -56.834 -32.5 -78.501s-47.834 -32.5 -78.501 -32.5s-56.834 10.833 -78.501 32.5s-32.5 47.834 -32.5 78.501s10.833 56.834 32.5 78.501s47.834 32.5 78.501 32.5s56.834 -10.833 78.501 -32.5s32.5 -47.834 32.5 -78.501zM399 83
c0 -30.667 -11 -56.834 -33 -78.501s-48.333 -32.5 -79 -32.5s-56.834 10.833 -78.501 32.5s-32.5 47.834 -32.5 78.501s10.833 57 32.5 79s47.834 33 78.501 33c31.333 0 57.833 -10.833 79.5 -32.5s32.5 -48.167 32.5 -79.5z" />
    <glyph glyph-name="semicolon" unicode=";" horiz-adv-x="569" 
d="M393 835c0 -30.667 -10.833 -56.834 -32.5 -78.501s-47.834 -32.5 -78.501 -32.5s-56.834 10.833 -78.501 32.5s-32.5 47.834 -32.5 78.501s10.833 56.667 32.5 78s47.834 32 78.501 32s56.834 -10.667 78.501 -32s32.5 -47.333 32.5 -78zM440 -10
c0 -155.333 -99.334 -265.667 -298.001 -331v44c60.667 20 110.667 51.667 150 95c44 48 66 102 66 162c0 27.333 -7.66699 41 -23 41c-6.66699 0 -22.667 -6.66699 -48 -20c-11.333 -6 -24 -9 -38 -9c-71.333 0 -107 36.333 -107 109c0 34 12.833 62.333 38.5 85
s55.834 34 90.501 34c52 0 94 -22.667 126 -68c28.667 -40.667 43 -88 43 -142z" />
    <glyph glyph-name="less" unicode="&#x3c;" horiz-adv-x="1155" 
d="M1113 187l-1076 470v49l1076 466v-87l-926 -402l926 -406v-90z" />
    <glyph glyph-name="equal" unicode="=" horiz-adv-x="1155" 
d="M1116 801h-1079v82h1079v-82zM1116 475h-1079v82h1079v-82z" />
    <glyph glyph-name="greater" unicode="&#x3e;" horiz-adv-x="1155" 
d="M1113 653l-1076 -466v86l927 402l-927 406v91l1076 -470v-49z" />
    <glyph glyph-name="question" unicode="?" horiz-adv-x="909" 
d="M827 1072c0 -102.667 -52.002 -213 -156.002 -331c-82.667 -94 -134 -157.667 -154 -191c-36.667 -62 -57.667 -138.667 -63 -230h-41c4.66699 88 17.334 163.667 38.001 227c16.667 52 48.334 122.333 95.001 211c64 121.333 96 220 96 296s-19.333 139.667 -58 191
c-43.333 57.333 -101.666 86 -174.999 86c-44.667 0 -85.334 -10.333 -122.001 -31c-43.333 -24.667 -65 -57.667 -65 -99c0 -22.667 10 -53 30 -91s30 -65.333 30 -82c0 -23.333 -7.5 -43.333 -22.5 -60s-33.833 -25 -56.5 -25c-36 0 -64.333 18 -85 54
c-17.333 30 -26 64.333 -26 103c0 90 39 161.667 117 215c68.667 48 149.667 72 243 72c137.333 0 238.333 -40 303 -120c48 -59.333 72 -124.333 72 -195zM551.998 84c0 -30.667 -10.998 -56.834 -32.998 -78.501s-48.333 -32.5 -79 -32.5s-56.834 10.833 -78.501 32.5
s-32.5 47.834 -32.5 78.501c0 31.333 10.667 57.833 32 79.5s47.666 32.5 78.999 32.5s57.833 -10.833 79.5 -32.5s32.5 -48.167 32.5 -79.5z" />
    <glyph glyph-name="at" unicode="@" horiz-adv-x="1886" 
d="M1836 172c-61.333 -187.333 -171.502 -336.501 -330.502 -447.501s-337.833 -166.5 -536.5 -166.5c-160 0 -306.667 37 -440 111c-137.333 76.667 -243.666 183.667 -318.999 321s-113 288.666 -113 453.999c0 176.667 40.667 339.667 122 489
c83.333 154.667 199.666 274.834 348.999 360.501s307.666 128.5 474.999 128.5c135.333 0 256.333 -26.667 363 -80c116.667 -58 204.334 -142.5 263.001 -253.5s88 -228.167 88 -351.5c0 -116 -24.667 -231.667 -74 -347c-54.667 -126.667 -126.334 -219 -215.001 -277
c-84 -54.667 -171.667 -82 -263 -82c-102 0 -153 45.667 -153 137c0 37.333 6 86.333 18 147c-157.333 -190 -288.666 -285 -393.999 -285c-56.667 0 -102 25.667 -136 77c-30 44.667 -45 96.667 -45 156c0 109.333 35 224.333 105 345c66 114 146 205 240 273
c76.667 55.333 145.334 83 206.001 83c93.333 0 150.666 -46 171.999 -138l33 110l157 22l-117 -399c-62 -211.333 -93 -338 -93 -380c0 -50.667 25 -76 75 -76c72 0 143.333 35.667 214 107c56.667 57.333 102.334 125 137.001 203c48.667 109.333 73 223.333 73 342
c0 114.667 -27 219.667 -81 315c-56 97.333 -134.167 171.833 -234.5 223.5s-211.166 77.5 -332.499 77.5c-161.333 0 -308 -43 -440 -129c-128 -84 -228.667 -199.333 -302 -346c-77.333 -153.333 -116 -312.666 -116 -477.999c0 -150 31.667 -285.667 95 -407
c68.667 -130.667 166 -229.334 292 -296.001c122.667 -64 254.667 -96 396 -96c184 0 346.667 49.667 488 149c136.667 96.667 242 231.334 316 404.001h58zM1182 772.999c0 40 -10.666 73.333 -31.999 100c-23.333 29.333 -54.333 44 -93 44
c-50 0 -100.667 -26.333 -152 -79c-74.667 -76.667 -139 -181 -193 -313c-39.333 -96.667 -59 -174 -59 -232c0 -36 10 -67.667 30 -95c22 -31.333 50.333 -47 85 -47c79.333 0 164.666 60 255.999 180c46.667 60 80.667 121 102 183c37.333 106.667 56 193 56 259z" />
    <glyph glyph-name="A" unicode="A" horiz-adv-x="1479" 
d="M1456 0l-535.001 -0.000976562v37c92 4.66699 138 32.334 138 83.001c0 29.333 -13.333 75.666 -40 138.999l-82 195h-525l-92 -214c-22.667 -52.667 -34 -92 -34 -118c0 -49.333 52.333 -77.666 157 -84.999v-37h-427v37c56.667 10 93.334 23 110.001 39
c33.333 31.333 71 96.333 113 195l477 1116h35l472 -1128c32 -76 59.333 -127 82 -153c36 -42 86.333 -65 151 -69v-37zM908.999 527.999l-230 548l-236 -548h466z" />
    <glyph glyph-name="B" unicode="B" horiz-adv-x="1366" 
d="M1254 371c0 -72.667 -23 -139.667 -69 -201c-44 -58.667 -100.667 -101 -170 -127c-74.667 -28.667 -188.334 -43 -341.001 -43h-640v37h51c57.333 0 98 18 122 54c15.333 22.667 23 72.334 23 149.001v876c0 84 -9.66699 137 -29 159c-26 29.333 -64.667 44 -116 44h-51
v37h586c108.667 0 196.334 -8 263.001 -24c90.667 -22 163 -60.333 217 -115c60.667 -60.667 91 -135 91 -223c0 -148.667 -81.667 -249.334 -245 -302.001c94 -20 164.333 -52 211 -96c64.667 -61.333 97 -136.333 97 -225zM982 1002c0 96.667 -41 170.668 -123 222.001
c-69.333 43.333 -155 65 -257 65c-66.667 0 -126.667 -7.33301 -180 -22v-521c49.333 -9.33301 112.333 -14 189 -14c170 0 280.667 42.667 332 128c26 43.333 39 90.666 39 141.999zM1022 354.001c0 125.333 -60.999 214.333 -182.999 267c-64.667 28 -144.667 42 -240 42
c-85.333 0 -144.333 -3 -177 -9v-556c77.333 -18 153.666 -27 228.999 -27c100.667 0 184.667 21.333 252 64c79.333 50.667 119 123.667 119 219z" />
    <glyph glyph-name="C" unicode="C" horiz-adv-x="1366" 
d="M1295 318c-131.333 -232.667 -318.335 -349.001 -561.002 -349.001c-224.667 0 -398.667 83.333 -522 250c-92 124 -138 270 -138 438c0 132 28.667 253.667 86 365c60.667 116.667 146 207.334 256 272.001c106 62 222 93 348 93c98.667 0 195.334 -24 290.001 -72
c28.667 -14.667 48.667 -22 60 -22c41.333 0 69.333 31.333 84 94h35l31 -461h-31c-78 259.333 -229 389 -453 389c-197.333 0 -335.666 -95.667 -414.999 -287c-42 -100 -63 -224.333 -63 -373c0 -254.667 79 -430 237 -526c78.667 -48 168.667 -72 270 -72
c102 0 190 25.667 264 77c58 40 121.667 108 191 204z" />
    <glyph glyph-name="D" unicode="D" horiz-adv-x="1479" 
d="M1401 685c0 -189.333 -57.334 -347 -172.001 -473c-128 -141.333 -324 -212 -588 -212h-606v37h51c57.333 0 98 18.333 122 55c14.667 22 22 71.333 22 148v876c0 84.667 -9.33301 137.667 -28 159c-26 29.333 -64.667 44 -116 44h-51v37h552
c174.667 0 310.334 -16.333 407.001 -49c134 -44.667 237.667 -128 311 -250c64 -107.333 96 -231.333 96 -372zM1173 675c0 175.333 -46.333 318.333 -139 429c-99.333 117.333 -235 176 -407 176c-60 0 -128.333 -9.66699 -205 -29v-1153
c84.667 -18.667 155.667 -28 213 -28c168 0 301.333 60 400 180c92 111.333 138 253 138 425z" />
    <glyph glyph-name="E" unicode="E" horiz-adv-x="1251" 
d="M1204 340l-117.001 -339.999h-1045v37h48c31.333 0 61.666 7.66699 90.999 23c27.333 14 44.333 40.333 51 79c2.66699 14 4 47.333 4 100v881c0 86.667 -8.66699 139.667 -26 159c-23.333 26.667 -63.333 40 -120 40h-48v37h1045l15 -297h-39
c-11.333 58 -22.666 99 -33.999 123c-19.333 40.667 -48.666 69 -87.999 85c-24.667 10 -71.667 15 -141 15h-372v-536h298c77.333 0 129 11.667 155 35c34.667 30.667 54 84.667 58 162h37v-472h-37c-9.33301 66.667 -18.666 109 -27.999 127c-25.333 50 -87 75 -185 75
h-298v-447c0 -46.667 0.333008 -72.334 1 -77.001c4 -31.333 15.667 -52.333 35 -63c13.333 -8 38.666 -12 75.999 -12h230c66 0 114 3.33301 144 10c46.667 10.667 87.667 33.667 123 69c40.667 40.667 83 103 127 187h40z" />
    <glyph glyph-name="F" unicode="F" horiz-adv-x="1139" 
d="M1055 1058h-35.001c-30 109.333 -78.333 177.333 -145 204c-34 13.333 -86.333 20 -157 20h-299v-533h247c62.667 0 107 15.667 133 47c21.333 26 36 72.333 44 139h37v-459h-37c-1.33301 88 -26 145.333 -74 172c-23.333 12 -57.666 18 -102.999 18h-247v-426
c0 -68.667 4.33301 -114 13 -136c6.66699 -16.667 20.667 -31 42 -43c28.667 -16 59.334 -24 92.001 -24h49v-37h-582v37h48c56 0 96.667 16.333 122 49c16 20.667 24 72 24 154v876c0 68.667 -4.33301 114 -13 136c-6.66699 16.667 -20.334 31 -41.001 43
c-28 16 -58.667 24 -92 24h-48v37h1009z" />
    <glyph glyph-name="G" unicode="G" horiz-adv-x="1479" 
d="M1450 702l-24.998 0.00195312c-52 0 -87.667 -17.333 -107 -52c-13.333 -24 -20 -72.667 -20 -146v-415c-148.667 -80 -307.334 -120 -476.001 -120c-262 0 -461 84 -597 252c-102 126 -153 271.333 -153 436c0 119.333 28.667 233.666 86 342.999
c135.333 258 346 387 632 387c87.333 0 189.333 -21.667 306 -65c38 -14 63 -21 75 -21c29.333 0 45.666 28.667 48.999 86h37l35 -428h-35c-35.333 106.667 -81 187 -137 241c-80.667 78 -184.334 117 -311.001 117c-173.333 0 -304.666 -68.333 -393.999 -205
c-75.333 -114.667 -113 -252 -113 -412c0 -117.333 21.333 -227.333 64 -330c48.667 -117.333 118 -203.333 208 -258c80.667 -50 163.667 -75 249 -75c98.667 0 192 25 280 75v392c0 50.667 -2 85 -6 103c-8.66699 37.333 -27.667 63.666 -57 78.999
c-22 10.667 -60.333 16 -115 16v38h525v-38z" />
    <glyph glyph-name="H" unicode="H" horiz-adv-x="1479" 
d="M1437 0l-580.001 0.000976562v37h48c55.333 0 95.666 16.333 120.999 49c16.667 21.333 25 72.666 25 153.999v413h-630v-413c0 -68.667 4.33301 -114 13 -136c18 -44.667 62.333 -67 133 -67h49v-37h-581v37h48c56 0 96.667 16.333 122 49c16 20.667 24 72 24 154v875
c0 69.333 -4.33301 115 -13 137c-6.66699 17.333 -20.334 31.666 -41.001 42.999c-28.667 16 -59.334 24 -92.001 24h-48v37h581v-37h-49c-31.333 0 -61.166 -7.33301 -89.499 -22s-45.833 -41.667 -52.5 -81c-2.66699 -15.333 -4 -49 -4 -101v-388h630v388
c0 69.333 -4.33301 115 -13 137c-18 44.667 -62.333 67 -133 67h-48v37h580v-37h-48c-31.333 0 -61.166 -7.33301 -89.499 -22s-45.833 -41.667 -52.5 -81c-2.66699 -14 -4 -47.667 -4 -101v-875c0 -68.667 4.33301 -114 13 -136
c6.66699 -17.333 20.334 -31.666 41.001 -42.999c28.667 -16 59.334 -24 92.001 -24h48v-37z" />
    <glyph glyph-name="I" unicode="I" horiz-adv-x="682" 
d="M632 0h-580.999v37h48c56 0 96.667 16.333 122 49c16 20.667 24 72 24 154v876c0 68.667 -4.33301 114 -13 136c-6.66699 17.333 -20.334 31.666 -41.001 42.999c-28.667 16 -59.334 24 -92.001 24h-48v37h581v-37h-49c-55.333 0 -95.666 -16.333 -120.999 -49
c-16.667 -21.333 -25 -72.666 -25 -153.999v-876c0 -68.667 4.33301 -114 13 -136c18 -44.667 62.333 -67 133 -67h49v-37z" />
    <glyph glyph-name="J" unicode="J" horiz-adv-x="797" 
d="M785 1319l-49.001 -0.000976562c-55.333 0 -95.666 -16.333 -120.999 -49c-16 -20.667 -24 -72 -24 -154v-663c0 -190 -49.667 -327.667 -149 -413c-54.667 -47.333 -120.667 -71 -198 -71c-51.333 0 -96.333 12.333 -135 37c-44.667 28.667 -67 67.334 -67 116.001
c0 70 34 105 102 105c30.667 0 57 -15.333 79 -46c10 -14 24.333 -43 43 -87c15.333 -36 35 -54 59 -54c49.333 0 74 50 74 150v926c0 68.667 -4.33301 114 -13 136c-18 44.667 -62.333 67 -133 67h-49v37h581v-37z" />
    <glyph glyph-name="K" unicode="K" horiz-adv-x="1479" 
d="M1496 0h-644.999v37c72.667 0 109 21 109 63c0 28.667 -24 66.667 -72 114l-468 463v-437c0 -68.667 4.33301 -114 13 -136c18 -44.667 62.333 -67 133 -67h46v-37h-578v37h48c56 0 96.667 16.333 122 49c16 20.667 24 72 24 154v876c0 69.333 -4.33301 115 -13 137
c-6.66699 16 -20.334 30 -41.001 42c-28.667 16 -59.334 24 -92.001 24h-48v37h578v-37h-46c-31.333 0 -61.166 -7.33301 -89.499 -22s-45.833 -41.667 -52.5 -81c-2.66699 -14.667 -4 -48 -4 -100v-415l137 127c199.333 182.667 319 303.667 359 363c18 26.667 27 50 27 70
c0 38.667 -30.667 58 -92 58h-31v37h498v-37c-54 -1.33301 -110 -19.333 -168 -54c-34 -21.333 -76.667 -55.333 -128 -102l-203 -205l-207 -206l500 -497c138 -137.333 266 -210 384 -218v-37z" />
    <glyph glyph-name="L" unicode="L" horiz-adv-x="1251" 
d="M1207 368l-116.002 -367.998h-1050v37h51c57.333 0 98.333 18.667 123 56c14 21.333 21 70.666 21 147.999v875c0 84.667 -9.33301 137.667 -28 159c-26 29.333 -64.667 44 -116 44h-51v37h614v-37c-116 1.33301 -186.333 -23 -211 -73
c-10.667 -21.333 -16 -72.333 -16 -153v-852c0 -56 5.33301 -94 16 -114c12 -22.667 41.667 -36.334 89 -41.001h104h99c84.667 0 145.334 4.33301 182.001 13c59.333 14 110 44.667 152 92c34.667 38.667 69.334 100 104.001 184z" />
    <glyph glyph-name="M" unicode="M" horiz-adv-x="1821" 
d="M1778 0l-576 0.000976562v37h48c58 0 98.667 17.333 122 52c14.667 21.333 22 70 22 146v906l-523 -1141h-33l-524 1141v-906c0 -83.333 9 -135.333 27 -156c24.667 -28 63.667 -42 117 -42h48v-37h-472v37h48c57.333 0 98 17.333 122 52c14.667 21.333 22 70 22 146v886
c0 59.333 -6.66699 102.666 -20 129.999c-22.667 45.333 -80 68 -172 68v37h384l492 -1061l484 1061h384v-37h-47c-58 0 -99 -17.333 -123 -52c-14.667 -21.333 -22 -70 -22 -146v-886c0 -83.333 9.33301 -135.333 28 -156c24.667 -28 63.667 -42 117 -42h47v-37z" />
    <glyph glyph-name="N" unicode="N" horiz-adv-x="1479" 
d="M1450 1319l-48.001 0.000976562c-57.333 0 -98 -17.333 -122 -52c-14.667 -21.333 -22 -70 -22 -146v-1143h-36l-894 1092v-835c0 -84 9 -136 27 -156c24.667 -28 63.667 -42 117 -42h48v-37h-472v37h47c58 0 99 17.333 123 52c14.667 21.333 22 70 22 146v943
c-35.333 41.333 -61.666 68.666 -78.999 81.999c-24.667 20 -58 36.667 -100 50c-18.667 6 -48 9 -88 9v37h368l829 -1017v782c0 83.333 -9.33301 135.333 -28 156c-24.667 28 -63.667 42 -117 42h-47v37h472v-37z" />
    <glyph glyph-name="O" unicode="O" horiz-adv-x="1479" 
d="M1400 686c0 -197.333 -61.332 -364.668 -183.999 -502.001c-127.333 -143.333 -288.333 -215 -483 -215c-198 0 -359 70.333 -483 211c-118.667 134.667 -178 302.334 -178 503.001c0 215.333 73.333 391 220 527c127.333 118 279.666 177 456.999 177
c187.333 0 344 -70.667 470 -212c120.667 -136 181 -299 181 -489zM1171 658.998c0 182 -28.334 328 -85.001 438c-74 144.667 -192.667 217 -356 217c-121.333 0 -218.666 -45 -291.999 -135c-91.333 -112 -137 -276 -137 -492c0 -222 47.333 -392.333 142 -511
c72 -90.667 168 -136 288 -136c158 0 274.667 67.333 350 202c60 106.667 90 245.667 90 417z" />
    <glyph glyph-name="P" unicode="P" horiz-adv-x="1139" 
d="M1067 981c0 -120.667 -40.334 -214.333 -121.001 -281c-75.333 -62 -174.666 -93 -297.999 -93c-65.333 0 -141.333 9.33301 -228 28v-395c0 -84.667 9.33301 -137.667 28 -159c26 -29.333 64.333 -44 115 -44h52v-37h-581v37h51c57.333 0 98.333 18.667 123 56
c13.333 20.667 20 69.667 20 147v876c0 85.333 -9 138.333 -27 159c-26 29.333 -64.667 44 -116 44h-51v37h497c106 0 190.667 -9 254 -27c86 -24.667 156 -70.334 210 -137.001c48 -59.333 72 -129.666 72 -210.999zM838.999 961.001c0 132 -46.001 224.333 -138.001 277
c-44 24.667 -94 37 -150 37c-34 0 -77.667 -6.33301 -131 -19v-564c70.667 -13.333 125.334 -20 164.001 -20c76.667 0 139 29.667 187 89c45.333 55.333 68 122 68 200z" />
    <glyph glyph-name="Q" unicode="Q" horiz-adv-x="1479" 
d="M1401 677c0 -162 -44.332 -305.667 -132.999 -431c-90.667 -128 -212.667 -215 -366 -261c127.333 -220 290.666 -338 489.999 -354v-32c-202 7.33301 -399.333 72.333 -592 195c-94 60 -175 123.667 -243 191c-98 39.333 -174 80.333 -228 123
c-171.333 134.667 -257 325.667 -257 573c0 196.667 62.667 362.667 188 498c129.333 138.667 291.333 208 486 208c190.667 0 348.667 -71.667 474 -215c120.667 -137.333 181 -302.333 181 -495zM1172 652c0 302 -75 501.333 -225 598c-63.333 40 -134.333 60 -213 60
c-156.667 0 -272 -69.333 -346 -208c-58 -108.667 -87 -249 -87 -421c0 -220 47.333 -389 142 -507c73.333 -91.333 170.333 -137 291 -137c155.333 0 271 67 347 201c60.667 106.667 91 244.667 91 414z" />
    <glyph glyph-name="R" unicode="R" horiz-adv-x="1366" 
d="M1384 0h-361.999l-459 634c-34 -1.33301 -61.667 -2 -83 -2c-18 0 -37.667 0.666992 -59 2v-394c0 -84.667 9.33301 -137.667 28 -159c26 -29.333 64 -44 114 -44h53v-37h-581v37h51c57.333 0 98.333 18.667 123 56c14 21.333 21 70.333 21 147v876
c0 85.333 -9.33301 138.333 -28 159c-26 29.333 -64.667 44 -116 44h-51v37h494c120.667 0 209.667 -6 267 -18c95.333 -20.667 170.666 -63.667 225.999 -129c47.333 -56.667 71 -124 71 -202c0 -182 -111.333 -297.667 -334 -347l280 -389
c56.667 -79.333 104.667 -133.333 144 -162c52 -39.333 119 -63.333 201 -72v-37zM868.001 994c0 86 -26.667 155.167 -80 207.5s-123.333 78.5 -210 78.5c-38.667 0 -91 -6.33301 -157 -19v-564h28c12.667 -0.666992 22 -1 28 -1c108.667 0 197.667 22 267 66
c82.667 52 124 129.333 124 232z" />
    <glyph glyph-name="S" unicode="S" horiz-adv-x="1139" 
d="M1029 346c0 -112.667 -43.668 -204.997 -131.001 -276.997c-82 -66.667 -180.667 -100 -296 -100c-38.667 0 -75.667 3 -111 9c-20 3.33301 -63.333 16.333 -130 39c-58.667 19.333 -99.334 29 -122.001 29c-33.333 0 -53.666 -25.667 -60.999 -77h-37v465h37
c15.333 -87.333 35 -153.333 59 -198c31.333 -59.333 80 -106.333 146 -141c60 -32 126 -48 198 -48s133.667 18.667 185 56c56.667 40.667 85 96 85 166c0 73.333 -37.667 138.666 -113 195.999c-46 35.333 -122.167 81.833 -228.5 139.5s-183.5 105.5 -231.5 143.5
c-100 78.667 -150 172.667 -150 282c0 105.333 40.333 192 121 260c76.667 64.667 168.667 97 276 97c72.667 0 149 -17.667 229 -53c38 -16.667 64.333 -25 79 -25c34.667 0 57.667 26 69 78h37v-469h-37c-22.667 168.667 -88.334 282.667 -197.001 342
c-57.333 31.333 -116.666 47 -177.999 47c-62 0 -116.667 -18.667 -164 -56c-50.667 -40.667 -76 -91.334 -76 -152.001c0 -40.667 14.333 -78.334 43 -113.001c42 -50 140.333 -116.667 295 -200c107.333 -57.333 176 -96.333 206 -117
c76.667 -52 130.334 -108 161.001 -168c24.667 -49.333 37 -101 37 -155z" />
    <glyph glyph-name="T" unicode="T" horiz-adv-x="1251" 
d="M1200 1038h-38c-7.33301 56 -17.333 96 -30 120c-40 75.333 -112.667 113 -218 113h-191v-1036c0 -84 9 -136 27 -156c24.667 -28 63.667 -42 117 -42h47v-37h-575v37h48c57.333 0 98 17.333 122 52c14.667 21.333 22 70 22 146v1036h-163c-64 0 -109 -4.66699 -135 -14
c-80 -28.667 -124.333 -101.667 -133 -219h-38l16 318h1107z" />
    <glyph glyph-name="U" unicode="U" horiz-adv-x="1479" 
d="M1457 1319h-51.002c-52.667 0 -93.667 -22.333 -123 -67c-14 -21.333 -21 -69.333 -21 -144v-550c0 -125.333 -10 -220.666 -30 -285.999c-29.333 -92 -85.666 -166.333 -168.999 -223c-79.333 -54 -187 -81 -323 -81c-264 0 -430.667 94.667 -500 284
c-21.333 58.667 -32 170 -32 334v530c0 69.333 -7.33301 117.666 -22 144.999c-21.333 38.667 -62.666 58 -123.999 58h-51v37h586v-37h-52c-56 0 -96 -17.667 -120 -53c-16.667 -24 -25 -74 -25 -150v-591c0 -159.333 22.333 -272.666 67 -339.999
c58 -87.333 153 -131 285 -131c80 0 154 16.667 222 50c78 37.333 131.333 89.666 160 156.999c25.333 60 38 162 38 306v549c0 84.667 -9.33301 137.667 -28 159c-26 29.333 -64.667 44 -116 44h-51v37h480v-37z" />
    <glyph glyph-name="V" unicode="V" horiz-adv-x="1479" 
d="M1454 1319c-48.667 -8.66699 -85 -24.0029 -109 -46.0029c-34.667 -31.333 -66 -81.333 -94 -150l-473 -1154h-37l-508 1169c-26 60.667 -44.333 97.334 -55 110.001c-33.333 41.333 -86.666 65 -159.999 71v37h554v-37c-100 -9.33301 -150 -39.666 -150 -90.999
c0 -33.333 15.333 -85.333 46 -156l345 -795l320 785c31.333 76.667 47 130.334 47 161.001c0 48 -42.333 79 -127 93c-2.66699 0.666992 -8.33398 1.66699 -17.001 3v37h418v-37z" />
    <glyph glyph-name="W" unicode="W" horiz-adv-x="1933" 
d="M1917 1319c-64.667 0 -114.333 -30.002 -149 -90.002c-8.66699 -15.333 -29.667 -71 -63 -167l-378 -1093h-40l-309 867l-307 -867h-36l-403 1126c-30 84.667 -49 134.334 -57 149.001c-26 50 -75.333 75 -148 75v37h502v-37h-24c-72.667 0 -109 -27.333 -109 -82
c0 -24 14.667 -77.667 44 -161l267 -761l225 647l-72 205c-9.33301 26.667 -25 56 -47 88c-18.667 27.333 -46 46.666 -82 57.999c-12.667 4 -32.667 6 -60 6v37h528v-37h-36c-72 0 -108 -29.667 -108 -89c0 -33.333 15 -92.666 45 -177.999l260 -737l258 747
c29.333 84.667 44 142 44 172c0 34.667 -17 58.334 -51 71.001c-25.333 9.33301 -58.333 14 -99 14v37h405v-37z" />
    <glyph glyph-name="X" unicode="X" horiz-adv-x="1479" 
d="M1455 0l-582 0.00390625v37c30 0.666992 52 2.66699 66 6c24 5.33301 42.333 16.666 55 33.999c8.66699 12 13 24.333 13 37c0 15.333 -3 30.666 -9 45.999c-3.33301 8 -21.666 37.333 -54.999 88l-230 348l-284 -364c-42 -54 -63 -93.333 -63 -118
c0 -48 43.333 -73.667 130 -77v-37h-481v37c33.333 3.33301 62.666 10.333 87.999 21c84 35.333 166 103.666 246 204.999l320 404l-267 391c-58.667 86 -108 146 -148 180c-61.333 51.333 -132 78.333 -212 81v37h627v-37c-92.667 -3.33301 -139 -29 -139 -77
c0 -24 16 -60 48 -108l208 -311l241 305c40.667 51.333 61 89.666 61 114.999c0 32 -16.667 54.333 -50 67c-15.333 5.33301 -47 8.33301 -95 9v37h481v-37c-38.667 -2 -69.667 -8 -93 -18c-64.667 -27.333 -140 -96 -226 -206l-269 -344l291 -434
c66 -98 110.333 -159 133 -183c58 -60.667 123 -93 195 -97v-37z" />
    <glyph glyph-name="Y" unicode="Y" horiz-adv-x="1479" 
d="M1449 1319h-25.998c-54.667 0 -110.334 -29.667 -167.001 -89c-24 -25.333 -57.667 -72 -101 -140l-327 -515v-340c0 -83.333 9.33301 -135.333 28 -156c25.333 -28 65.333 -42 120 -42h44v-37h-576v37h48c57.333 0 98 17.333 122 52c14.667 21.333 22 70 22 146v321
l-372 568c-40.667 62 -66.334 99 -77.001 111c-24 25.333 -60.667 50 -110 74c-14 6.66699 -33.333 10 -58 10v37h580v-37h-30c-32 0 -59.667 -6.66699 -83 -20c-28.667 -16 -43 -38.667 -43 -68c0 -24 20.333 -67.333 61 -130l283 -437l266 418
c40 62.667 60 109.334 60 140.001c0 39.333 -18.667 67.666 -56 84.999c-18 8 -45 12 -81 12v37h473v-37z" />
    <glyph glyph-name="Z" unicode="Z" horiz-adv-x="1251" 
d="M1194 359l-63.999 -359h-1104v37l870 1238h-434c-118.667 0 -195.334 -30.333 -230.001 -91c-17.333 -30 -33 -85.667 -47 -167h-38l28 339h1003l-891 -1274h556c94.667 0 166 24.333 214 73c38 38.667 72.667 108.667 104 210z" />
    <glyph glyph-name="bracketleft" unicode="[" horiz-adv-x="682" 
d="M608 -406h-440v1793h440v-79h-290v-1636h290v-78z" />
    <glyph glyph-name="backslash" unicode="\" horiz-adv-x="569" 
d="M573 -28h-80l-490 1450h80z" />
    <glyph glyph-name="bracketright" unicode="]" horiz-adv-x="682" 
d="M515 -407h-440v79h290v1636h-290v79h440v-1794z" />
    <glyph glyph-name="asciicircum" unicode="^" horiz-adv-x="961" 
d="M923 667h-92l-350 586l-350 -586h-94l431 717h30z" />
    <glyph glyph-name="underscore" unicode="_" 
d="M1042 -442h-1059v84h1059v-84z" />
    <glyph glyph-name="grave" unicode="`" horiz-adv-x="682" 
d="M447 1045h-35l-294 345h223z" />
    <glyph glyph-name="a" unicode="a" horiz-adv-x="909" 
d="M905 132c-74.667 -100 -146 -149.998 -214 -149.998c-70.667 0 -106.667 50 -108 150c-94.667 -73.333 -153.667 -115.333 -177 -126c-36 -16.667 -74.333 -25 -115 -25c-66.667 0 -120 23 -160 69c-38.667 44 -58 99.667 -58 167c0 94.667 57.667 176 173 244
c67.333 40 179.666 88.667 336.999 146v36c0 74.667 -9.66699 130 -29 166c-26.667 48.667 -73.667 73 -141 73c-34.667 0 -65.667 -9.66699 -93 -29c-31.333 -21.333 -46.333 -49 -45 -83l2 -58c2 -64 -26.333 -96 -85 -96c-56 0 -84 32.333 -84 97
c0 75.333 39 134.333 117 177c64 35.333 136.667 53 218 53c152.667 0 248.334 -46 287.001 -138c12 -28.667 18 -87.334 18 -176.001v-311c0 -120.667 7.33301 -187.334 22 -200.001c7.33301 -6.66699 16 -10 26 -10c10.667 0 20 2.33301 28 7
c13.333 8 40.333 32.333 81 73v-56zM583 197.002l-0.000976562 349c-99.333 -39.333 -164.333 -67.666 -195 -84.999c-98 -54.667 -147 -120.334 -147 -197.001c0 -43.333 12.667 -81.333 38 -114c27.333 -35.333 62 -53 104 -53c50.667 0 117.334 33.333 200.001 100z" />
    <glyph glyph-name="b" unicode="b" 
d="M953 493c0 -162.667 -54.001 -293.667 -162.001 -393c-92.667 -85.333 -196 -128 -310 -128c-106 0 -216.333 38.667 -331 116v949c0 144 -10.333 224.333 -31 241c-10.667 8.66699 -24 13 -40 13c-18.667 0 -42 -5.33301 -70 -16l-14 35l275 112h45v-664
c88.667 123.333 184.334 185 287.001 185c112 0 200.667 -49 266 -147c56.667 -84.667 85 -185.667 85 -303zM779.999 436c0 91.333 -19.335 171.333 -58.002 240c-47.333 83.333 -113.666 125 -198.999 125c-35.333 0 -70.666 -9 -105.999 -27
c-26.667 -13.333 -60.667 -40 -102 -80v-548c68.667 -67.333 141 -101 217 -101c83.333 0 148 47 194 141c36 74.667 54 158 54 250z" />
    <glyph glyph-name="c" unicode="c" horiz-adv-x="909" 
d="M842 348c-21.333 -105.333 -63.3359 -192.001 -126.003 -260.001c-71.333 -77.333 -157.333 -116 -258 -116c-122 0 -219.333 52 -292 156c-64 92 -96 201.667 -96 329c0 133.333 39 246.333 117 339c82.667 98 189.334 147 320.001 147
c70.667 0 137.334 -18.667 200.001 -56c72.667 -43.333 109 -98 109 -164c0 -56.667 -31 -85 -93 -85c-39.333 0 -69 12.667 -89 38c-9.33301 12 -17 39.667 -23 83c-5.33301 39.333 -19 68.666 -41 87.999s-54 29 -96 29c-66.667 0 -120.334 -24.667 -161.001 -74
c-54 -65.333 -81 -151.666 -81 -258.999c0 -103.333 23.333 -194.666 70 -273.999c55.333 -94 131.333 -141 228 -141c64.667 0 123.334 22.333 176.001 67c36.667 31.333 72.334 87 107.001 167z" />
    <glyph glyph-name="d" unicode="d" 
d="M1029 85l-272.003 -113.002h-46v131c-83.333 -87.333 -173 -131 -269 -131c-113.333 0 -205.666 47.667 -276.999 143c-64.667 86.667 -97 188.334 -97 305.001c0 134 39.667 252.667 119 356c86 112 194 168 324 168c80.667 0 147.334 -25.667 200.001 -77v169
c0 144.667 -10.333 225.334 -31 242.001c-10.667 8.66699 -24 13 -40 13c-17.333 0 -40.333 -5.33301 -69 -16l-13 35l273 112h45v-1059c0 -146 10.667 -228 32 -246c10.667 -9.33301 23.334 -14 38.001 -14c18 0 42 5.66699 72 17zM710.997 172.998l-0.00195312 472
c-8.66699 100 -47 169.667 -115 209c-33.333 18.667 -65.666 28 -96.999 28c-58.667 0 -111 -26.333 -157 -79c-60.667 -69.333 -91 -170.666 -91 -303.999c0 -102.667 21.333 -193.334 64 -272.001c52 -96.667 125.333 -145 220 -145c60.667 0 119.334 30.333 176.001 91z
" />
    <glyph glyph-name="e" unicode="e" horiz-adv-x="909" 
d="M851 334c-15.333 -98.667 -56.3311 -182.333 -122.998 -251c-71.333 -74 -155.333 -111 -252 -111c-124.667 0 -224.334 49 -299.001 147c-67.333 89.333 -101 198.333 -101 327c0 140.667 34.667 256.334 104 347.001c76.667 100.667 183 151 319 151
c108 0 194 -35.667 258 -107c62.667 -68.667 94 -157.334 94 -266.001h-633c-0.666992 -113.333 25.666 -211 78.999 -293c62 -95.333 147 -143 255 -143c124 0 213.333 73 268 219zM642.002 629.001c-3.33301 58.667 -10.334 100 -21.001 124
c-35.333 80 -94.666 120 -177.999 120c-64 0 -117 -25.333 -159 -76c-37.333 -45.333 -59.333 -101.333 -66 -168h424z" />
    <glyph glyph-name="f" unicode="f" horiz-adv-x="682" 
d="M890 1251c0 -20 -8.66797 -38.832 -26.001 -56.499s-36 -26.5 -56 -26.5c-34.667 0 -71.667 29.333 -111 88c-42 61.333 -87.667 92 -137 92c-64.667 0 -106 -33.333 -124 -100c-9.33301 -34.667 -14 -123.334 -14 -266.001v-66h236v-72h-236v-602
c0 -85.333 9.33301 -139.333 28 -162c24.667 -29.333 57.667 -44 99 -44h83v-36h-547v36h41c60.667 0 100.334 24.667 119.001 74c8 22.667 12 66.667 12 132v602h-178v72h178v60c0 180 59.667 308.667 179 386c60 38.667 127.667 58 203 58c70 0 134.333 -22.667 193 -68
c38.667 -30 58 -63.667 58 -101z" />
    <glyph glyph-name="g" unicode="g" 
d="M987 836c0 -25.333 -5.00098 -40.001 -15.001 -44.001c-5.33301 -2 -22.333 -3 -51 -3h-119c37.333 -48 56 -109.333 56 -184c0 -96 -37 -173 -111 -231c-68 -52.667 -151.333 -79 -250 -79c-45.333 0 -91.666 6.66699 -138.999 20c-50 -43.333 -75 -81.666 -75 -114.999
c0 -29.333 27 -48 81 -56c19.333 -2.66699 66 -5 140 -7c136.667 -3.33301 225.667 -8 267 -14c59.333 -8.66699 107.333 -30 144 -64c40 -38 60 -85.667 60 -143c0 -75.333 -35.333 -146 -106 -212c-104 -97.333 -239.667 -146 -407 -146c-129.333 0 -238 29 -326 87
c-50 32.667 -75 67.334 -75 104.001c0 33.333 27 83.666 81 150.999c5.33301 6.66699 39.333 42.667 102 108c-63.333 38 -95 75 -95 111c0 54 53.333 125.667 160 215c-116 56.667 -174 149 -174 277c0 98 37 178.667 111 242c70 60 154.667 90 254 90
c87.333 0 163 -21.333 227 -64h194c36 0 56 -3.33301 60 -10s6 -17.667 6 -33zM682.999 579.999c0 106 -23 189 -69 249c-34 44 -77.667 66 -131 66c-61.333 0 -107 -26 -137 -78c-24.667 -42.667 -37 -96.667 -37 -162c0 -105.333 22.667 -187 68 -245
c34.667 -44 78.667 -66 132 -66c116 0 174 78.667 174 236zM901.999 -123.001c0 46 -34.334 76.001 -103.001 90.001c-24 4.66699 -75.333 8 -154 10c-149.333 4 -264.666 11.667 -345.999 23c-63.333 -68.667 -95 -127.334 -95 -176.001c0 -32 19.333 -60 58 -84
c66.667 -41.333 163 -62 289 -62c81.333 0 154.333 13 219 39c88 36 132 89.333 132 160z" />
    <glyph glyph-name="h" unicode="h" 
d="M1011 0l-450.002 -0.00195312v36h21c70 0 111.333 25.667 124 77c2 8 3 39.333 3 94v324c0 74 -1.33301 121.667 -4 143c-8.66699 60.667 -29 102.334 -61 125.001c-22.667 15.333 -50 23 -82 23c-70.667 0 -147 -43.667 -229 -131v-484c0 -48.667 1 -78 3 -88
c5.33301 -31.333 21 -53.666 47 -66.999c18.667 -10.667 51.334 -16 98.001 -16v-36h-454v36c40 0 72 6.33301 96 19c29.333 15.333 44 66 44 152v829c0 144 -10 224.667 -30 242c-10.667 8.66699 -24.667 13 -42 13c-14 0 -36.667 -5.33301 -68 -16l-14 35l274 112h46v-670
c56 61.333 101 104.333 135 129c56 41.333 113 62 171 62c110 0 182.333 -59.333 217 -178c12.667 -42.667 19 -120.667 19 -234v-324c0 -57.333 4.66699 -97 14 -119c14.667 -34.667 55.334 -52 122.001 -52v-36z" />
    <glyph glyph-name="i" unicode="i" horiz-adv-x="569" 
d="M398 1321c0 -28 -9.83398 -52 -29.501 -72s-43.5 -30 -71.5 -30s-52 10 -72 30s-30 44 -30 72c0 28.667 9.83301 52.667 29.5 72s43.834 29 72.501 29c28 0 51.833 -9.83301 71.5 -29.5s29.5 -43.5 29.5 -71.5zM518.999 0h-444.998v36
c67.333 0 109.666 18.667 126.999 56c8.66699 20 13 58.333 13 115v353c0 100 -3 164.333 -9 193c-8 38 -29 57 -63 57c-18.667 0 -41.334 -5 -68.001 -15l-14 36l276 112h44v-736c0 -86 16.667 -138.333 50 -157c16 -9.33301 45.667 -14 89 -14v-36z" />
    <glyph glyph-name="j" unicode="j" horiz-adv-x="569" 
d="M399 1320c0 -28.667 -10.001 -52.833 -30.001 -72.5s-44.333 -29.5 -73 -29.5c-28 0 -52 10 -72 30s-30 44 -30 72c0 28.667 9.83301 53 29.5 73s43.834 30 72.501 30s53 -10 73 -30s30 -44.333 30 -73zM381.999 21.001c0 -132.667 -25.999 -239.334 -77.999 -320.001
c-62.667 -95.333 -156.667 -143 -282 -143c-40.667 0 -77.667 7 -111 21c-45.333 18 -68 44.667 -68 80c0 22.667 8 42.5 24 59.5s35.333 25.5 58 25.5c16 0 33.667 -4.33301 53 -13c10 -4.66699 33.667 -23 71 -55c30 -26 55.333 -39 76 -39c40.667 0 67.667 26.667 81 80
c7.33301 29.333 11 92.333 11 189v652c0 100.667 -3 165.334 -9 194.001c-8 38.667 -29 58 -63 58c-18.667 0 -41.334 -5 -68.001 -15l-14 36l276 112h43v-922z" />
    <glyph glyph-name="k" unicode="k" 
d="M1036 0h-445v36c43.333 1.33301 65 15 65 41c0 15.333 -13.333 40 -40 74l-281 359v-304c0 -88 16 -140.333 48 -157c15.333 -8 48.666 -12.333 99.999 -13v-36h-466v36c75.333 0 121 17 137 51c10 21.333 15 59.333 15 114v834c0 145.333 -10 226.666 -30 243.999
c-10.667 8.66699 -24.667 13 -42 13c-14 0 -35 -5.66699 -63 -17l-17 35l272 112h46v-912l233 213c48.667 44.667 77.334 73.334 86.001 86.001c5.33301 8 8 16 8 24c0 31.333 -23.667 48.333 -71 51v32h398v-32c-96 -2.66699 -181.333 -38.334 -256 -107.001l-235 -217
l235 -297c62.667 -79.333 106.667 -131.333 132 -156c32 -31.333 60 -51.666 84 -60.999c16.667 -6.66699 45.667 -10 87 -10v-36z" />
    <glyph glyph-name="l" unicode="l" horiz-adv-x="569" 
d="M527 0l-448.999 -0.000976562v36c65.333 0 106 18.667 122 56c8.66699 20 13 58.333 13 115v832c0 142.667 -9.66699 222.334 -29 239.001c-10.667 8.66699 -24 13 -40 13c-17.333 0 -39.333 -5.33301 -66 -16l-17 35l273 112h45v-1215c0 -85.333 17 -137.333 51 -156
c17.333 -10 49.666 -15 96.999 -15v-36z" />
    <glyph glyph-name="m" unicode="m" horiz-adv-x="1593" 
d="M1584 0l-452 -0.000976562v36h19c70 0 111.667 24.667 125 74c2.66699 10 4 42.333 4 97v394c0 75.333 -9 128 -27 158c-25.333 42.667 -67 64 -125 64c-69.333 0 -148 -41.667 -236 -125l-2 -11l2 -43v-437c0 -48.667 1 -78 3 -88
c5.33301 -31.333 21 -53.666 47 -66.999c19.333 -10.667 52.333 -16 99 -16v-36h-463v36c81.333 0 129.333 24 144 72c3.33301 11.333 5 44.333 5 99v394c0 75.333 -11 129 -33 161c-29.333 42.667 -70.333 64 -123 64c-35.333 0 -71 -9.66699 -107 -29
c-56 -30 -98.667 -63 -128 -99v-491c0 -86.667 16.667 -139 50 -157c16 -9.33301 49 -14 99 -14v-36h-453v36c67.333 0 109.333 19 126 57c8.66699 19.333 13 57.333 13 114v350c0 101.333 -3 166.333 -9 195c-8 38.667 -29 58 -63 58c-18.667 0 -41 -5 -67 -15l-15 36
l276 112h43v-195c66 66 105.333 104.333 118 115c63.333 53.333 130 80 200 80c125.333 0 202.333 -65 231 -195c54 62.667 100.333 107.667 139 135c56.667 40 117 60 181 60c104.667 0 177.667 -53.333 219 -160c14.667 -38 22 -98.667 22 -182v-394
c0 -58 4.33301 -97.333 13 -118c15.333 -35.333 57 -53 125 -53v-36z" />
    <glyph glyph-name="n" unicode="n" 
d="M1015 0l-452.999 -0.000976562v36h19c70 0 111.667 25.667 125 77c2.66699 10 4 41.333 4 94v375c0 158.667 -47.333 238 -142 238c-79.333 0 -158.333 -43.333 -237 -130v-483c0 -62 3.66699 -100.333 11 -115c18 -37.333 64 -56 138 -56v-36h-453v36h20
c51.333 0 85.333 16.333 102 49c11.333 22.667 17 63.334 17 122.001v340c0 149.333 -10 232.666 -30 249.999c-10.667 8.66699 -24.667 13 -42 13c-18.667 0 -41 -5 -67 -15l-15 36l276 112h43v-194c107.333 129.333 209.666 194 306.999 194
c103.333 0 175 -53.667 215 -161c14.667 -39.333 22 -100.666 22 -183.999v-391c0 -86 16.667 -138.333 50 -157c16 -9.33301 46 -14 90 -14v-36z" />
    <glyph glyph-name="o" unicode="o" 
d="M953 475c0 -84.667 -19.3311 -167 -57.998 -247c-40.667 -86 -95.334 -150.167 -164.001 -192.5s-145.334 -63.5 -230.001 -63.5c-138 0 -247.667 55 -329 165c-68.667 92.667 -103 196.667 -103 312c0 84 20 166 60 246c42.667 85.333 98.167 148 166.5 188
s140.5 60 216.5 60c138.667 0 250 -52.667 334 -158c71.333 -90 107 -193.333 107 -310zM767.002 398c0 162 -35.001 290.001 -105.001 384.001c-48 64 -108.333 96 -181 96c-89.333 0 -153.666 -47.333 -192.999 -142c-22 -52.667 -33 -120.334 -33 -203.001
c0 -113.333 20.333 -216.333 61 -309c52.667 -120.667 128.667 -181 228 -181c148.667 0 223 118.333 223 355z" />
    <glyph glyph-name="p" unicode="p" 
d="M954 491c0 -158 -45.332 -288.668 -135.999 -392.001c-74.667 -84.667 -168.667 -127 -282 -127c-48.667 0 -91.334 7 -128.001 21c-27.333 10.667 -57.333 30.667 -90 60v-279c0 -48 1 -78 3 -90c6.66699 -33.333 23 -56.666 49 -69.999c18.667 -10 53 -15 103 -15v-37
h-480v37h25c38 0 69.833 7.33301 95.5 22s38.5 67.667 38.5 159v866c0 84 -11 133.667 -33 149c-12 8 -28 12 -48 12c-16 0 -36.333 -4.66699 -61 -14l-12 32l282 114h38v-214c85.333 145.333 183 218 293 218c92 0 168.667 -36 230 -108c75.333 -88 113 -202.667 113 -344z
M776.001 396.999c0 140 -30.666 247.667 -91.999 323c-42.667 52 -93.334 78 -152.001 78c-32 0 -63.667 -8 -95 -24c-24 -12 -63.667 -48 -119 -108v-342c0 -73.333 3 -122 9 -146c11.333 -45.333 37 -81.333 77 -108c37.333 -25.333 80.333 -38 129 -38
c66.667 0 120.667 26 162 78c54 68 81 163.667 81 287z" />
    <glyph glyph-name="q" unicode="q" 
d="M1024 -438l-462.001 -0.00195312v37h19c62.667 0 101.667 18.333 117 55c8 19.333 12 56.333 12 111v394c-105.333 -124.667 -205.333 -187 -300 -187c-107.333 0 -193.333 49.333 -258 148c-56 86 -84 185 -84 297c0 144 42 266 126 366
c88.667 106.667 203.667 160 345 160c76.667 0 140.334 -21.333 191.001 -64c38.667 18.667 75.667 40 111 64h34v-1178c0 -43.333 1.33301 -71.666 4 -84.999c6 -31.333 21.333 -53.666 46 -66.999c16.667 -9.33301 49.667 -14 99 -14v-37zM709.999 221.998v430
c0 92 -29.667 155.667 -89 191c-33.333 20 -71 30 -113 30c-94 0 -165.333 -42.333 -214 -127c-38.667 -68.667 -58 -154 -58 -256c0 -100 20.667 -184.333 62 -253c50 -82.667 122 -124 216 -124c74 0 139.333 36.333 196 109z" />
    <glyph glyph-name="r" unicode="r" horiz-adv-x="682" 
d="M695 832c0 -25.333 -8.33496 -47.1641 -25.002 -65.4971s-37.667 -27.5 -63 -27.5c-21.333 0 -47.5 11.5 -78.5 34.5s-52.5 34.5 -64.5 34.5c-11.333 0 -24.333 -6.66699 -39 -20c-30.667 -28 -61.667 -73 -93 -135v-439c0 -64 11.5 -109.667 34.5 -137
s64.833 -41 125.5 -41v-36h-469v36c78.667 0 125 24.333 139 73c3.33301 11.333 5 43.666 5 96.999v355c0 91.333 0.333008 131.666 1 120.999c-3.33301 61.333 -13.666 99.333 -30.999 114c-12 9.33301 -26.667 14 -44 14c-20.667 0 -44 -5 -70 -15l-10 36l277 112h42v-206
c76.667 137.333 155.334 206 236.001 206c33.333 0 62.833 -10.333 88.5 -31s38.5 -47.334 38.5 -80.001z" />
    <glyph glyph-name="s" unicode="s" horiz-adv-x="797" 
d="M725 250c0 -80.667 -31.332 -147.999 -93.999 -201.999c-59.333 -50.667 -130 -76 -212 -76c-57.333 0 -121.333 10 -192 30c-23.333 6.66699 -41.333 10 -54 10c-15.333 0 -27.333 -8.66699 -36 -26h-33v327h33c16 -80 46.667 -145.333 92 -196
c51.333 -57.333 115.333 -86 192 -86c42.667 0 78.667 12.333 108 37c32 26 48 59.667 48 101c0 55.333 -28.333 104.333 -85 147c-24.667 18.667 -76.834 47.834 -156.501 87.501s-134.5 74.167 -164.5 103.5c-47.333 45.333 -71 102.333 -71 171
c0 78.667 27 142.667 81 192c52 48.667 117.667 73 197 73c36 0 79.667 -7.66699 131 -23c34 -10 56.667 -15 68 -15c18 0 33.333 12.667 46 38h33v-312h-33c-21.333 81.333 -47.333 140.666 -78 177.999c-40.667 50 -97.667 75 -171 75c-38.667 0 -73 -10 -103 -30
c-35.333 -22.667 -53 -52.334 -53 -89.001c0 -70.667 52.667 -131.667 158 -183l146 -71c135.333 -66 203 -153 203 -261z" />
    <glyph glyph-name="t" unicode="t" horiz-adv-x="569" 
d="M572 182c-46.667 -131.333 -123.667 -197 -231 -197c-74 0 -125.667 33 -155 99c-14 31.333 -21 80 -21 146v616h-145v33c81.333 32.667 153 99 215 199c14.667 24 36 70.333 64 139h31v-301h214v-70h-214v-594c0 -100.667 30.333 -151 91 -151c52 0 89.333 27 112 81h39
z" />
    <glyph glyph-name="u" unicode="u" 
d="M1021 85l-274.001 -113h-45v194c-60 -65.333 -105.667 -109.333 -137 -132c-56 -41.333 -114 -62 -174 -62c-108 0 -178.667 53 -212 159c-14.667 46.667 -22 112.667 -22 198v409c0 67.333 -18.333 110.333 -55 129c-18.667 8.66699 -52 12.667 -100 12v37h321v-613
c0 -138.667 50.667 -208 152 -208c66 0 141.667 43.333 227 130v519c0 54 -11 90.333 -33 109c-19.333 16 -57.333 24.667 -114 26v37h312v-555c0 -144.667 10.667 -226 32 -244c10.667 -9.33301 23.334 -14 38.001 -14c20.667 0 44 5.66699 70 17z" />
    <glyph glyph-name="v" unicode="v" 
d="M1005 879c-34.667 -2.66699 -58.668 -9.66699 -72.001 -21c-22 -19.333 -43 -52.666 -63 -99.999l-325 -786h-41l-327 773c-24.667 58.667 -55.667 97.667 -93 117c-11.333 6 -33.666 11.667 -66.999 17v37h431v-37h-28c-53.333 0 -80 -23.333 -80 -70
c0 -22 7 -49.667 21 -83l213 -506l214 525c15.333 37.333 23 65.666 23 84.999c0 9.33301 -2.66699 17 -8 23c-12.667 17.333 -45 26 -97 26v37h299v-37z" />
    <glyph glyph-name="w" unicode="w" horiz-adv-x="1479" 
d="M1460 879c-58 -8.66699 -100.668 -48.001 -128.001 -118.001l-306 -789h-41l-229 585l-267 -585h-37l-294 770c-16.667 44 -33.667 74.667 -51 92c-20.667 20.667 -52 35.667 -94 45v37h384v-37c-57.333 -4 -86 -24.667 -86 -62c0 -19.333 5.66699 -44.333 17 -75
l196 -527l197 429l-52 135c-15.333 38.667 -36.333 66.334 -63 83.001c-15.333 9.33301 -42.666 15 -81.999 17v37h436v-37c-81.333 -3.33301 -122 -29 -122 -77c0 -14 2.66699 -27.667 8 -41l208 -526l193 507c13.333 35.333 20 64 20 86c0 32 -32 49 -96 51v37h289v-37z
" />
    <glyph glyph-name="x" unicode="x" 
d="M999 0l-432.001 -0.000976562v36c59.333 0 89 19 89 57c0 14.667 -21.333 53.334 -64 116.001l-134 196l-147 -196c-45.333 -60.667 -68 -96.667 -68 -108c0 -40.667 30 -62.334 90 -65.001v-36h-299v36c24.667 3.33301 45.667 11.666 63 24.999
c25.333 19.333 68 68.666 128 147.999l192 255l-174 252c-40.667 58.667 -70 96.334 -88 113.001c-36 33.333 -78.667 50 -128 50v37h431v-37c-49.333 0 -74 -17 -74 -51c0 -16 11.667 -40.667 35 -74c11.333 -16 22.333 -32.667 33 -50l65 -104l75 104
c48 66.667 72 108.334 72 125.001c0 33.333 -24 50 -72 50v37h310v-37c-33.333 -2 -61.666 -11 -84.999 -27c-31.333 -21.333 -76 -70.666 -134 -147.999l-125 -167l228 -328c44.667 -64 73.667 -102.667 87 -116c35.333 -35.333 77.333 -54.333 126 -57v-36z" />
    <glyph glyph-name="y" unicode="y" 
d="M1012 879c-42 -4.66699 -75.666 -25.001 -100.999 -61.001c-4 -6 -15.333 -31.667 -34 -77l-373 -914c-29.333 -71.333 -69 -131.666 -119 -180.999c-59.333 -58.667 -123 -88 -191 -88c-34.667 0 -65 9.66699 -91 29c-29.333 22 -44 49.667 -44 83
c0 62 34.333 93 103 93c21.333 0 51.333 -7.33301 90 -22c26 -10 42.667 -15 50 -15c50 0 95.667 50.333 137 151l65 159l-329 691c-9.33301 20 -25.333 45.667 -48 77c-17.333 24 -31 39.667 -41 47c-14.667 10.667 -39.334 20 -74.001 28v37h427v-37h-21
c-60 0 -90 -22.667 -90 -68c0 -26.667 11 -62.667 33 -108l223 -462l205 506c11.333 28 17 55 17 81c0 21.333 -10.667 36.333 -32 45c-11.333 4 -31.333 6 -60 6v37h298v-37z" />
    <glyph glyph-name="z" unicode="z" horiz-adv-x="909" 
d="M876 879l-614.001 -812.002h334c56 0 94.667 3 116 9c39.333 10.667 68.333 34 87 70c10.667 20.667 19.667 65.667 27 135h34l-11 -281h-808v36l608 810h-300c-51.333 0 -84.666 -1.66699 -99.999 -5c-34.667 -7.33301 -60 -25.666 -76 -54.999
c-18 -33.333 -28.333 -74.666 -31 -123.999h-40l6 254h768v-37z" />
    <glyph glyph-name="braceleft" unicode="{" horiz-adv-x="983" 
d="M841 -442c-102 14 -189 55.3311 -261 123.998c-76.667 74 -115 161 -115 261c0 36 7.66699 88.833 23 158.5s23 122.167 23 157.5c0 57.333 -24.333 106 -73 146c-43.333 35.333 -95 57 -155 65v41c60.667 8 112.334 29.667 155.001 65c48.667 40 73 88.667 73 146
c0 35.333 -7.66699 87.833 -23 157.5s-23 122.5 -23 158.5c0 100 38.333 186.667 115 260c72 69.333 159 110.666 261 123.999v-35c-150.667 -36 -226 -113 -226 -231c0 -36 7.5 -89.167 22.5 -159.5s22.5 -123.833 22.5 -160.5c0 -80 -30.667 -152 -92 -216
c-52.667 -55.333 -120.334 -97.666 -203.001 -126.999c81.333 -30 149 -73.667 203 -131c61.333 -65.333 92 -137.666 92 -216.999c0 -36.667 -7.5 -90.167 -22.5 -160.5s-22.5 -123.5 -22.5 -159.5c0 -117.333 75.333 -194.666 226 -231.999v-35z" />
    <glyph glyph-name="bar" unicode="|" horiz-adv-x="410" 
d="M244 -442h-83v1864h83v-1864z" />
    <glyph glyph-name="braceright" unicode="}" horiz-adv-x="983" 
d="M735 470c-60 -8 -111.667 -29.667 -155 -65c-48.667 -40 -73 -88.667 -73 -146c0 -35.333 7.66699 -87.833 23 -157.5s23 -122.5 23 -158.5c0 -100 -38.333 -186.667 -115 -260c-72 -69.333 -159 -111 -261 -125v35c150.667 37.333 226 114.666 226 231.999
c0 36 -7.66699 89.167 -23 159.5s-23 123.5 -23 159.5c0 80.667 30.667 153 92 217c52.667 55.333 120.667 97.666 204 126.999c-82 30 -149.667 73.333 -203 130c-62 66 -93 138.667 -93 218c0 36.667 7.66699 90.167 23 160.5s23 123.5 23 159.5
c0 118 -75.333 195 -226 231v35c102.667 -13.333 190 -54.666 262 -123.999c76 -73.333 114 -160.333 114 -261c0 -36 -7.66699 -88.667 -23 -158s-23 -121.666 -23 -156.999c0 -57.333 24.333 -106 73 -146c43.333 -35.333 95 -57 155 -65v-41z" />
    <glyph glyph-name="asciitilde" unicode="~" horiz-adv-x="1108" 
d="M1087 675c-2.66699 -78 -24.333 -142.333 -65 -193c-44.667 -56 -104.667 -84 -180 -84c-46 0 -109.667 15.333 -191 46l-182 75c-104 42.667 -177 64 -219 64c-98.667 0 -160.667 -61 -186 -183h-44c3.33301 76 23.666 139.667 60.999 191
c42.667 58 100.334 87 173.001 87c28 0 58 -4.66699 90 -14c20 -6 108 -40 264 -102c121.333 -48.667 204 -73 248 -73c111.333 0 173.333 62 186 186h45z" />
    <glyph glyph-name="uni00A0" unicode="&#xa0;" horiz-adv-x="512" 
 />
    <glyph glyph-name="exclamdown" unicode="&#xa1;" horiz-adv-x="682" 
d="M453 863c0 -30.667 -10.8311 -56.6689 -32.498 -78.002s-47.834 -32 -78.501 -32s-56.667 10.667 -78 32s-32 47.333 -32 78s10.667 56.834 32 78.501s47.333 32.5 78 32.5c31.333 0 57.666 -10.667 78.999 -32s32 -47.666 32 -78.999zM454.002 -302.002
c0 -36.667 -9.33398 -68.333 -28.001 -95c-21.333 -30 -49.666 -45 -84.999 -45c-75.333 0 -113 50.667 -113 152c0 14 1.66699 36.333 5 67l89 810h38l89 -810c3.33301 -30.667 5 -57 5 -79z" />
    <glyph glyph-name="cent" unicode="&#xa2;" 
d="M900 349c-31.333 -125.333 -85.6641 -222.668 -162.997 -292.001c-60 -54 -133.667 -81 -221 -81c-54 0 -108 11.667 -162 35l-142 -390h-70l155 427c-54 50.667 -93 102 -117 154c-34 73.333 -51 156.666 -51 249.999c0 168.667 52.333 298.667 157 390
c80.667 70 171.667 105 273 105c13.333 0 33.666 -1.33301 60.999 -4l140 383h72l-145 -402c67.333 -30 113.333 -59 138 -87c32 -36 48 -74.333 48 -115c0 -56.667 -31.333 -85 -94 -85c-36.667 0 -65.334 12.667 -86.001 38c-12 14.667 -20.667 42 -26 82
c-2.66699 20.667 -8.33398 42.334 -17.001 65.001l-228 -631c36.667 -25.333 68 -42.333 94 -51c19.333 -6.66699 42.333 -10 69 -10c86.667 0 154 28.667 202 86c19.333 22.667 47 71.334 83 146.001zM593.002 864.998c-18.667 8 -38.667 12 -60 12
c-68 0 -122 -24.667 -162 -74c-54.667 -66.667 -82 -156 -82 -268c0 -91.333 27 -186.333 81 -285z" />
    <glyph glyph-name="sterling" unicode="&#xa3;" 
d="M977 303c-11.333 -88 -39.332 -161.666 -83.999 -220.999c-53.333 -70.667 -121 -106 -203 -106c-56.667 0 -115 17.333 -175 52c-22 12.667 -72.333 48.667 -151 108c-53.333 -106.667 -115.333 -160 -186 -160c-36.667 0 -65.334 12.333 -86.001 37
s-31 55.334 -31 92.001c0 46 15.667 83.5 47 112.5s70.333 43.5 117 43.5c22 0 50.333 -2.66699 85 -8c2 26 3 51.667 3 77c0 58.667 -7 168.334 -21 329.001h-194v95h194c-8.66699 99.333 -13 165.666 -13 198.999c0 175.333 61.667 301.333 185 378
c57.333 35.333 119 53 185 53c64.667 0 121.334 -17.333 170.001 -52c55.333 -38.667 83 -89.334 83 -152.001c0 -20.667 -7.83301 -39.5 -23.5 -56.5s-33.834 -25.5 -54.501 -25.5c-26 0 -47 12.667 -63 38c-6 9.33301 -11 36 -15 80c-4 39.333 -15.333 67.666 -34 84.999
c-20.667 18.667 -49.667 28 -87 28c-121.333 0 -182 -93.333 -182 -280c0 -45.333 4 -107.666 12 -186.999c1.33301 -12.667 4.66602 -48.667 9.99902 -108h258v-95h-258c0.666992 -30.667 1 -53.334 1 -68.001c0 -116 -20.667 -235.333 -62 -358
c128.667 -41.333 203.334 -64.333 224.001 -69c35.333 -8 69.333 -12 102 -12c110 0 180.333 53.333 211 160zM298.001 172.001c-29.333 18.667 -57.667 28 -85 28c-63.333 0 -95 -29.333 -95 -88c0 -52 21.667 -78 65 -78c54 0 92.333 46 115 138z" />
    <glyph glyph-name="currency" unicode="&#xa4;" horiz-adv-x="1429" 
d="M1400 686c0 -198 -61.001 -365.668 -183.001 -503.001c-127.333 -142.667 -288.666 -214 -483.999 -214c-199.333 0 -360.666 70 -483.999 210c-118 134.667 -177 302.667 -177 504c0 215.333 73.333 391 220 527c127.333 118 279.666 177 456.999 177
c189.333 0 346.333 -70.333 471 -211c120 -135.333 180 -298.666 180 -489.999zM729.999 1314c-146 0 -256.334 -63.333 -331.001 -190c-60 -102 -92.333 -232.667 -97 -392h867c-17.333 388 -163.666 582 -438.999 582zM1171 656.999h-870c4 -206.667 51.333 -367 142 -481
c72 -90.667 168 -136 288 -136c157.333 0 274 67 350 201c60 106 90 244.667 90 416z" />
    <glyph glyph-name="yen" unicode="&#xa5;" 
d="M1023 352l-426 0.000976562v-108c0 -76 3.66699 -123.667 11 -143c5.33301 -14.667 16.666 -27.334 33.999 -38.001c24 -14.667 52.333 -22 85 -22h41v-41h-515v41h32c78.667 0 124.334 27.667 137.001 83c2.66699 12 4 52 4 120v108h-424v73h424v144l-15 36h-409v73h377
l-213 496c-20.667 48.667 -40.334 82.667 -59.001 102c-26 27.333 -61 41.333 -105 42v38h442v-38c-80.667 -5.33301 -121 -26 -121 -62c0 -10 6 -29.667 18 -59l214 -519l213 504c14 33.333 21 58.333 21 75c0 14 -7 27.667 -21 41c-9.33301 9.33301 -30.666 15 -63.999 17
c-4.66699 0.666992 -13.667 1.66699 -27 3v38h346v-38c-39.333 0 -68.333 -7.66699 -87 -23c-29.333 -24 -58 -68 -86 -132l-214 -485h387v-73h-419l-7 -16v-164h426v-73z" />
    <glyph glyph-name="brokenbar" unicode="&#xa6;" horiz-adv-x="1466" 
d="M1449 1319h-25.999c-54.667 0 -110.334 -29.667 -167.001 -89c-24 -25.333 -57.667 -72 -101 -140l-327 -515v-70h346v-83h-346v-187c0 -83.333 9.33301 -135.333 28 -156c25.333 -28 65.333 -42 120 -42h44v-37h-576v37h48c57.333 0 98 17.333 122 52
c14.667 21.333 22 70 22 146v187h-346v83h346v51l-372 568c-41.333 63.333 -67 100.333 -77 111c-23.333 25.333 -60 50 -110 74c-14 6.66699 -33.333 10 -58 10v37h580v-37h-30c-32 0 -59.667 -6.66699 -83 -20c-28.667 -16 -43 -38.667 -43 -68
c0 -24 20.333 -67.333 61 -130l283 -437l266 418c40 62.667 60 109.334 60 140.001c0 39.333 -18.667 67.666 -56 84.999c-17.333 8 -44.333 12 -81 12v37h473v-37z" />
    <glyph glyph-name="section" unicode="&#xa7;" 
d="M868 482c0 -139.333 -73.668 -253.331 -221.001 -341.998c82 -90 123 -174.667 123 -254c0 -81.333 -27 -149.333 -81 -204s-121.667 -82 -203 -82c-66 0 -123.667 20.667 -173 62c-52 44 -78 98.333 -78 163c0 22.667 7.33301 43 22 61s33.334 27 56.001 27
c50 0 75 -29 75 -87c0 -13.333 -2.66699 -32 -8 -56s-8 -41.667 -8 -53c0 -19.333 8.33301 -35.333 25 -48c26 -20 57.667 -30 95 -30c43.333 0 83.5 16.833 120.5 50.5s55.5 71.834 55.5 114.501c0 41.333 -10.333 78.333 -31 111c-32 50.667 -90 107.334 -174 170.001
c-126 94.667 -211.333 177 -256 247c-34 54 -51 111.333 -51 172c0 137.333 73.667 250.333 221 339c-82.667 91.333 -124 177.666 -124 258.999c0 79.333 27.5 146.166 82.5 200.499s122.167 81.5 201.5 81.5c66 0 123.667 -19.667 173 -59
c53.333 -42.667 80 -96.334 80 -161.001c0 -60 -26.333 -90 -79 -90c-22 0 -40.5 7.33301 -55.5 22s-22.5 33 -22.5 55c0 10 2.66699 27.667 8 53c3.33301 15.333 5 29.666 5 42.999c0 63.333 -36.333 95 -109 95c-48.667 0 -89.834 -16.833 -123.501 -50.5
s-50.5 -75.167 -50.5 -124.5c0 -42.667 9 -78 27 -106c30 -47.333 80.333 -96.333 151 -147c134.667 -97.333 226.334 -184 275.001 -260c34.667 -54 52 -111.333 52 -172zM766.999 389.002c0 92 -75.002 196.332 -225.002 312.999
c-57.333 44.667 -101.666 81.334 -132.999 110.001c-100.667 -60.667 -151 -134.667 -151 -222c0 -47.333 12.333 -90.333 37 -129c34 -53.333 99.667 -117 197 -191c46.667 -35.333 87.334 -69 122.001 -101c102 62 153 135.333 153 220z" />
    <glyph glyph-name="dieresis" unicode="&#xa8;" horiz-adv-x="682" 
d="M626 1228c0 -30 -10.5 -55.5 -31.5 -76.5s-46.5 -31.5 -76.5 -31.5s-55.667 10.5 -77 31.5s-32 46.5 -32 76.5s10.667 55.667 32 77s47 32 77 32s55.5 -10.667 76.5 -32s31.5 -47 31.5 -77zM274 1228c0 -30 -10.5 -55.5 -31.5 -76.5s-46.5 -31.5 -76.5 -31.5
s-55.667 10.5 -77 31.5s-32 46.5 -32 76.5s10.5 55.667 31.5 77s46.5 32 76.5 32c30.667 0 56.5 -10.5 77.5 -31.5s31.5 -46.833 31.5 -77.5z" />
    <glyph glyph-name="copyright" unicode="&#xa9;" horiz-adv-x="1556" 
d="M1488 678c0 -126.667 -31.998 -245.667 -95.998 -357s-151 -197.333 -261 -258c-112.667 -62.667 -230.334 -94 -353.001 -94c-126.667 0 -245.5 31.833 -356.5 95.5s-197.167 150.5 -258.5 260.5c-62.667 112.667 -94 230.334 -94 353.001
c0 127.333 32.5 247.166 97.5 359.499s152.833 198.5 263.5 258.5c113.333 60.667 229.333 91 348 91c126 0 244.667 -31.667 356 -95s197.666 -149.333 258.999 -258c63.333 -114 95 -232.667 95 -356zM1426 678c0 116 -29.667 225.332 -89 327.999
s-139.333 181.334 -240 236.001c-103.333 56 -209.666 84 -318.999 84c-114.667 0 -222.834 -29.167 -324.501 -87.5s-180.167 -136.833 -235.5 -235.5c-58 -104 -87 -212.333 -87 -325c0 -116 29.167 -224.667 87.5 -326s137.5 -180 237.5 -236
c102.667 -57.333 210 -86 322 -86c116 0 224.833 29.333 326.5 88s180.5 138 236.5 238c56.667 102.667 85 210 85 322zM1166 430.999c-92.667 -135.333 -220.334 -203.002 -383.001 -203.002c-129.333 0 -238.333 41.333 -327 124
c-90.667 84.667 -136 191.334 -136 320.001c0 136 49.333 248 148 336c95.333 84.667 212 127 350 127c46.667 0 108.334 -12.667 185.001 -38c16 -5.33301 28.333 -8 37 -8c20.667 0 37 15 49 45h40l20 -280h-39c-47.333 157.333 -148.333 236 -303 236
c-108 0 -191.667 -41.667 -251 -125c-46.667 -66 -70 -154 -70 -264c0 -121.333 24.333 -217.666 73 -288.999c56.667 -82.667 142.667 -124 258 -124c130 0 234 54 312 162z" />
    <glyph glyph-name="ordfeminine" unicode="&#xaa;" horiz-adv-x="565" 
d="M562 857c-68 -49.333 -117.664 -73.999 -148.997 -73.999c-38 0 -62.333 31.667 -73 95c-84.667 -60.667 -156.334 -91 -215.001 -91c-34 0 -64.333 12.167 -91 36.5s-40 53.5 -40 87.5c0 61.333 43 118 129 170c33.333 20 105.666 53 216.999 99
c0 55.333 -4.66699 94.666 -14 117.999c-15.333 38.667 -46 58 -92 58c-62.667 0 -94 -29.167 -94 -87.5s-19.333 -87.5 -58 -87.5c-37.333 0 -56 20 -56 60c0 51.333 28 89.666 84 114.999c42.667 18.667 92.667 28 150 28c110.667 0 179 -31.667 205 -95
c8.66699 -22 13 -58.333 13 -109v-218c0 -35.333 0.666992 -55.666 2 -60.999c4 -17.333 12 -26 24 -26c9.33301 0 28.666 10 57.999 30v-48zM340.003 916.001l0.000976562 226c-138 -46 -207 -107.333 -207 -184c0 -24 8.83301 -44.333 26.5 -61s38.5 -25 62.5 -25
c29.333 0 68.666 14.667 117.999 44z" />
    <glyph glyph-name="guillemotleft" unicode="&#xab;" 
d="M960 -8h-58l-394 472l394 470h58l-243 -470zM508 -8h-57l-387 472l387 470h57l-244 -470z" />
    <glyph glyph-name="logicalnot" unicode="&#xac;" horiz-adv-x="1155" 
d="M1116 472h-79v325h-1001v81h1080v-406z" />
    <glyph glyph-name="minus" unicode="&#xad;" horiz-adv-x="1155" 
d="M1115 640h-1078v82h1078v-82z" />
    <glyph glyph-name="minus" unicode="&#x2212;" horiz-adv-x="1155" 
d="M1115 640h-1078v82h1078v-82z" />
    <glyph glyph-name="registered" unicode="&#xae;" horiz-adv-x="1556" 
d="M1488 678c0 -126.667 -31.998 -245.667 -95.998 -357s-151 -197.333 -261 -258c-112.667 -62.667 -230.334 -94 -353.001 -94c-126.667 0 -245.5 31.833 -356.5 95.5s-197.167 150.5 -258.5 260.5c-62.667 112.667 -94 230.334 -94 353.001
c0 127.333 32.5 247.166 97.5 359.499s152.833 198.5 263.5 258.5c113.333 60.667 229.333 91 348 91c126 0 244.667 -31.667 356 -95s197.666 -149.333 258.999 -258c63.333 -114 95 -232.667 95 -356zM1426 678c0 116 -29.667 225.332 -89 327.999
s-139.333 181.334 -240 236.001c-103.333 56 -209.666 84 -318.999 84c-114.667 0 -222.834 -29.167 -324.501 -87.5s-180.167 -136.833 -235.5 -235.5c-58 -104 -87 -212.333 -87 -325c0 -116 29.167 -224.667 87.5 -326s137.5 -180 237.5 -236
c102.667 -57.333 210 -86 322 -86c116 0 224.833 29.333 326.5 88s180.5 138 236.5 238c56.667 102.667 85 210 85 322zM1177 248.999l-183.999 -0.000976562l-294 405h-76v-309c7.33301 -42 46.666 -63 117.999 -63v-33h-367v33c52 0 84.333 15 97 45
c4.66699 11.333 7 42.333 7 93v523c0 50.667 -1 79.667 -3 87c-8.66699 32 -38.334 48 -89.001 48v36h386c80 0 147 -17 201 -51c64 -40 96 -97.667 96 -173c0 -109.333 -74 -183.333 -222 -222l209 -298c24.667 -35.333 47.334 -59.666 68.001 -72.999
c12 -8 29.667 -13 53 -15v-33zM908.003 878.998c0 56 -19.667 102.334 -59 139.001c-38 34.667 -85.333 52 -142 52c-25.333 0 -53.333 -5.33301 -84 -16v-357c130 0 215.333 29.333 256 88c19.333 27.333 29 58.666 29 93.999z" />
    <glyph glyph-name="overscore" unicode="&#xaf;" 
d="M1042 1462h-1059v84h1059v-84z" />
    <glyph glyph-name="degree" unicode="&#xb0;" horiz-adv-x="819" 
d="M713 1078c0 -85.333 -30 -157.833 -90 -217.5s-132.667 -89.5 -218 -89.5s-157.833 29.833 -217.5 89.5s-89.5 132.167 -89.5 217.5c0 86 29.667 158.833 89 218.5s132 89.5 218 89.5s158.833 -29.833 218.5 -89.5s89.5 -132.5 89.5 -218.5zM628 1079
c0 62.667 -21.5 115.5 -64.5 158.5s-95.833 64.5 -158.5 64.5s-115.5 -21.5 -158.5 -64.5s-64.5 -95.833 -64.5 -158.5c0 -62 21.667 -114.667 65 -158s96 -65 158 -65s114.667 21.667 158 65s65 96 65 158z" />
    <glyph glyph-name="plusminus" unicode="&#xb1;" 
d="M1005 879c-34.667 -2.66699 -58.6689 -9.66699 -72.002 -21c-22.667 -19.333 -43.667 -52.666 -63 -99.999l-263 -642v-116h178v-72h-178v-163c0 -23.333 4 -61 12 -113c16.667 -35.333 62.334 -53 137.001 -53v-37h-462v37h19c62.667 0 101.667 18.333 117 55
c1.33301 11.333 5.33301 48.333 12 111v163h-178v72h178v116l-265 629c-24.667 58.667 -55.667 97.667 -93 117c-11.333 6 -33.666 11.667 -66.999 17v37h431v-37h-28c-53.333 0 -80 -23.333 -80 -70c0 -22 7 -49.667 21 -83l213 -506l214 525
c15.333 37.333 23 65.666 23 84.999c0 9.33301 -2.66699 17 -8 23c-12.667 17.333 -45 26 -97 26v37h299v-37z" />
    <glyph glyph-name="twosuperior" unicode="&#xb2;" horiz-adv-x="614" 
d="M575 816l-60.999 -151.999h-494v29c164 128 273.333 232.333 328 313c33.333 49.333 50 97 50 143c0 41.333 -14 75.666 -42 102.999s-62.667 41 -104 41c-80.667 0 -135.667 -39.333 -165 -118h-45c20 139.333 100.667 209 242 209c59.333 0 112.666 -16 159.999 -48
c52.667 -36 79 -82.667 79 -140c0 -44 -16 -91 -48 -141c-50 -78 -148.333 -176.333 -295 -295h186c46 0 76.667 1.66699 92 5c31.333 7.33301 55.333 24.333 72 51h45z" />
    <glyph glyph-name="threesuperior" unicode="&#xb3;" horiz-adv-x="614" 
d="M523 900c0 -83.333 -36 -147.668 -108 -193.001c-60.667 -38.667 -135.334 -58 -224.001 -58c-98 0 -147 21 -147 63c0 30 19.667 45 59 45c17.333 0 44.833 -8 82.5 -24s67.5 -24 89.5 -24c36.667 0 68.5 12.833 95.5 38.5s40.5 56.834 40.5 93.501
c0 71.333 -31.667 119 -95 143c-40 15.333 -75.667 23 -107 23h-30v28c46.667 0 88 14 124 42c38.667 30 58 67.667 58 113c0 34.667 -11.5 61.834 -34.5 81.501s-51.833 29.5 -86.5 29.5c-56.667 0 -105.667 -29.333 -147 -88l-38 16c50 103.333 126.667 155 230 155
c48.667 0 92.334 -12 131.001 -36c44.667 -27.333 67 -64.333 67 -111c0 -45.333 -35 -97 -105 -155c96.667 -34.667 145 -95.334 145 -182.001z" />
    <glyph glyph-name="acute" unicode="&#xb4;" horiz-adv-x="682" 
d="M565 1390l-295 -345h-34l105 345h224z" />
    <glyph glyph-name="mu1" unicode="&#xb5;" 
d="M953 475c0 -84.667 -19.334 -167.334 -58.001 -248.001c-41.333 -85.333 -96.166 -149.166 -164.499 -191.499s-144.833 -63.5 -229.5 -63.5c-138 0 -247.667 55 -329 165c-68.667 92.667 -103 196.667 -103 312c0 84 20 166 60 246c42 84.667 97.333 147.167 166 187.5
s141 60.5 217 60.5c138.667 0 250 -52.667 334 -158c71.333 -90 107 -193.333 107 -310zM759.999 519c-12 92.667 -38.334 171.334 -79.001 236.001c-51.333 82 -118 123 -200 123c-89.333 0 -153.666 -47.333 -192.999 -142c-22 -52.667 -33 -120.334 -33 -203.001v-14h505
zM766.998 398c0 19.333 -0.668945 38.333 -2.00195 57h-507c8.66699 -100 34.334 -189 77.001 -267c52.667 -96.667 122.334 -145 209.001 -145c148.667 0 223 118.333 223 355z" />
    <glyph glyph-name="paragraph" unicode="&#xb6;" horiz-adv-x="928" 
d="M931 1301l-133.001 -0.000976562v-1743h-72v1743h-187v-1743h-73v1043c-104.667 4.66699 -185.667 16.334 -243 35.001c-85.333 28 -147.666 77 -186.999 147c-33.333 58.667 -50 124.667 -50 198c0 72.667 14.333 132.667 43 180c79.333 130 215 195 407 195h495v-55z
" />
    <glyph glyph-name="middot" unicode="&#xb7;" horiz-adv-x="682" 
d="M705 703c0 -28.667 -10.3291 -53.334 -30.9961 -74.001s-45.334 -31 -74.001 -31s-53.334 10.333 -74.001 31s-31 45.334 -31 74.001c0 29.333 10.167 54.166 30.5 74.499s45.166 30.5 74.499 30.5s54.166 -10.167 74.499 -30.5s30.5 -45.166 30.5 -74.499z" />
    <glyph glyph-name="cedilla" unicode="&#xb8;" horiz-adv-x="682" 
d="M496 -209c0 -54.667 -22.666 -99.333 -67.999 -134c-42 -31.333 -91 -47 -147 -47c-24.667 0 -56 2.33301 -94 7v43c18.667 -2.66699 34.667 -4 48 -4c31.333 0 59.333 10.5 84 31.5s37 47.167 37 78.5c0 21.333 -8 39 -24 53s-34.667 21 -56 21
c-6.66699 0 -15.334 -0.666992 -26.001 -2l111 178h60l-50 -79c83.333 -21.333 125 -70 125 -146z" />
    <glyph glyph-name="onesuperior" unicode="&#xb9;" horiz-adv-x="614" 
d="M477 664l-325.001 0.000976562v32c58 0 90.333 7.66699 97 23c3.33301 7.33301 5 31.666 5 72.999v374c0 68.667 -5 107.667 -15 117c-5.33301 4 -12 6 -20 6c-13.333 0 -35.666 -6.66699 -66.999 -20l-16 28l205 87h35v-592c0 -40 2 -64.667 6 -74
c8 -14.667 39.667 -22 95 -22v-32z" />
    <glyph glyph-name="ordmasculine" unicode="&#xba;" horiz-adv-x="635" 
d="M611 1091c0 -82.667 -29.333 -153.999 -88 -213.999s-129.334 -90 -212.001 -90c-81.333 0 -148.666 27.667 -201.999 83s-80 123.666 -80 204.999c0 90 26.833 164 80.5 222s125.167 87 214.5 87c82.667 0 151.167 -28 205.5 -84s81.5 -125.667 81.5 -209zM473 1023
c0 104.667 -23.668 190 -71.001 256c-29.333 41.333 -64.666 62 -105.999 62c-84 0 -126 -62.667 -126 -188c0 -105.333 23 -191.333 69 -258c26 -38 60 -57 102 -57c88 0 132 61.667 132 185z" />
    <glyph glyph-name="guillemotright" unicode="&#xbb;" 
d="M960 462l-387 -470h-57l244 470l-244 472h57zM516 462l-394 -470h-58l243 470l-243 472h58z" />
    <glyph glyph-name="onequarter" unicode="&#xbc;" horiz-adv-x="1536" 
d="M1501 143h-108v-183h-117v183h-343v73l376 465h84v-457h108v-81zM1292 1384l-934 -1438h-90l935 1438h89zM475 664l-325.001 0.000976562v32c58 0 90.333 7.66699 97 23c3.33301 7.33301 5 31.666 5 72.999v374c0 68.667 -5 107.667 -15 117c-5.33301 4 -12 6 -20 6
c-13.333 0 -35.666 -6.66699 -66.999 -20l-16 28l205 87h35v-592c0 -40 2 -64.667 6 -74c8 -14.667 39.667 -22 95 -22v-32zM1276 224.001v316l-260 -316h260z" />
    <glyph glyph-name="onehalf" unicode="&#xbd;" horiz-adv-x="1536" 
d="M1494 113l-61.002 -152.998h-494v30c164 128 273.333 232.333 328 313c33.333 49.333 50 97 50 143c0 41.333 -14 75.666 -42 102.999s-62.667 41 -104 41c-80.667 0 -135.667 -39.333 -165 -118h-45c20 139.333 100.667 209 242 209c59.333 0 112.333 -16 159 -48
c53.333 -36.667 80 -83.334 80 -140.001c0 -44.667 -16 -92 -48 -142c-49.333 -76.667 -147.666 -174.667 -294.999 -294h187c46.667 0 77.334 1.66699 92.001 5c31.333 7.33301 55 24.333 71 51h45zM1268 1384l-935 -1438h-89l935 1438h89zM474.998 664.002
l-325.001 0.000976562v32c58 0 90.333 7.66699 97 23c3.33301 7.33301 5 31.666 5 72.999v374c0 68.667 -5 107.667 -15 117c-5.33301 4 -12 6 -20 6c-13.333 0 -35.666 -6.66699 -66.999 -20l-16 28l205 87h35v-592c0 -40 2 -64.667 6 -74c8 -14.667 39.667 -22 95 -22v-32
z" />
    <glyph glyph-name="threequarters" unicode="&#xbe;" horiz-adv-x="1536" 
d="M1501 143h-108v-183h-116v183h-344v73l376 465h84v-457h108v-81zM1277 1384l-931 -1438h-90l935 1438h86zM521 900c0 -83.333 -36 -147.667 -108 -193c-60.667 -38.667 -135.334 -58 -224.001 -58c-98 0 -147 21 -147 63c0 30 19.667 45 59 45
c17.333 0 44.833 -8 82.5 -24s67.5 -24 89.5 -24c36.667 0 68.5 12.833 95.5 38.5s40.5 56.834 40.5 93.501c0 59.333 -25 103.666 -75 132.999c-40.667 23.333 -93 34.333 -157 33v28c46.667 0 88 14 124 42c38.667 30 58 67.667 58 113
c0 34.667 -11.5 61.834 -34.5 81.501s-51.833 29.5 -86.5 29.5c-56.667 0 -105.667 -29.333 -147 -88l-38 16c50 103.333 126.667 155 230 155c48.667 0 92.334 -12 131.001 -36c44.667 -27.333 67 -64.333 67 -111c0 -45.333 -35 -97 -105 -155
c96.667 -34.667 145 -95.334 145 -182.001zM1277 223.999v316l-260 -316h260z" />
    <glyph glyph-name="questiondown" unicode="&#xbf;" horiz-adv-x="909" 
d="M563 864c0 -30.667 -10.833 -56.834 -32.5 -78.501s-47.834 -32.5 -78.501 -32.5s-56.834 10.833 -78.501 32.5s-32.5 47.834 -32.5 78.501s10.833 56.834 32.5 78.501s47.834 32.5 78.501 32.5s56.834 -10.833 78.501 -32.5s32.5 -47.834 32.5 -78.501zM824 -152
c0 -91.333 -39.335 -164.001 -118.002 -218.001c-68.667 -48 -150.667 -72 -246 -72c-100.667 0 -186 27 -256 81c-76.667 59.333 -115 138 -115 236c0 56.667 9.66699 107.334 29 152.001c24 56 72.833 127.5 146.5 214.5s120.5 153.167 140.5 198.5s32 107.333 36 186h39
c-3.33301 -89.333 -15 -165.333 -35 -228c-13.333 -42.667 -43.666 -114.334 -90.999 -215.001c-55.333 -116 -83 -212.333 -83 -289c0 -79.333 19 -144 57 -194c42 -54.667 101.667 -82 179 -82c45.333 0 86 10.333 122 31c43.333 24.667 65 58 65 100
c0 19.333 -10.333 47.5 -31 84.5s-31 65.5 -31 85.5c0 22.667 7.83301 41.834 23.5 57.501s34.834 23.5 57.501 23.5c34.667 0 62.667 -17.333 84 -52c18 -30 27 -63.333 27 -100z" />
    <glyph glyph-name="Agrave" unicode="&#xc0;" horiz-adv-x="1479" 
d="M842 1452h-35l-294 345h223zM1456 0l-535.001 -0.000976562v37c92 4.66699 138 32.334 138 83.001c0 29.333 -13.333 75.666 -40 138.999l-82 195h-525l-92 -214c-22.667 -52.667 -34 -92 -34 -118c0 -49.333 52.333 -77.666 157 -84.999v-37h-427v37
c56.667 10 93.334 23 110.001 39c33.333 31.333 71 96.333 113 195l477 1116h35l472 -1128c32 -76 59.333 -127 82 -153c36 -42 86.333 -65 151 -69v-37zM908.999 527.999l-230 548l-236 -548h466z" />
    <glyph glyph-name="Aacute" unicode="&#xc1;" horiz-adv-x="1479" 
d="M959 1797l-295 -345h-34l105 345h224zM1456 0l-535.001 -0.000976562v37c92 4.66699 138 32.334 138 83.001c0 29.333 -13.333 75.666 -40 138.999l-82 195h-525l-92 -214c-22.667 -52.667 -34 -92 -34 -118c0 -49.333 52.333 -77.666 157 -84.999v-37h-427v37
c56.667 10 93.334 23 110.001 39c33.333 31.333 71 96.333 113 195l477 1116h35l472 -1128c32 -76 59.333 -127 82 -153c36 -42 86.333 -65 151 -69v-37zM908.999 527.999l-230 548l-236 -548h466z" />
    <glyph glyph-name="Acircumflex" unicode="&#xc2;" horiz-adv-x="1479" 
d="M1017 1462h-31l-273 213l-229 -213h-30l189 331h184zM1456 0l-535.001 -0.000976562v37c92 4.66699 138 32.334 138 83.001c0 29.333 -13.333 75.666 -40 138.999l-82 195h-525l-92 -214c-22.667 -52.667 -34 -92 -34 -118c0 -49.333 52.333 -77.666 157 -84.999v-37
h-427v37c56.667 10 93.334 23 110.001 39c33.333 31.333 71 96.333 113 195l477 1116h35l472 -1128c32 -76 59.333 -127 82 -153c36 -42 86.333 -65 151 -69v-37zM908.999 527.999l-230 548l-236 -548h466z" />
    <glyph glyph-name="Atilde" unicode="&#xc3;" horiz-adv-x="1479" 
d="M1056 1724c1.33301 -112 -30.6689 -189.333 -96.002 -232c-31.333 -20.667 -62.666 -31 -93.999 -31c-52.667 0 -118 26.667 -196 80c-59.333 40.667 -102 61 -128 61c-27.333 0 -49 -12 -65 -36c-7.33301 -11.333 -16.666 -45 -27.999 -101h-32
c5.33301 172.667 68 259 188 259c27.333 0 52.333 -4.33301 75 -13c16 -6 58.667 -30.333 128 -73c57.333 -35.333 98 -53 122 -53c48 0 79.667 46.333 95 139h31zM1456 0l-535.001 -0.000976562v37c92 4.66699 138 32.334 138 83.001c0 29.333 -13.333 75.666 -40 138.999
l-82 195h-525l-92 -214c-22.667 -52.667 -34 -92 -34 -118c0 -49.333 52.333 -77.666 157 -84.999v-37h-427v37c56.667 10 93.334 23 110.001 39c33.333 31.333 71 96.333 113 195l477 1116h35l472 -1128c32 -76 59.333 -127 82 -153c36 -42 86.333 -65 151 -69v-37z
M908.997 527.999l-230 548l-236 -548h466z" />
    <glyph glyph-name="Adieresis" unicode="&#xc4;" horiz-adv-x="1479" 
d="M1019 1599c0 -30 -10.5 -55.5 -31.5 -76.5s-46.5 -31.5 -76.5 -31.5s-55.667 10.5 -77 31.5s-32 46.5 -32 76.5s10.667 55.667 32 77s47 32 77 32s55.5 -10.667 76.5 -32s31.5 -47 31.5 -77zM667 1599c0 -30 -10.5 -55.5 -31.5 -76.5s-46.5 -31.5 -76.5 -31.5
s-55.667 10.5 -77 31.5s-32 46.5 -32 76.5s10.5 55.667 31.5 77s46.5 32 76.5 32c30.667 0 56.5 -10.5 77.5 -31.5s31.5 -46.833 31.5 -77.5zM1456 0l-535.001 -0.000976562v37c92 4.66699 138 32.334 138 83.001c0 29.333 -13.333 75.666 -40 138.999l-82 195h-525
l-92 -214c-22.667 -52.667 -34 -92 -34 -118c0 -49.333 52.333 -77.666 157 -84.999v-37h-427v37c56.667 10 93.334 23 110.001 39c33.333 31.333 71 96.333 113 195l477 1116h35l472 -1128c32 -76 59.333 -127 82 -153c36 -42 86.333 -65 151 -69v-37zM908.999 527.999
l-230 548l-236 -548h466z" />
    <glyph glyph-name="Aring" unicode="&#xc5;" horiz-adv-x="1479" 
d="M923 1510c0 -54 -18.499 -99.499 -55.499 -136.499s-82.5 -55.5 -136.5 -55.5c-53.333 0 -98.5 18.667 -135.5 56s-55.5 82.666 -55.5 135.999s18.5 98.5 55.5 135.5s82.167 55.5 135.5 55.5s98.666 -18.5 135.999 -55.5s56 -82.167 56 -135.5zM1456 0.000976562
l-535.001 -0.000976562v37c92 4.66699 138 32.334 138 83.001c0 29.333 -13.333 75.666 -40 138.999l-82 195h-525l-92 -214c-22.667 -52.667 -34 -92 -34 -118c0 -49.333 52.333 -77.666 157 -84.999v-37h-427v37c56.667 10 93.334 23 110.001 39
c33.333 31.333 71 96.333 113 195l477 1116h35l472 -1128c32 -76 59.333 -127 82 -153c36 -42 86.333 -65 151 -69v-37zM853 1510c0 34 -11.833 62.833 -35.5 86.5s-52.5 35.5 -86.5 35.5s-62.833 -11.833 -86.5 -35.5s-35.5 -52.5 -35.5 -86.5s11.833 -62.833 35.5 -86.5
s52.5 -35.5 86.5 -35.5s62.833 11.833 86.5 35.5s35.5 52.5 35.5 86.5zM909 528l-230 548l-236 -548h466z" />
    <glyph glyph-name="AE" unicode="&#xc6;" horiz-adv-x="1821" 
d="M1764 341l-107.999 -341.001h-1018v37h51c56 0 96.667 16.333 122 49c16 20.667 24 71.667 24 153v286h-396l-124 -233c-46.667 -88 -70 -145.667 -70 -173c0 -47.333 52.333 -74.666 157 -81.999v-37h-426v37c52.667 1.33301 100.667 29.333 144 84
c25.333 32 56.666 83 93.999 153l412 771c51.333 96 77 160.333 77 193c0 48 -57.667 75 -173 81v37h1111l15 -298h-34c-14.667 118 -57.334 189.333 -128.001 214c-19.333 6.66699 -64.666 10 -135.999 10h-331v-536h257c75.333 0 129 14.167 161 42.5
s50.667 79.833 56 154.5h36v-471h-36c-6.66699 55.333 -14 93 -22 113c-14.667 34 -41 59.667 -79 77c-16 7.33301 -54.667 11 -116 11h-257v-449v-76c3.33301 -30 15.333 -50.667 36 -62c14.667 -8 41 -12 79 -12h182c66 0 116.667 4.66699 152 14
c46.667 12 90 36.667 130 74c48.667 46 88.667 105.667 120 179h38zM835.001 597.999v684l-357 -684h357z" />
    <glyph glyph-name="Ccedilla" unicode="&#xc7;" horiz-adv-x="1366" 
d="M1295 318c-131.333 -232.667 -318.335 -349.001 -561.002 -349.001c-224.667 0 -398.667 83.333 -522 250c-92 124 -138 270 -138 438c0 132 28.667 253.667 86 365c60.667 116.667 146 207.334 256 272.001c106 62 222 93 348 93c98.667 0 195.334 -24 290.001 -72
c28.667 -14.667 48.667 -22 60 -22c41.333 0 69.333 31.333 84 94h35l31 -461h-31c-78 259.333 -229 389 -453 389c-197.333 0 -335.666 -95.667 -414.999 -287c-42 -100 -63 -224.333 -63 -373c0 -254.667 79 -430 237 -526c78.667 -48 168.667 -72 270 -72
c102 0 190 25.667 264 77c58 40 121.667 108 191 204zM832.998 -209.001c0 -54.667 -22.666 -99.333 -67.999 -134c-42 -31.333 -91 -47 -147 -47c-24.667 0 -56 2.33301 -94 7v43c18.667 -2.66699 34.667 -4 48 -4c31.333 0 59.333 10.5 84 31.5s37 47.167 37 78.5
c0 21.333 -8 39 -24 53s-34.667 21 -56 21c-6.66699 0 -15.334 -0.666992 -26.001 -2l111 178h60l-50 -79c83.333 -21.333 125 -70 125 -146z" />
    <glyph glyph-name="Egrave" unicode="&#xc8;" horiz-adv-x="1251" 
d="M735 1452h-35l-294 345h223zM1204 340l-117.001 -339.999h-1045v37h48c31.333 0 61.666 7.66699 90.999 23c27.333 14 44.333 40.333 51 79c2.66699 14 4 47.333 4 100v881c0 86.667 -8.66699 139.667 -26 159c-23.333 26.667 -63.333 40 -120 40h-48v37h1045l15 -297
h-39c-11.333 58 -22.666 99 -33.999 123c-19.333 40.667 -48.666 69 -87.999 85c-24.667 10 -71.667 15 -141 15h-372v-536h298c77.333 0 129 11.667 155 35c34.667 30.667 54 84.667 58 162h37v-472h-37c-9.33301 66.667 -18.666 109 -27.999 127
c-25.333 50 -87 75 -185 75h-298v-447c0 -46.667 0.333008 -72.334 1 -77.001c4 -31.333 15.667 -52.333 35 -63c13.333 -8 38.666 -12 75.999 -12h230c66 0 114 3.33301 144 10c46.667 10.667 87.667 33.667 123 69c40.667 40.667 83 103 127 187h40z" />
    <glyph glyph-name="Eacute" unicode="&#xc9;" horiz-adv-x="1251" 
d="M853 1797l-295 -345h-34l105 345h224zM1204 340l-117.001 -339.999h-1045v37h48c31.333 0 61.666 7.66699 90.999 23c27.333 14 44.333 40.333 51 79c2.66699 14 4 47.333 4 100v881c0 86.667 -8.66699 139.667 -26 159c-23.333 26.667 -63.333 40 -120 40h-48v37h1045
l15 -297h-39c-11.333 58 -22.666 99 -33.999 123c-19.333 40.667 -48.666 69 -87.999 85c-24.667 10 -71.667 15 -141 15h-372v-536h298c77.333 0 129 11.667 155 35c34.667 30.667 54 84.667 58 162h37v-472h-37c-9.33301 66.667 -18.666 109 -27.999 127
c-25.333 50 -87 75 -185 75h-298v-447c0 -46.667 0.333008 -72.334 1 -77.001c4 -31.333 15.667 -52.333 35 -63c13.333 -8 38.666 -12 75.999 -12h230c66 0 114 3.33301 144 10c46.667 10.667 87.667 33.667 123 69c40.667 40.667 83 103 127 187h40z" />
    <glyph glyph-name="Ecircumflex" unicode="&#xca;" horiz-adv-x="1251" 
d="M911 1462h-31l-273 213l-229 -213h-30l189 331h184zM1204 340l-117.001 -339.999h-1045v37h48c31.333 0 61.666 7.66699 90.999 23c27.333 14 44.333 40.333 51 79c2.66699 14 4 47.333 4 100v881c0 86.667 -8.66699 139.667 -26 159c-23.333 26.667 -63.333 40 -120 40
h-48v37h1045l15 -297h-39c-11.333 58 -22.666 99 -33.999 123c-19.333 40.667 -48.666 69 -87.999 85c-24.667 10 -71.667 15 -141 15h-372v-536h298c77.333 0 129 11.667 155 35c34.667 30.667 54 84.667 58 162h37v-472h-37c-9.33301 66.667 -18.666 109 -27.999 127
c-25.333 50 -87 75 -185 75h-298v-447c0 -46.667 0.333008 -72.334 1 -77.001c4 -31.333 15.667 -52.333 35 -63c13.333 -8 38.666 -12 75.999 -12h230c66 0 114 3.33301 144 10c46.667 10.667 87.667 33.667 123 69c40.667 40.667 83 103 127 187h40z" />
    <glyph glyph-name="Edieresis" unicode="&#xcb;" horiz-adv-x="1251" 
d="M913 1599c0 -30 -10.5 -55.5 -31.5 -76.5s-46.5 -31.5 -76.5 -31.5s-55.667 10.5 -77 31.5s-32 46.5 -32 76.5s10.667 55.667 32 77s47 32 77 32s55.5 -10.667 76.5 -32s31.5 -47 31.5 -77zM561 1599c0 -30 -10.5 -55.5 -31.5 -76.5s-46.5 -31.5 -76.5 -31.5
s-55.667 10.5 -77 31.5s-32 46.5 -32 76.5s10.5 55.667 31.5 77s46.5 32 76.5 32c30.667 0 56.5 -10.5 77.5 -31.5s31.5 -46.833 31.5 -77.5zM1204 340l-117.001 -339.999h-1045v37h48c31.333 0 61.666 7.66699 90.999 23c27.333 14 44.333 40.333 51 79
c2.66699 14 4 47.333 4 100v881c0 86.667 -8.66699 139.667 -26 159c-23.333 26.667 -63.333 40 -120 40h-48v37h1045l15 -297h-39c-11.333 58 -22.666 99 -33.999 123c-19.333 40.667 -48.666 69 -87.999 85c-24.667 10 -71.667 15 -141 15h-372v-536h298
c77.333 0 129 11.667 155 35c34.667 30.667 54 84.667 58 162h37v-472h-37c-9.33301 66.667 -18.666 109 -27.999 127c-25.333 50 -87 75 -185 75h-298v-447c0 -46.667 0.333008 -72.334 1 -77.001c4 -31.333 15.667 -52.333 35 -63c13.333 -8 38.666 -12 75.999 -12h230
c66 0 114 3.33301 144 10c46.667 10.667 87.667 33.667 123 69c40.667 40.667 83 103 127 187h40z" />
    <glyph glyph-name="Igrave" unicode="&#xcc;" horiz-adv-x="682" 
d="M448 1452h-35l-294 345h223zM632 0h-580.999v37h48c56 0 96.667 16.333 122 49c16 20.667 24 72 24 154v876c0 68.667 -4.33301 114 -13 136c-6.66699 17.333 -20.334 31.666 -41.001 42.999c-28.667 16 -59.334 24 -92.001 24h-48v37h581v-37h-49
c-55.333 0 -95.666 -16.333 -120.999 -49c-16.667 -21.333 -25 -72.666 -25 -153.999v-876c0 -68.667 4.33301 -114 13 -136c18 -44.667 62.333 -67 133 -67h49v-37z" />
    <glyph glyph-name="Iacute" unicode="&#xcd;" horiz-adv-x="682" 
d="M565 1797l-295 -345h-34l105 345h224zM632 0h-580.999v37h48c56 0 96.667 16.333 122 49c16 20.667 24 72 24 154v876c0 68.667 -4.33301 114 -13 136c-6.66699 17.333 -20.334 31.666 -41.001 42.999c-28.667 16 -59.334 24 -92.001 24h-48v37h581v-37h-49
c-55.333 0 -95.666 -16.333 -120.999 -49c-16.667 -21.333 -25 -72.666 -25 -153.999v-876c0 -68.667 4.33301 -114 13 -136c18 -44.667 62.333 -67 133 -67h49v-37z" />
    <glyph glyph-name="Icircumflex" unicode="&#xce;" horiz-adv-x="682" 
d="M623 1462h-31l-273 213l-229 -213h-30l189 331h184zM632 0h-580.999v37h48c56 0 96.667 16.333 122 49c16 20.667 24 72 24 154v876c0 68.667 -4.33301 114 -13 136c-6.66699 17.333 -20.334 31.666 -41.001 42.999c-28.667 16 -59.334 24 -92.001 24h-48v37h581v-37h-49
c-55.333 0 -95.666 -16.333 -120.999 -49c-16.667 -21.333 -25 -72.666 -25 -153.999v-876c0 -68.667 4.33301 -114 13 -136c18 -44.667 62.333 -67 133 -67h49v-37z" />
    <glyph glyph-name="Idieresis" unicode="&#xcf;" horiz-adv-x="682" 
d="M625 1599c0 -30 -10.5 -55.5 -31.5 -76.5s-46.5 -31.5 -76.5 -31.5s-55.667 10.5 -77 31.5s-32 46.5 -32 76.5s10.667 55.667 32 77s47 32 77 32s55.5 -10.667 76.5 -32s31.5 -47 31.5 -77zM273 1599c0 -30 -10.5 -55.5 -31.5 -76.5s-46.5 -31.5 -76.5 -31.5
s-55.667 10.5 -77 31.5s-32 46.5 -32 76.5s10.5 55.667 31.5 77s46.5 32 76.5 32c30.667 0 56.5 -10.5 77.5 -31.5s31.5 -46.833 31.5 -77.5zM632 0h-580.999v37h48c56 0 96.667 16.333 122 49c16 20.667 24 72 24 154v876c0 68.667 -4.33301 114 -13 136
c-6.66699 17.333 -20.334 31.666 -41.001 42.999c-28.667 16 -59.334 24 -92.001 24h-48v37h581v-37h-49c-55.333 0 -95.666 -16.333 -120.999 -49c-16.667 -21.333 -25 -72.666 -25 -153.999v-876c0 -68.667 4.33301 -114 13 -136c18 -44.667 62.333 -67 133 -67h49v-37z
" />
    <glyph glyph-name="Eth" unicode="&#xd0;" horiz-adv-x="1479" 
d="M1400 687c0 -224 -72 -396.333 -216 -517c-134 -113.333 -315.333 -170 -544 -170h-605v37h51c57.333 0 98.333 18.667 123 56c14 21.333 21 70.333 21 147v438h-195v74h195v364c0 84.667 -9.33301 137.667 -28 159c-26 29.333 -64.667 44 -116 44h-51v37h552
c176 0 311.333 -16.333 406 -49c128.667 -44 231.667 -127.667 309 -251c65.333 -105.333 98 -228.333 98 -369zM1173 677c0 174.667 -46.334 317.333 -139.001 428c-99.333 118 -234.666 177 -405.999 177c-60 0 -128.333 -9.66699 -205 -29v-501h393v-74h-393v-578
c84.667 -18.667 155.667 -28 213 -28c168 0 301.333 60 400 180c91.333 111.333 137 253 137 425z" />
    <glyph glyph-name="Ntilde" unicode="&#xd1;" horiz-adv-x="1479" 
d="M1055 1724c1.33301 -112 -30.6689 -189.333 -96.002 -232c-31.333 -20.667 -62.666 -31 -93.999 -31c-52.667 0 -118 26.667 -196 80c-59.333 40.667 -102 61 -128 61c-27.333 0 -49 -12 -65 -36c-7.33301 -11.333 -16.666 -45 -27.999 -101h-32
c5.33301 172.667 68 259 188 259c27.333 0 52.333 -4.33301 75 -13c16 -6 58.667 -30.333 128 -73c57.333 -35.333 98 -53 122 -53c48 0 79.667 46.333 95 139h31zM1450 1319l-48.001 0.000976562c-57.333 0 -98 -17.333 -122 -52c-14.667 -21.333 -22 -70 -22 -146v-1143
h-36l-894 1092v-835c0 -84 9 -136 27 -156c24.667 -28 63.667 -42 117 -42h48v-37h-472v37h47c58 0 99 17.333 123 52c14.667 21.333 22 70 22 146v943c-35.333 41.333 -61.666 68.666 -78.999 81.999c-24.667 20 -58 36.667 -100 50c-18.667 6 -48 9 -88 9v37h368
l829 -1017v782c0 83.333 -9.33301 135.333 -28 156c-24.667 28 -63.667 42 -117 42h-47v37h472v-37z" />
    <glyph glyph-name="Ograve" unicode="&#xd2;" horiz-adv-x="1479" 
d="M840 1452h-35l-294 345h223zM1400 686c0 -197.333 -61.332 -364.668 -183.999 -502.001c-127.333 -143.333 -288.333 -215 -483 -215c-198 0 -359 70.333 -483 211c-118.667 134.667 -178 302.334 -178 503.001c0 215.333 73.333 391 220 527
c127.333 118 279.666 177 456.999 177c187.333 0 344 -70.667 470 -212c120.667 -136 181 -299 181 -489zM1171 658.998c0 182 -28.334 328 -85.001 438c-74 144.667 -192.667 217 -356 217c-121.333 0 -218.666 -45 -291.999 -135c-91.333 -112 -137 -276 -137 -492
c0 -222 47.333 -392.333 142 -511c72 -90.667 168 -136 288 -136c158 0 274.667 67.333 350 202c60 106.667 90 245.667 90 417z" />
    <glyph glyph-name="Oacute" unicode="&#xd3;" horiz-adv-x="1479" 
d="M957 1797l-295 -345h-34l105 345h224zM1400 686c0 -197.333 -61.332 -364.668 -183.999 -502.001c-127.333 -143.333 -288.333 -215 -483 -215c-198 0 -359 70.333 -483 211c-118.667 134.667 -178 302.334 -178 503.001c0 215.333 73.333 391 220 527
c127.333 118 279.666 177 456.999 177c187.333 0 344 -70.667 470 -212c120.667 -136 181 -299 181 -489zM1171 658.998c0 182 -28.334 328 -85.001 438c-74 144.667 -192.667 217 -356 217c-121.333 0 -218.666 -45 -291.999 -135c-91.333 -112 -137 -276 -137 -492
c0 -222 47.333 -392.333 142 -511c72 -90.667 168 -136 288 -136c158 0 274.667 67.333 350 202c60 106.667 90 245.667 90 417z" />
    <glyph glyph-name="Ocircumflex" unicode="&#xd4;" horiz-adv-x="1479" 
d="M1015 1462h-31l-273 213l-229 -213h-30l189 331h184zM1400 686c0 -197.333 -61.332 -364.668 -183.999 -502.001c-127.333 -143.333 -288.333 -215 -483 -215c-198 0 -359 70.333 -483 211c-118.667 134.667 -178 302.334 -178 503.001c0 215.333 73.333 391 220 527
c127.333 118 279.666 177 456.999 177c187.333 0 344 -70.667 470 -212c120.667 -136 181 -299 181 -489zM1171 658.998c0 182 -28.334 328 -85.001 438c-74 144.667 -192.667 217 -356 217c-121.333 0 -218.666 -45 -291.999 -135c-91.333 -112 -137 -276 -137 -492
c0 -222 47.333 -392.333 142 -511c72 -90.667 168 -136 288 -136c158 0 274.667 67.333 350 202c60 106.667 90 245.667 90 417z" />
    <glyph glyph-name="Otilde" unicode="&#xd5;" horiz-adv-x="1479" 
d="M1053 1724c1.33301 -112 -30.6689 -189.333 -96.002 -232c-31.333 -20.667 -62.666 -31 -93.999 -31c-52.667 0 -118 26.667 -196 80c-59.333 40.667 -102 61 -128 61c-27.333 0 -49 -12 -65 -36c-7.33301 -11.333 -16.666 -45 -27.999 -101h-32
c5.33301 172.667 68 259 188 259c27.333 0 52.333 -4.33301 75 -13c16 -6 58.667 -30.333 128 -73c57.333 -35.333 98 -53 122 -53c48 0 79.667 46.333 95 139h31zM1400 686c0 -197.333 -61.332 -364.668 -183.999 -502.001c-127.333 -143.333 -288.333 -215 -483 -215
c-198 0 -359 70.333 -483 211c-118.667 134.667 -178 302.334 -178 503.001c0 215.333 73.333 391 220 527c127.333 118 279.666 177 456.999 177c187.333 0 344 -70.667 470 -212c120.667 -136 181 -299 181 -489zM1171 658.998c0 182 -28.334 328 -85.001 438
c-74 144.667 -192.667 217 -356 217c-121.333 0 -218.666 -45 -291.999 -135c-91.333 -112 -137 -276 -137 -492c0 -222 47.333 -392.333 142 -511c72 -90.667 168 -136 288 -136c158 0 274.667 67.333 350 202c60 106.667 90 245.667 90 417z" />
    <glyph glyph-name="Odieresis" unicode="&#xd6;" horiz-adv-x="1479" 
d="M1017 1599c0 -30 -10.5 -55.5 -31.5 -76.5s-46.5 -31.5 -76.5 -31.5s-55.667 10.5 -77 31.5s-32 46.5 -32 76.5s10.667 55.667 32 77s47 32 77 32s55.5 -10.667 76.5 -32s31.5 -47 31.5 -77zM665 1599c0 -30 -10.5 -55.5 -31.5 -76.5s-46.5 -31.5 -76.5 -31.5
s-55.667 10.5 -77 31.5s-32 46.5 -32 76.5s10.5 55.667 31.5 77s46.5 32 76.5 32c30.667 0 56.5 -10.5 77.5 -31.5s31.5 -46.833 31.5 -77.5zM1400 686c0 -197.333 -61.332 -364.668 -183.999 -502.001c-127.333 -143.333 -288.333 -215 -483 -215
c-198 0 -359 70.333 -483 211c-118.667 134.667 -178 302.334 -178 503.001c0 215.333 73.333 391 220 527c127.333 118 279.666 177 456.999 177c187.333 0 344 -70.667 470 -212c120.667 -136 181 -299 181 -489zM1171 658.998c0 182 -28.334 328 -85.001 438
c-74 144.667 -192.667 217 -356 217c-121.333 0 -218.666 -45 -291.999 -135c-91.333 -112 -137 -276 -137 -492c0 -222 47.333 -392.333 142 -511c72 -90.667 168 -136 288 -136c158 0 274.667 67.333 350 202c60 106.667 90 245.667 90 417z" />
    <glyph glyph-name="multiply" unicode="&#xd7;" horiz-adv-x="1155" 
d="M986 328l-57 -58l-354 354l-353 -353l-57 57l353 353l-352 352l58 58l352 -352l352 352l56 -57l-352 -352z" />
    <glyph glyph-name="Oslash" unicode="&#xd8;" horiz-adv-x="1479" 
d="M1401 687c0 -228.667 -81.333 -413.668 -244 -555.001c-125.333 -108.667 -263 -163 -413 -163c-158 0 -296 47.667 -414 143l-129 -159l-59 47l132 164c-134 138 -201 314 -201 528c0 191.333 63 354.333 189 489c128.667 137.333 288.334 206 479.001 206
c151.333 0 286.666 -49.667 405.999 -149l131 162l58 -44l-133 -167c132 -143.333 198 -310.666 198 -501.999zM1063 1135c-77.333 120.667 -186.333 181.001 -327 181.001c-61.333 0 -110.333 -7.33301 -147 -22c-120.667 -48.667 -204 -152.334 -250 -311.001
c-24.667 -84.667 -37 -180 -37 -286c0 -154 24.333 -290 73 -408zM1170 656c0 84 -6 160 -18 228c-8.66699 50 -25.667 109.667 -51 179l-685 -846c35.333 -54 74 -94 116 -120c60 -37.333 126 -56 198 -56c122 0 221.333 43 298 129c94.667 107.333 142 269.333 142 486z
" />
    <glyph glyph-name="Ugrave" unicode="&#xd9;" horiz-adv-x="1479" 
d="M891 1452h-35l-294 345h223zM1457 1319h-51.002c-52.667 0 -93.667 -22.333 -123 -67c-14 -21.333 -21 -69.333 -21 -144v-550c0 -125.333 -10 -220.666 -30 -285.999c-29.333 -92 -85.666 -166.333 -168.999 -223c-79.333 -54 -187 -81 -323 -81
c-264 0 -430.667 94.667 -500 284c-21.333 58.667 -32 170 -32 334v530c0 69.333 -7.33301 117.666 -22 144.999c-21.333 38.667 -62.666 58 -123.999 58h-51v37h586v-37h-52c-56 0 -96 -17.667 -120 -53c-16.667 -24 -25 -74 -25 -150v-591
c0 -159.333 22.333 -272.666 67 -339.999c58 -87.333 153 -131 285 -131c80 0 154 16.667 222 50c78 37.333 131.333 89.666 160 156.999c25.333 60 38 162 38 306v549c0 84.667 -9.33301 137.667 -28 159c-26 29.333 -64.667 44 -116 44h-51v37h480v-37z" />
    <glyph glyph-name="Uacute" unicode="&#xda;" horiz-adv-x="1479" 
d="M960 1797l-295 -345h-34l105 345h224zM1457 1319h-51.002c-52.667 0 -93.667 -22.333 -123 -67c-14 -21.333 -21 -69.333 -21 -144v-550c0 -125.333 -10 -220.666 -30 -285.999c-29.333 -92 -85.666 -166.333 -168.999 -223c-79.333 -54 -187 -81 -323 -81
c-264 0 -430.667 94.667 -500 284c-21.333 58.667 -32 170 -32 334v530c0 69.333 -7.33301 117.666 -22 144.999c-21.333 38.667 -62.666 58 -123.999 58h-51v37h586v-37h-52c-56 0 -96 -17.667 -120 -53c-16.667 -24 -25 -74 -25 -150v-591
c0 -159.333 22.333 -272.666 67 -339.999c58 -87.333 153 -131 285 -131c80 0 154 16.667 222 50c78 37.333 131.333 89.666 160 156.999c25.333 60 38 162 38 306v549c0 84.667 -9.33301 137.667 -28 159c-26 29.333 -64.667 44 -116 44h-51v37h480v-37z" />
    <glyph glyph-name="Ucircumflex" unicode="&#xdb;" horiz-adv-x="1479" 
d="M1065 1462h-31l-273 213l-229 -213h-30l189 331h184zM1457 1319h-51.002c-52.667 0 -93.667 -22.333 -123 -67c-14 -21.333 -21 -69.333 -21 -144v-550c0 -125.333 -10 -220.666 -30 -285.999c-29.333 -92 -85.666 -166.333 -168.999 -223c-79.333 -54 -187 -81 -323 -81
c-264 0 -430.667 94.667 -500 284c-21.333 58.667 -32 170 -32 334v530c0 69.333 -7.33301 117.666 -22 144.999c-21.333 38.667 -62.666 58 -123.999 58h-51v37h586v-37h-52c-56 0 -96 -17.667 -120 -53c-16.667 -24 -25 -74 -25 -150v-591
c0 -159.333 22.333 -272.666 67 -339.999c58 -87.333 153 -131 285 -131c80 0 154 16.667 222 50c78 37.333 131.333 89.666 160 156.999c25.333 60 38 162 38 306v549c0 84.667 -9.33301 137.667 -28 159c-26 29.333 -64.667 44 -116 44h-51v37h480v-37z" />
    <glyph glyph-name="Udieresis" unicode="&#xdc;" horiz-adv-x="1479" 
d="M1068 1599c0 -30 -10.5 -55.5 -31.5 -76.5s-46.5 -31.5 -76.5 -31.5s-55.667 10.5 -77 31.5s-32 46.5 -32 76.5s10.667 55.667 32 77s47 32 77 32s55.5 -10.667 76.5 -32s31.5 -47 31.5 -77zM716 1599c0 -30 -10.5 -55.5 -31.5 -76.5s-46.5 -31.5 -76.5 -31.5
s-55.667 10.5 -77 31.5s-32 46.5 -32 76.5s10.5 55.667 31.5 77s46.5 32 76.5 32c30.667 0 56.5 -10.5 77.5 -31.5s31.5 -46.833 31.5 -77.5zM1457 1319h-51.002c-52.667 0 -93.667 -22.333 -123 -67c-14 -21.333 -21 -69.333 -21 -144v-550
c0 -125.333 -10 -220.666 -30 -285.999c-29.333 -92 -85.666 -166.333 -168.999 -223c-79.333 -54 -187 -81 -323 -81c-264 0 -430.667 94.667 -500 284c-21.333 58.667 -32 170 -32 334v530c0 69.333 -7.33301 117.666 -22 144.999c-21.333 38.667 -62.666 58 -123.999 58
h-51v37h586v-37h-52c-56 0 -96 -17.667 -120 -53c-16.667 -24 -25 -74 -25 -150v-591c0 -159.333 22.333 -272.666 67 -339.999c58 -87.333 153 -131 285 -131c80 0 154 16.667 222 50c78 37.333 131.333 89.666 160 156.999c25.333 60 38 162 38 306v549
c0 84.667 -9.33301 137.667 -28 159c-26 29.333 -64.667 44 -116 44h-51v37h480v-37z" />
    <glyph glyph-name="Yacute" unicode="&#xdd;" horiz-adv-x="1479" 
d="M996 1797l-295 -345h-34l105 345h224zM1449 1319h-25.998c-54.667 0 -110.334 -29.667 -167.001 -89c-24 -25.333 -57.667 -72 -101 -140l-327 -515v-340c0 -83.333 9.33301 -135.333 28 -156c25.333 -28 65.333 -42 120 -42h44v-37h-576v37h48
c57.333 0 98 17.333 122 52c14.667 21.333 22 70 22 146v321l-372 568c-40.667 62 -66.334 99 -77.001 111c-24 25.333 -60.667 50 -110 74c-14 6.66699 -33.333 10 -58 10v37h580v-37h-30c-32 0 -59.667 -6.66699 -83 -20c-28.667 -16 -43 -38.667 -43 -68
c0 -24 20.333 -67.333 61 -130l283 -437l266 418c40 62.667 60 109.334 60 140.001c0 39.333 -18.667 67.666 -56 84.999c-18 8 -45 12 -81 12v37h473v-37z" />
    <glyph glyph-name="Thorn" unicode="&#xde;" horiz-adv-x="1139" 
d="M1060 680c0 -101.333 -35.666 -186.332 -106.999 -254.999c-64.667 -62 -155.334 -100.667 -272.001 -116c-24.667 -3.33301 -88.334 -5 -191.001 -5h-70v-61c0 -72.667 7.66699 -122.667 23 -150c21.333 -37.333 64.666 -56 129.999 -56h41v-37h-578v37h38
c62 0 106.333 18.667 133 56c13.333 18.667 20 67.667 20 147v868c0 62 -1 97.667 -3 107c-6 36 -24.667 63.333 -56 82c-25.333 14.667 -56 22 -92 22h-40v37h578v-37h-40c-29.333 0 -60.666 -7.66699 -93.999 -23c-40 -18.667 -60 -79.667 -60 -183v-65h74
c102.667 0 177.334 -4 224.001 -12c137.333 -23.333 236.333 -85.333 297 -186c30 -50.667 45 -107.334 45 -170.001zM830.001 677.001c0 104.667 -37.333 183.668 -112 237.001c-34 23.333 -71.667 39.333 -113 48c-26 5.33301 -71.667 8 -137 8h-48v-595h44
c82 0 145.333 9.33301 190 28c117.333 49.333 176 140.666 176 273.999z" />
    <glyph glyph-name="germandbls" unicode="&#xdf;" 
d="M958 422c0 -112 -27.334 -209.333 -82.001 -292c-62.667 -95.333 -147 -143 -253 -143c-51.333 0 -95.333 14 -132 42c-40 30 -60 70 -60 120c0 58 26.333 87 79 87c54.667 0 82 -26.333 82 -79c0 -8.66699 -1.66699 -20.5 -5 -35.5s-5 -25.833 -5 -32.5
c0 -30.667 18.667 -46 56 -46c100 0 150 89.667 150 269c0 294.667 -98.333 448.667 -295 462v57c143.333 0 215 90.333 215 271c0 169.333 -64 254 -192 254c-122 0 -183 -106.333 -183 -319v-1037h-298v36c66.667 5.33301 107.334 27.333 122.001 66
c6.66699 18.667 10 59.667 10 123v741c0 304 119 456 357 456c102 0 185.333 -28.333 250 -85c68 -59.333 102 -139.333 102 -240c0 -70.667 -18 -130.667 -54 -180c-26 -36 -71.667 -68 -137 -96c182 -54 273 -187 273 -399z" />
    <glyph glyph-name="agrave" unicode="&#xe0;" horiz-adv-x="909" 
d="M589 1045h-35l-294 345h223zM905 132c-74.667 -100 -146 -149.998 -214 -149.998c-70.667 0 -106.667 50 -108 150c-94.667 -73.333 -153.667 -115.333 -177 -126c-36 -16.667 -74.333 -25 -115 -25c-66.667 0 -120 23 -160 69c-38.667 44 -58 99.667 -58 167
c0 94.667 57.667 176 173 244c67.333 40 179.666 88.667 336.999 146v36c0 74.667 -9.66699 130 -29 166c-26.667 48.667 -73.667 73 -141 73c-34.667 0 -65.667 -9.66699 -93 -29c-31.333 -21.333 -46.333 -49 -45 -83l2 -58c2 -64 -26.333 -96 -85 -96
c-56 0 -84 32.333 -84 97c0 75.333 39 134.333 117 177c64 35.333 136.667 53 218 53c152.667 0 248.334 -46 287.001 -138c12 -28.667 18 -87.334 18 -176.001v-311c0 -120.667 7.33301 -187.334 22 -200.001c7.33301 -6.66699 16 -10 26 -10c10.667 0 20 2.33301 28 7
c13.333 8 40.333 32.333 81 73v-56zM583 197.002l-0.000976562 349c-99.333 -39.333 -164.333 -67.666 -195 -84.999c-98 -54.667 -147 -120.334 -147 -197.001c0 -43.333 12.667 -81.333 38 -114c27.333 -35.333 62 -53 104 -53c50.667 0 117.334 33.333 200.001 100z" />
    <glyph glyph-name="aacute" unicode="&#xe1;" horiz-adv-x="909" 
d="M682 1390l-295 -345h-34l105 345h224zM905 132c-74.667 -100 -146 -149.998 -214 -149.998c-70.667 0 -106.667 50 -108 150c-94.667 -73.333 -153.667 -115.333 -177 -126c-36 -16.667 -74.333 -25 -115 -25c-66.667 0 -120 23 -160 69c-38.667 44 -58 99.667 -58 167
c0 94.667 57.667 176 173 244c67.333 40 179.666 88.667 336.999 146v36c0 74.667 -9.66699 130 -29 166c-26.667 48.667 -73.667 73 -141 73c-34.667 0 -65.667 -9.66699 -93 -29c-31.333 -21.333 -46.333 -49 -45 -83l2 -58c2 -64 -26.333 -96 -85 -96
c-56 0 -84 32.333 -84 97c0 75.333 39 134.333 117 177c64 35.333 136.667 53 218 53c152.667 0 248.334 -46 287.001 -138c12 -28.667 18 -87.334 18 -176.001v-311c0 -120.667 7.33301 -187.334 22 -200.001c7.33301 -6.66699 16 -10 26 -10c10.667 0 20 2.33301 28 7
c13.333 8 40.333 32.333 81 73v-56zM583 197.002l-0.000976562 349c-99.333 -39.333 -164.333 -67.666 -195 -84.999c-98 -54.667 -147 -120.334 -147 -197.001c0 -43.333 12.667 -81.333 38 -114c27.333 -35.333 62 -53 104 -53c50.667 0 117.334 33.333 200.001 100z" />
    <glyph glyph-name="acircumflex" unicode="&#xe2;" horiz-adv-x="909" 
d="M740 1054h-31l-273 213l-229 -213h-30l189 331h184zM905 132c-74.667 -100 -146 -149.998 -214 -149.998c-70.667 0 -106.667 50 -108 150c-94.667 -73.333 -153.667 -115.333 -177 -126c-36 -16.667 -74.333 -25 -115 -25c-66.667 0 -120 23 -160 69
c-38.667 44 -58 99.667 -58 167c0 94.667 57.667 176 173 244c67.333 40 179.666 88.667 336.999 146v36c0 74.667 -9.66699 130 -29 166c-26.667 48.667 -73.667 73 -141 73c-34.667 0 -65.667 -9.66699 -93 -29c-31.333 -21.333 -46.333 -49 -45 -83l2 -58
c2 -64 -26.333 -96 -85 -96c-56 0 -84 32.333 -84 97c0 75.333 39 134.333 117 177c64 35.333 136.667 53 218 53c152.667 0 248.334 -46 287.001 -138c12 -28.667 18 -87.334 18 -176.001v-311c0 -120.667 7.33301 -187.334 22 -200.001c7.33301 -6.66699 16 -10 26 -10
c10.667 0 20 2.33301 28 7c13.333 8 40.333 32.333 81 73v-56zM583 197.002l-0.000976562 349c-99.333 -39.333 -164.333 -67.666 -195 -84.999c-98 -54.667 -147 -120.334 -147 -197.001c0 -43.333 12.667 -81.333 38 -114c27.333 -35.333 62 -53 104 -53
c50.667 0 117.334 33.333 200.001 100z" />
    <glyph glyph-name="atilde" unicode="&#xe3;" horiz-adv-x="909" 
d="M778 1356c1.33301 -112 -30.6689 -189.333 -96.002 -232c-31.333 -20.667 -62.666 -31 -93.999 -31c-52.667 0 -118 26.667 -196 80c-59.333 40.667 -102 61 -128 61c-27.333 0 -49 -12 -65 -36c-7.33301 -11.333 -16.666 -45 -27.999 -101h-32
c5.33301 172.667 68 259 188 259c27.333 0 52.333 -4.33301 75 -13c16 -6 58.667 -30.333 128 -73c57.333 -35.333 98 -53 122 -53c48 0 79.667 46.333 95 139h31zM904.998 132c-74.667 -100 -146 -149.998 -214 -149.998c-70.667 0 -106.667 50 -108 150
c-94.667 -73.333 -153.667 -115.333 -177 -126c-36 -16.667 -74.333 -25 -115 -25c-66.667 0 -120 23 -160 69c-38.667 44 -58 99.667 -58 167c0 94.667 57.667 176 173 244c67.333 40 179.666 88.667 336.999 146v36c0 74.667 -9.66699 130 -29 166
c-26.667 48.667 -73.667 73 -141 73c-34.667 0 -65.667 -9.66699 -93 -29c-31.333 -21.333 -46.333 -49 -45 -83l2 -58c2 -64 -26.333 -96 -85 -96c-56 0 -84 32.333 -84 97c0 75.333 39 134.333 117 177c64 35.333 136.667 53 218 53c152.667 0 248.334 -46 287.001 -138
c12 -28.667 18 -87.334 18 -176.001v-311c0 -120.667 7.33301 -187.334 22 -200.001c7.33301 -6.66699 16 -10 26 -10c10.667 0 20 2.33301 28 7c13.333 8 40.333 32.333 81 73v-56zM582.998 197.002l-0.000976562 349c-99.333 -39.333 -164.333 -67.666 -195 -84.999
c-98 -54.667 -147 -120.334 -147 -197.001c0 -43.333 12.667 -81.333 38 -114c27.333 -35.333 62 -53 104 -53c50.667 0 117.334 33.333 200.001 100z" />
    <glyph glyph-name="adieresis" unicode="&#xe4;" horiz-adv-x="909" 
d="M742 1228c0 -30 -10.5 -55.5 -31.5 -76.5s-46.5 -31.5 -76.5 -31.5s-55.667 10.5 -77 31.5s-32 46.5 -32 76.5s10.667 55.667 32 77s47 32 77 32s55.5 -10.667 76.5 -32s31.5 -47 31.5 -77zM390 1228c0 -30 -10.5 -55.5 -31.5 -76.5s-46.5 -31.5 -76.5 -31.5
s-55.667 10.5 -77 31.5s-32 46.5 -32 76.5s10.5 55.667 31.5 77s46.5 32 76.5 32c30.667 0 56.5 -10.5 77.5 -31.5s31.5 -46.833 31.5 -77.5zM905 132c-74.667 -100 -146 -149.998 -214 -149.998c-70.667 0 -106.667 50 -108 150
c-94.667 -73.333 -153.667 -115.333 -177 -126c-36 -16.667 -74.333 -25 -115 -25c-66.667 0 -120 23 -160 69c-38.667 44 -58 99.667 -58 167c0 94.667 57.667 176 173 244c67.333 40 179.666 88.667 336.999 146v36c0 74.667 -9.66699 130 -29 166
c-26.667 48.667 -73.667 73 -141 73c-34.667 0 -65.667 -9.66699 -93 -29c-31.333 -21.333 -46.333 -49 -45 -83l2 -58c2 -64 -26.333 -96 -85 -96c-56 0 -84 32.333 -84 97c0 75.333 39 134.333 117 177c64 35.333 136.667 53 218 53c152.667 0 248.334 -46 287.001 -138
c12 -28.667 18 -87.334 18 -176.001v-311c0 -120.667 7.33301 -187.334 22 -200.001c7.33301 -6.66699 16 -10 26 -10c10.667 0 20 2.33301 28 7c13.333 8 40.333 32.333 81 73v-56zM583 197.002l-0.000976562 349c-99.333 -39.333 -164.333 -67.666 -195 -84.999
c-98 -54.667 -147 -120.334 -147 -197.001c0 -43.333 12.667 -81.333 38 -114c27.333 -35.333 62 -53 104 -53c50.667 0 117.334 33.333 200.001 100z" />
    <glyph glyph-name="aring" unicode="&#xe5;" horiz-adv-x="909" 
d="M650 1235c0 -54 -18.499 -99.499 -55.499 -136.499s-82.5 -55.5 -136.5 -55.5c-53.333 0 -98.5 18.667 -135.5 56s-55.5 82.666 -55.5 135.999s18.5 98.5 55.5 135.5s82.167 55.5 135.5 55.5s98.666 -18.5 135.999 -55.5s56 -82.167 56 -135.5zM905.001 132.001
c-74.667 -100 -146 -149.998 -214 -149.998c-70.667 0 -106.667 50 -108 150c-94.667 -73.333 -153.667 -115.333 -177 -126c-36 -16.667 -74.333 -25 -115 -25c-66.667 0 -120 23 -160 69c-38.667 44 -58 99.667 -58 167c0 94.667 57.667 176 173 244
c67.333 40 179.666 88.667 336.999 146v36c0 74.667 -9.66699 130 -29 166c-26.667 48.667 -73.667 73 -141 73c-34.667 0 -65.667 -9.66699 -93 -29c-31.333 -21.333 -46.333 -49 -45 -83l2 -58c2 -64 -26.333 -96 -85 -96c-56 0 -84 32.333 -84 97
c0 75.333 39 134.333 117 177c64 35.333 136.667 53 218 53c152.667 0 248.334 -46 287.001 -138c12 -28.667 18 -87.334 18 -176.001v-311c0 -120.667 7.33301 -187.334 22 -200.001c7.33301 -6.66699 16 -10 26 -10c10.667 0 20 2.33301 28 7
c13.333 8 40.333 32.333 81 73v-56zM580.001 1235c0 34 -11.833 62.833 -35.5 86.5s-52.5 35.5 -86.5 35.5s-62.833 -11.833 -86.5 -35.5s-35.5 -52.5 -35.5 -86.5s11.833 -62.833 35.5 -86.5s52.5 -35.5 86.5 -35.5s62.833 11.833 86.5 35.5s35.5 52.5 35.5 86.5z
M583.001 197.003l-0.000976562 349c-99.333 -39.333 -164.333 -67.666 -195 -84.999c-98 -54.667 -147 -120.334 -147 -197.001c0 -43.333 12.667 -81.333 38 -114c27.333 -35.333 62 -53 104 -53c50.667 0 117.334 33.333 200.001 100z" />
    <glyph glyph-name="ae" unicode="&#xe6;" horiz-adv-x="1366" 
d="M1304 320c-24 -108 -75.668 -198.002 -155.001 -270.002c-57.333 -52 -129 -78 -215 -78c-72.667 0 -134.334 15.667 -185.001 47c-23.333 14.667 -60.333 52.334 -111 113.001l-55 -43c-39.333 -31.333 -65.333 -50.666 -78 -57.999c-69.333 -39.333 -139 -59 -209 -59
c-63.333 0 -116.333 22.167 -159 66.5s-64 98.5 -64 162.5c0 68 20.333 124.333 61 169c30 33.333 81 68.333 153 105c104 53.333 196 94 276 122v92c0 131.333 -49 197 -147 197c-35.333 0 -66.666 -8.33301 -93.999 -25c-31.333 -20 -47 -46.667 -47 -80
c0 -81.333 -11.667 -130.333 -35 -147c-12 -8.66699 -27 -13 -45 -13c-26 0 -46 7.66699 -60 23c-20 21.333 -30 45.333 -30 72c0 82 50.667 146 152 192c52 24 113 36 183 36c148.667 0 238.667 -41 270 -123c65.333 82 155 123 269 123c106.667 0 189 -37 247 -111
c52 -67.333 78 -156 78 -266h-570c-0.666992 -34 -1 -58.667 -1 -74c0 -247.333 85.333 -371 256 -371c64.667 0 123.334 20.333 176.001 61c33.333 26 69 79 107 159zM1112 631.998c-2.66699 160.667 -64.332 241 -184.999 241c-62.667 0 -111.334 -25.333 -146.001 -76
c-30 -44 -45.667 -99 -47 -165h378zM610.001 183.998c-31.333 67.333 -46.999 153.667 -46.999 259v89c-90.667 -28 -173.334 -70.667 -248.001 -128c-49.333 -38 -74 -86.667 -74 -146c0 -48.667 14.833 -90.667 44.5 -126s68.5 -53 116.5 -53c48.667 0 118 35 208 105z
" />
    <glyph glyph-name="ccedilla" unicode="&#xe7;" horiz-adv-x="909" 
d="M842 348c-21.333 -105.333 -63.3359 -192.001 -126.003 -260.001c-71.333 -77.333 -157.333 -116 -258 -116c-122 0 -219.333 52 -292 156c-64 92 -96 201.667 -96 329c0 133.333 39 246.333 117 339c82.667 98 189.334 147 320.001 147
c70.667 0 137.334 -18.667 200.001 -56c72.667 -43.333 109 -98 109 -164c0 -56.667 -31 -85 -93 -85c-39.333 0 -69 12.667 -89 38c-9.33301 12 -17 39.667 -23 83c-5.33301 39.333 -19 68.666 -41 87.999s-54 29 -96 29c-66.667 0 -120.334 -24.667 -161.001 -74
c-54 -65.333 -81 -151.666 -81 -258.999c0 -103.333 23.333 -194.666 70 -273.999c55.333 -94 131.333 -141 228 -141c64.667 0 123.334 22.333 176.001 67c36.667 31.333 72.334 87 107.001 167zM604.997 -209.001c0 -54.667 -22.666 -99.333 -67.999 -134
c-42 -31.333 -91 -47 -147 -47c-24.667 0 -56 2.33301 -94 7v43c18.667 -2.66699 34.667 -4 48 -4c31.333 0 59.333 10.5 84 31.5s37 47.167 37 78.5c0 21.333 -8 39 -24 53s-34.667 21 -56 21c-6.66699 0 -15.334 -0.666992 -26.001 -2l111 178h60l-50 -79
c83.333 -21.333 125 -70 125 -146z" />
    <glyph glyph-name="egrave" unicode="&#xe8;" horiz-adv-x="909" 
d="M614 1045h-35l-294 345h223zM851 334c-15.333 -98.667 -56.3311 -182.333 -122.998 -251c-71.333 -74 -155.333 -111 -252 -111c-124.667 0 -224.334 49 -299.001 147c-67.333 89.333 -101 198.333 -101 327c0 140.667 34.667 256.334 104 347.001
c76.667 100.667 183 151 319 151c108 0 194 -35.667 258 -107c62.667 -68.667 94 -157.334 94 -266.001h-633c-0.666992 -113.333 25.666 -211 78.999 -293c62 -95.333 147 -143 255 -143c124 0 213.333 73 268 219zM642.002 629.001
c-3.33301 58.667 -10.334 100 -21.001 124c-35.333 80 -94.666 120 -177.999 120c-64 0 -117 -25.333 -159 -76c-37.333 -45.333 -59.333 -101.333 -66 -168h424z" />
    <glyph glyph-name="eacute" unicode="&#xe9;" horiz-adv-x="909" 
d="M695 1390l-295 -345h-34l105 345h224zM851 334c-15.333 -98.667 -56.3311 -182.333 -122.998 -251c-71.333 -74 -155.333 -111 -252 -111c-124.667 0 -224.334 49 -299.001 147c-67.333 89.333 -101 198.333 -101 327c0 140.667 34.667 256.334 104 347.001
c76.667 100.667 183 151 319 151c108 0 194 -35.667 258 -107c62.667 -68.667 94 -157.334 94 -266.001h-633c-0.666992 -113.333 25.666 -211 78.999 -293c62 -95.333 147 -143 255 -143c124 0 213.333 73 268 219zM642.002 629.001
c-3.33301 58.667 -10.334 100 -21.001 124c-35.333 80 -94.666 120 -177.999 120c-64 0 -117 -25.333 -159 -76c-37.333 -45.333 -59.333 -101.333 -66 -168h424z" />
    <glyph glyph-name="ecircumflex" unicode="&#xea;" horiz-adv-x="909" 
d="M777 1054h-31l-273 213l-229 -213h-30l189 331h184zM851 334c-15.333 -98.667 -56.3311 -182.333 -122.998 -251c-71.333 -74 -155.333 -111 -252 -111c-124.667 0 -224.334 49 -299.001 147c-67.333 89.333 -101 198.333 -101 327c0 140.667 34.667 256.334 104 347.001
c76.667 100.667 183 151 319 151c108 0 194 -35.667 258 -107c62.667 -68.667 94 -157.334 94 -266.001h-633c-0.666992 -113.333 25.666 -211 78.999 -293c62 -95.333 147 -143 255 -143c124 0 213.333 73 268 219zM642.002 629.001
c-3.33301 58.667 -10.334 100 -21.001 124c-35.333 80 -94.666 120 -177.999 120c-64 0 -117 -25.333 -159 -76c-37.333 -45.333 -59.333 -101.333 -66 -168h424z" />
    <glyph glyph-name="edieresis" unicode="&#xeb;" horiz-adv-x="909" 
d="M779 1227c0 -30 -10.5 -55.5 -31.5 -76.5s-46.5 -31.5 -76.5 -31.5s-55.667 10.5 -77 31.5s-32 46.5 -32 76.5s10.667 55.667 32 77s47 32 77 32s55.5 -10.667 76.5 -32s31.5 -47 31.5 -77zM427 1227c0 -30 -10.5 -55.5 -31.5 -76.5s-46.5 -31.5 -76.5 -31.5
s-55.667 10.5 -77 31.5s-32 46.5 -32 76.5s10.5 55.667 31.5 77s46.5 32 76.5 32c30.667 0 56.5 -10.5 77.5 -31.5s31.5 -46.833 31.5 -77.5zM851 334c-15.333 -98.667 -56.3311 -182.333 -122.998 -251c-71.333 -74 -155.333 -111 -252 -111
c-124.667 0 -224.334 49 -299.001 147c-67.333 89.333 -101 198.333 -101 327c0 140.667 34.667 256.334 104 347.001c76.667 100.667 183 151 319 151c108 0 194 -35.667 258 -107c62.667 -68.667 94 -157.334 94 -266.001h-633
c-0.666992 -113.333 25.666 -211 78.999 -293c62 -95.333 147 -143 255 -143c124 0 213.333 73 268 219zM642.002 629.001c-3.33301 58.667 -10.334 100 -21.001 124c-35.333 80 -94.666 120 -177.999 120c-64 0 -117 -25.333 -159 -76
c-37.333 -45.333 -59.333 -101.333 -66 -168h424z" />
    <glyph glyph-name="igrave" unicode="&#xec;" horiz-adv-x="569" 
d="M406 1045h-35l-294 345h223zM519 0l-444.998 -0.000976562v36c67.333 0 109.666 18.667 126.999 56c8.66699 20 13 58.333 13 115v353c0 100 -3 164.333 -9 193c-8 38 -29 57 -63 57c-18.667 0 -41.334 -5 -68.001 -15l-14 36l276 112h43v-736
c0 -85.333 17 -137.666 51 -156.999c16 -9.33301 45.667 -14 89 -14v-36z" />
    <glyph glyph-name="iacute" unicode="&#xed;" horiz-adv-x="569" 
d="M498 1390l-295 -345h-34l105 345h224zM519 0l-444.998 -0.000976562v36c67.333 0 109.666 18.667 126.999 56c8.66699 20 13 58.333 13 115v353c0 100 -3 164.333 -9 193c-8 38 -29 57 -63 57c-18.667 0 -41.334 -5 -68.001 -15l-14 36l276 112h43v-736
c0 -85.333 17 -137.666 51 -156.999c16 -9.33301 45.667 -14 89 -14v-36z" />
    <glyph glyph-name="icircumflex" unicode="&#xee;" horiz-adv-x="569" 
d="M576 1054h-31l-273 213l-229 -213h-30l189 331h184zM519 0l-444.998 -0.000976562v36c67.333 0 109.666 18.667 126.999 56c8.66699 20 13 58.333 13 115v353c0 100 -3 164.333 -9 193c-8 38 -29 57 -63 57c-18.667 0 -41.334 -5 -68.001 -15l-14 36l276 112h43v-736
c0 -85.333 17 -137.666 51 -156.999c16 -9.33301 45.667 -14 89 -14v-36z" />
    <glyph glyph-name="idieresis" unicode="&#xef;" horiz-adv-x="569" 
d="M571 1227c0 -30 -10.5 -55.5 -31.5 -76.5s-46.5 -31.5 -76.5 -31.5s-55.667 10.5 -77 31.5s-32 46.5 -32 76.5s10.667 55.667 32 77s47 32 77 32s55.5 -10.667 76.5 -32s31.5 -47 31.5 -77zM219 1227c0 -30 -10.5 -55.5 -31.5 -76.5s-46.5 -31.5 -76.5 -31.5
s-55.667 10.5 -77 31.5s-32 46.5 -32 76.5s10.5 55.667 31.5 77s46.5 32 76.5 32c30.667 0 56.5 -10.5 77.5 -31.5s31.5 -46.833 31.5 -77.5zM519 0l-444.998 -0.000976562v36c67.333 0 109.666 18.667 126.999 56c8.66699 20 13 58.333 13 115v353c0 100 -3 164.333 -9 193
c-8 38 -29 57 -63 57c-18.667 0 -41.334 -5 -68.001 -15l-14 36l276 112h43v-736c0 -85.333 17 -137.666 51 -156.999c16 -9.33301 45.667 -14 89 -14v-36z" />
    <glyph glyph-name="eth" unicode="&#xf0;" 
d="M949 474c0 -200 -72.999 -345.667 -218.999 -437c-69.333 -43.333 -146.333 -65 -231 -65c-126.667 0 -231 47 -313 141c-78.667 90.667 -118 200 -118 328c0 141.333 46 263 138 365c78 86 172 129 282 129c32 0 61.333 -4.33301 88 -13
c20.667 -6.66699 47.667 -22 81 -46c-53.333 110 -116 207.667 -188 293l-247 -135l-30 55l233 132c-64.667 65.333 -127.334 118 -188.001 158l27 43c80 -40 162.333 -91.667 247 -155l249 139l34 -55l-229 -130c114 -98.667 204.667 -210 272 -334
c74.667 -137.333 112 -275 112 -413zM764.001 377c0 119.333 -18.667 224 -56 314c-50 122 -126.333 183 -229 183c-150.667 0 -226 -118.667 -226 -356c0 -200 50 -340 150 -420c46 -37.333 94 -56 144 -56c80 0 138.333 38.333 175 115c28 58 42 131.333 42 220z" />
    <glyph glyph-name="ntilde" unicode="&#xf1;" 
d="M832 1356c1.33301 -112 -30.6689 -189.333 -96.002 -232c-31.333 -20.667 -62.666 -31 -93.999 -31c-52.667 0 -118 26.667 -196 80c-59.333 40.667 -102 61 -128 61c-27.333 0 -49 -12 -65 -36c-7.33301 -11.333 -16.666 -45 -27.999 -101h-32
c5.33301 172.667 68 259 188 259c27.333 0 52.333 -4.33301 75 -13c16 -6 58.667 -30.333 128 -73c57.333 -35.333 98 -53 122 -53c48 0 79.667 46.333 95 139h31zM1015 0l-452.999 -0.000976562v36h19c70 0 111.667 25.667 125 77c2.66699 10 4 41.333 4 94v375
c0 158.667 -47.333 238 -142 238c-79.333 0 -158.333 -43.333 -237 -130v-483c0 -62 3.66699 -100.333 11 -115c18 -37.333 64 -56 138 -56v-36h-453v36h20c51.333 0 85.333 16.333 102 49c11.333 22.667 17 63.334 17 122.001v340c0 149.333 -10 232.666 -30 249.999
c-10.667 8.66699 -24.667 13 -42 13c-18.667 0 -41 -5 -67 -15l-15 36l276 112h43v-194c107.333 129.333 209.666 194 306.999 194c103.333 0 175 -53.667 215 -161c14.667 -39.333 22 -100.666 22 -183.999v-391c0 -86 16.667 -138.333 50 -157c16 -9.33301 46 -14 90 -14
v-36z" />
    <glyph glyph-name="ograve" unicode="&#xf2;" 
d="M630 1045h-35l-294 345h223zM953 475c0 -84.667 -19.3311 -167 -57.998 -247c-40.667 -86 -95.334 -150.167 -164.001 -192.5s-145.334 -63.5 -230.001 -63.5c-138 0 -247.667 55 -329 165c-68.667 92.667 -103 196.667 -103 312c0 84 20 166 60 246
c42.667 85.333 98.167 148 166.5 188s140.5 60 216.5 60c138.667 0 250 -52.667 334 -158c71.333 -90 107 -193.333 107 -310zM767.002 398c0 162 -35.001 290.001 -105.001 384.001c-48 64 -108.333 96 -181 96c-89.333 0 -153.666 -47.333 -192.999 -142
c-22 -52.667 -33 -120.334 -33 -203.001c0 -113.333 20.333 -216.333 61 -309c52.667 -120.667 128.667 -181 228 -181c148.667 0 223 118.333 223 355z" />
    <glyph glyph-name="oacute" unicode="&#xf3;" 
d="M723 1390l-295 -345h-34l105 345h224zM953 475c0 -84.667 -19.3311 -167 -57.998 -247c-40.667 -86 -95.334 -150.167 -164.001 -192.5s-145.334 -63.5 -230.001 -63.5c-138 0 -247.667 55 -329 165c-68.667 92.667 -103 196.667 -103 312c0 84 20 166 60 246
c42.667 85.333 98.167 148 166.5 188s140.5 60 216.5 60c138.667 0 250 -52.667 334 -158c71.333 -90 107 -193.333 107 -310zM767.002 398c0 162 -35.001 290.001 -105.001 384.001c-48 64 -108.333 96 -181 96c-89.333 0 -153.666 -47.333 -192.999 -142
c-22 -52.667 -33 -120.334 -33 -203.001c0 -113.333 20.333 -216.333 61 -309c52.667 -120.667 128.667 -181 228 -181c148.667 0 223 118.333 223 355z" />
    <glyph glyph-name="ocircumflex" unicode="&#xf4;" 
d="M805 1054h-31l-273 213l-229 -213h-30l189 331h184zM953 475c0 -84.667 -19.3311 -167 -57.998 -247c-40.667 -86 -95.334 -150.167 -164.001 -192.5s-145.334 -63.5 -230.001 -63.5c-138 0 -247.667 55 -329 165c-68.667 92.667 -103 196.667 -103 312
c0 84 20 166 60 246c42.667 85.333 98.167 148 166.5 188s140.5 60 216.5 60c138.667 0 250 -52.667 334 -158c71.333 -90 107 -193.333 107 -310zM767.002 398c0 162 -35.001 290.001 -105.001 384.001c-48 64 -108.333 96 -181 96
c-89.333 0 -153.666 -47.333 -192.999 -142c-22 -52.667 -33 -120.334 -33 -203.001c0 -113.333 20.333 -216.333 61 -309c52.667 -120.667 128.667 -181 228 -181c148.667 0 223 118.333 223 355z" />
    <glyph glyph-name="otilde" unicode="&#xf5;" 
d="M831 1356c1.33301 -112 -30.6689 -189.333 -96.002 -232c-31.333 -20.667 -62.666 -31 -93.999 -31c-52.667 0 -118 26.667 -196 80c-59.333 40.667 -102 61 -128 61c-27.333 0 -49 -12 -65 -36c-7.33301 -11.333 -16.666 -45 -27.999 -101h-32
c5.33301 172.667 68 259 188 259c27.333 0 52.333 -4.33301 75 -13c16 -6 58.667 -30.333 128 -73c57.333 -35.333 98 -53 122 -53c48 0 79.667 46.333 95 139h31zM952.998 475c0 -84.667 -19.3311 -167 -57.998 -247c-40.667 -86 -95.334 -150.167 -164.001 -192.5
s-145.334 -63.5 -230.001 -63.5c-138 0 -247.667 55 -329 165c-68.667 92.667 -103 196.667 -103 312c0 84 20 166 60 246c42.667 85.333 98.167 148 166.5 188s140.5 60 216.5 60c138.667 0 250 -52.667 334 -158c71.333 -90 107 -193.333 107 -310zM767 398
c0 162 -35.001 290.001 -105.001 384.001c-48 64 -108.333 96 -181 96c-89.333 0 -153.666 -47.333 -192.999 -142c-22 -52.667 -33 -120.334 -33 -203.001c0 -113.333 20.333 -216.333 61 -309c52.667 -120.667 128.667 -181 228 -181c148.667 0 223 118.333 223 355z" />
    <glyph glyph-name="odieresis" unicode="&#xf6;" 
d="M795 1227c0 -30 -10.5 -55.5 -31.5 -76.5s-46.5 -31.5 -76.5 -31.5s-55.667 10.5 -77 31.5s-32 46.5 -32 76.5s10.667 55.667 32 77s47 32 77 32s55.5 -10.667 76.5 -32s31.5 -47 31.5 -77zM443 1227c0 -30 -10.5 -55.5 -31.5 -76.5s-46.5 -31.5 -76.5 -31.5
s-55.667 10.5 -77 31.5s-32 46.5 -32 76.5s10.5 55.667 31.5 77s46.5 32 76.5 32c30.667 0 56.5 -10.5 77.5 -31.5s31.5 -46.833 31.5 -77.5zM953 475c0 -84.667 -19.3311 -167 -57.998 -247c-40.667 -86 -95.334 -150.167 -164.001 -192.5s-145.334 -63.5 -230.001 -63.5
c-138 0 -247.667 55 -329 165c-68.667 92.667 -103 196.667 -103 312c0 84 20 166 60 246c42.667 85.333 98.167 148 166.5 188s140.5 60 216.5 60c138.667 0 250 -52.667 334 -158c71.333 -90 107 -193.333 107 -310zM767.002 398c0 162 -35.001 290.001 -105.001 384.001
c-48 64 -108.333 96 -181 96c-89.333 0 -153.666 -47.333 -192.999 -142c-22 -52.667 -33 -120.334 -33 -203.001c0 -113.333 20.333 -216.333 61 -309c52.667 -120.667 128.667 -181 228 -181c148.667 0 223 118.333 223 355z" />
    <glyph glyph-name="divide" unicode="&#xf7;" horiz-adv-x="1124" 
d="M649 988c0 -24.667 -8.5 -45.334 -25.5 -62.001s-37.833 -25 -62.5 -25c-24 0 -44.5 8.5 -61.5 25.5s-25.5 37.5 -25.5 61.5c0 24.667 8.5 45.334 25.5 62.001s37.833 25 62.5 25c24 0 44.5 -8.5 61.5 -25.5s25.5 -37.5 25.5 -61.5zM1101 640h-1078v82h1078v-82zM650 367
c0 -24 -8.66699 -44.667 -26 -62s-38 -26 -62 -26s-44.667 8.66699 -62 26s-26 38 -26 62c0 24.667 8.5 45.5 25.5 62.5s37.833 25.5 62.5 25.5s45.5 -8.5 62.5 -25.5s25.5 -37.833 25.5 -62.5z" />
    <glyph glyph-name="oslash" unicode="&#xf8;" 
d="M985 936l-135 -152c70.667 -90 106 -194 106 -312c0 -82.667 -19.333 -164.334 -58 -245.001c-40.667 -85.333 -94 -148.666 -160 -189.999c-68.667 -43.333 -145.667 -65 -231 -65c-100 0 -195.333 38 -286 114l-135 -153l-47 43l141 159
c-70.667 87.333 -106 194 -106 320c0 81.333 20 161.333 60 240c41.333 81.333 95.833 143 163.5 185s142.167 63 223.5 63c102 0 197 -37 285 -111l133 147zM704 719c-60.667 105.333 -132.667 158 -216 158c-152 0 -228 -115 -228 -345c0 -82.667 13 -170 39 -262z
M771 402c0 80.667 -13 164.667 -39 252l-403 -450c59.333 -107.333 132 -161 218 -161c149.333 0 224 119.667 224 359z" />
    <glyph glyph-name="ugrave" unicode="&#xf9;" 
d="M636 1045h-35l-294 345h223zM1021 85l-274.001 -113h-45v194c-60 -65.333 -105.667 -109.333 -137 -132c-56 -41.333 -114 -62 -174 -62c-108 0 -178.667 53 -212 159c-14.667 46.667 -22 112.667 -22 198v409c0 67.333 -18.333 110.333 -55 129
c-18.667 8.66699 -52 12.667 -100 12v37h321v-613c0 -138.667 50.667 -208 152 -208c66 0 141.667 43.333 227 130v519c0 54 -11 90.333 -33 109c-19.333 16 -57.333 24.667 -114 26v37h312v-555c0 -144.667 10.667 -226 32 -244c10.667 -9.33301 23.334 -14 38.001 -14
c20.667 0 44 5.66699 70 17z" />
    <glyph glyph-name="uacute" unicode="&#xfa;" 
d="M699 1390l-295 -345h-34l105 345h224zM1021 85l-274.001 -113h-45v194c-60 -65.333 -105.667 -109.333 -137 -132c-56 -41.333 -114 -62 -174 -62c-108 0 -178.667 53 -212 159c-14.667 46.667 -22 112.667 -22 198v409c0 67.333 -18.333 110.333 -55 129
c-18.667 8.66699 -52 12.667 -100 12v37h321v-613c0 -138.667 50.667 -208 152 -208c66 0 141.667 43.333 227 130v519c0 54 -11 90.333 -33 109c-19.333 16 -57.333 24.667 -114 26v37h312v-555c0 -144.667 10.667 -226 32 -244c10.667 -9.33301 23.334 -14 38.001 -14
c20.667 0 44 5.66699 70 17z" />
    <glyph glyph-name="ucircumflex" unicode="&#xfb;" 
d="M797 1054h-31l-273 213l-229 -213h-30l189 331h184zM1021 85l-274.001 -113h-45v194c-60 -65.333 -105.667 -109.333 -137 -132c-56 -41.333 -114 -62 -174 -62c-108 0 -178.667 53 -212 159c-14.667 46.667 -22 112.667 -22 198v409c0 67.333 -18.333 110.333 -55 129
c-18.667 8.66699 -52 12.667 -100 12v37h321v-613c0 -138.667 50.667 -208 152 -208c66 0 141.667 43.333 227 130v519c0 54 -11 90.333 -33 109c-19.333 16 -57.333 24.667 -114 26v37h312v-555c0 -144.667 10.667 -226 32 -244c10.667 -9.33301 23.334 -14 38.001 -14
c20.667 0 44 5.66699 70 17z" />
    <glyph glyph-name="udieresis" unicode="&#xfc;" 
d="M795 1227c0 -30 -10.5 -55.5 -31.5 -76.5s-46.5 -31.5 -76.5 -31.5s-55.667 10.5 -77 31.5s-32 46.5 -32 76.5s10.667 55.667 32 77s47 32 77 32s55.5 -10.667 76.5 -32s31.5 -47 31.5 -77zM443 1227c0 -30 -10.5 -55.5 -31.5 -76.5s-46.5 -31.5 -76.5 -31.5
s-55.667 10.5 -77 31.5s-32 46.5 -32 76.5s10.5 55.667 31.5 77s46.5 32 76.5 32c30.667 0 56.5 -10.5 77.5 -31.5s31.5 -46.833 31.5 -77.5zM1021 85l-274.001 -113h-45v194c-60 -65.333 -105.667 -109.333 -137 -132c-56 -41.333 -114 -62 -174 -62
c-108 0 -178.667 53 -212 159c-14.667 46.667 -22 112.667 -22 198v409c0 67.333 -18.333 110.333 -55 129c-18.667 8.66699 -52 12.667 -100 12v37h321v-613c0 -138.667 50.667 -208 152 -208c66 0 141.667 43.333 227 130v519c0 54 -11 90.333 -33 109
c-19.333 16 -57.333 24.667 -114 26v37h312v-555c0 -144.667 10.667 -226 32 -244c10.667 -9.33301 23.334 -14 38.001 -14c20.667 0 44 5.66699 70 17z" />
    <glyph glyph-name="yacute" unicode="&#xfd;" 
d="M732 1390l-295 -345h-34l105 345h224zM1012 879c-42 -4.66699 -75.666 -25.001 -100.999 -61.001c-4 -6 -15.333 -31.667 -34 -77l-373 -914c-29.333 -71.333 -69 -131.666 -119 -180.999c-59.333 -58.667 -123 -88 -191 -88c-34.667 0 -65 9.66699 -91 29
c-29.333 22 -44 49.667 -44 83c0 62 34.333 93 103 93c21.333 0 51.333 -7.33301 90 -22c26 -10 42.667 -15 50 -15c50 0 95.667 50.333 137 151l65 159l-329 691c-9.33301 20 -25.333 45.667 -48 77c-17.333 24 -31 39.667 -41 47c-14.667 10.667 -39.334 20 -74.001 28v37
h427v-37h-21c-60 0 -90 -22.667 -90 -68c0 -26.667 11 -62.667 33 -108l223 -462l205 506c11.333 28 17 55 17 81c0 21.333 -10.667 36.333 -32 45c-11.333 4 -31.333 6 -60 6v37h298v-37z" />
    <glyph glyph-name="thorn" unicode="&#xfe;" 
d="M954 491c0 -158 -45.332 -288.667 -135.999 -392c-74.667 -84.667 -168.667 -127 -282 -127c-48.667 0 -91.334 7 -128.001 21c-27.333 10.667 -57.333 30.667 -90 60v-279c0 -47.333 1.33301 -77 4 -89c6 -32.667 22 -55.667 48 -69c18.667 -10 53 -15 103 -15v-38h-480
v38l25 -1c35.333 -1.33301 66.5 5.66699 93.5 21s40.5 68.333 40.5 159v1349c0 84.667 -11 134.667 -33 150c-12 8 -28 12 -48 12c-16 0 -36.333 -5 -61 -15l-12 32l282 114h38v-697c85.333 145.333 183 218 293 218c92 0 168.667 -36 230 -108
c75.333 -88 113 -202.667 113 -344zM776.001 397c0 140 -30.666 247.667 -91.999 323c-42.667 52 -93.334 78 -152.001 78c-32 0 -63.667 -8 -95 -24c-24 -12 -63.667 -48 -119 -108v-342c0 -73.333 3 -122 9 -146c11.333 -45.333 37 -81.333 77 -108
c37.333 -25.333 80.333 -38 129 -38c66.667 0 120.667 26 162 78c54 68 81 163.667 81 287z" />
    <glyph glyph-name="ydieresis" unicode="&#xff;" 
d="M833 1228c0 -30 -10.5 -55.5 -31.5 -76.5s-46.5 -31.5 -76.5 -31.5s-55.667 10.5 -77 31.5s-32 46.5 -32 76.5s10.667 55.667 32 77s47 32 77 32s55.5 -10.667 76.5 -32s31.5 -47 31.5 -77zM481 1228c0 -30 -10.5 -55.5 -31.5 -76.5s-46.5 -31.5 -76.5 -31.5
s-55.667 10.5 -77 31.5s-32 46.5 -32 76.5s10.5 55.667 31.5 77s46.5 32 76.5 32c30.667 0 56.5 -10.5 77.5 -31.5s31.5 -46.833 31.5 -77.5zM1012 879c-42 -4.66699 -75.666 -25.001 -100.999 -61.001c-4 -6 -15.333 -31.667 -34 -77l-373 -914
c-29.333 -71.333 -69 -131.666 -119 -180.999c-59.333 -58.667 -123 -88 -191 -88c-34.667 0 -65 9.66699 -91 29c-29.333 22 -44 49.667 -44 83c0 62 34.333 93 103 93c21.333 0 51.333 -7.33301 90 -22c26 -10 42.667 -15 50 -15c50 0 95.667 50.333 137 151l65 159
l-329 691c-9.33301 20 -25.333 45.667 -48 77c-17.333 24 -31 39.667 -41 47c-14.667 10.667 -39.334 20 -74.001 28v37h427v-37h-21c-60 0 -90 -22.667 -90 -68c0 -26.667 11 -62.667 33 -108l223 -462l205 506c11.333 28 17 55 17 81c0 21.333 -10.667 36.333 -32 45
c-11.333 4 -31.333 6 -60 6v37h298v-37z" />
    <glyph glyph-name="Amacron" unicode="&#x100;" horiz-adv-x="1479" 
d="M1053 1508h-638v128h638v-128zM1456 0l-535.001 -0.000976562v37c92 4.66699 138 32.334 138 83.001c0 29.333 -13.333 75.666 -40 138.999l-82 195h-525l-92 -214c-22.667 -52.667 -34 -92 -34 -118c0 -49.333 52.333 -77.666 157 -84.999v-37h-427v37
c56.667 10 93.334 23 110.001 39c33.333 31.333 71 96.333 113 195l477 1116h35l472 -1128c32 -76 59.333 -127 82 -153c36 -42 86.333 -65 151 -69v-37zM908.999 527.999l-230 548l-236 -548h466z" />
    <glyph glyph-name="amacron" unicode="&#x101;" horiz-adv-x="909" 
d="M775 1119h-638v128h638v-128zM905 132c-74.667 -100 -146 -149.998 -214 -149.998c-70.667 0 -106.667 50 -108 150c-94.667 -73.333 -153.667 -115.333 -177 -126c-36 -16.667 -74.333 -25 -115 -25c-66.667 0 -120 23 -160 69c-38.667 44 -58 99.667 -58 167
c0 94.667 57.667 176 173 244c67.333 40 179.666 88.667 336.999 146v36c0 74.667 -9.66699 130 -29 166c-26.667 48.667 -73.667 73 -141 73c-34.667 0 -65.667 -9.66699 -93 -29c-31.333 -21.333 -46.333 -49 -45 -83l2 -58c2 -64 -26.333 -96 -85 -96
c-56 0 -84 32.333 -84 97c0 75.333 39 134.333 117 177c64 35.333 136.667 53 218 53c152.667 0 248.334 -46 287.001 -138c12 -28.667 18 -87.334 18 -176.001v-311c0 -120.667 7.33301 -187.334 22 -200.001c7.33301 -6.66699 16 -10 26 -10c10.667 0 20 2.33301 28 7
c13.333 8 40.333 32.333 81 73v-56zM583 197.002l-0.000976562 349c-99.333 -39.333 -164.333 -67.666 -195 -84.999c-98 -54.667 -147 -120.334 -147 -197.001c0 -43.333 12.667 -81.333 38 -114c27.333 -35.333 62 -53 104 -53c50.667 0 117.334 33.333 200.001 100z" />
    <glyph glyph-name="Abreve" unicode="&#x102;" horiz-adv-x="1479" 
d="M1022 1759c-6 -79.333 -35 -145.333 -87 -198c-54 -54.667 -120.333 -82 -199 -82s-144.667 27.333 -198 82c-52 52.667 -81.333 118.667 -88 198h31c22 -40 47.333 -68.667 76 -86c48.667 -28.667 109 -43 181 -43s132 14 180 42c34 20 57.667 49 71 87h33zM1456 0
l-535.001 -0.000976562v37c92 4.66699 138 32.334 138 83.001c0 29.333 -13.333 75.666 -40 138.999l-82 195h-525l-92 -214c-22.667 -52.667 -34 -92 -34 -118c0 -49.333 52.333 -77.666 157 -84.999v-37h-427v37c56.667 10 93.334 23 110.001 39
c33.333 31.333 71 96.333 113 195l477 1116h35l472 -1128c32 -76 59.333 -127 82 -153c36 -42 86.333 -65 151 -69v-37zM908.999 527.999l-230 548l-236 -548h466z" />
    <glyph glyph-name="abreve" unicode="&#x103;" horiz-adv-x="909" 
d="M739 1358c-6 -79.333 -35 -145.333 -87 -198c-54 -54.667 -120.333 -82 -199 -82s-144.667 27.333 -198 82c-52 52.667 -81.333 118.667 -88 198h31c22 -40 47.333 -68.667 76 -86c48.667 -28.667 109 -43 181 -43s132 14 180 42c34 20 57.667 49 71 87h33zM905 132
c-74.667 -100 -146 -149.998 -214 -149.998c-70.667 0 -106.667 50 -108 150c-94.667 -73.333 -153.667 -115.333 -177 -126c-36 -16.667 -74.333 -25 -115 -25c-66.667 0 -120 23 -160 69c-38.667 44 -58 99.667 -58 167c0 94.667 57.667 176 173 244
c67.333 40 179.666 88.667 336.999 146v36c0 74.667 -9.66699 130 -29 166c-26.667 48.667 -73.667 73 -141 73c-34.667 0 -65.667 -9.66699 -93 -29c-31.333 -21.333 -46.333 -49 -45 -83l2 -58c2 -64 -26.333 -96 -85 -96c-56 0 -84 32.333 -84 97
c0 75.333 39 134.333 117 177c64 35.333 136.667 53 218 53c152.667 0 248.334 -46 287.001 -138c12 -28.667 18 -87.334 18 -176.001v-311c0 -120.667 7.33301 -187.334 22 -200.001c7.33301 -6.66699 16 -10 26 -10c10.667 0 20 2.33301 28 7
c13.333 8 40.333 32.333 81 73v-56zM583 197.002l-0.000976562 349c-99.333 -39.333 -164.333 -67.666 -195 -84.999c-98 -54.667 -147 -120.334 -147 -197.001c0 -43.333 12.667 -81.333 38 -114c27.333 -35.333 62 -53 104 -53c50.667 0 117.334 33.333 200.001 100z" />
    <glyph glyph-name="Aogonek" unicode="&#x104;" horiz-adv-x="1479" 
d="M1456 0l-535.001 -0.000976562v37c92 4.66699 138 32.334 138 83.001c0 29.333 -13.333 75.666 -40 138.999l-82 195h-525l-92 -214c-22.667 -52.667 -34 -92 -34 -118c0 -49.333 52.333 -77.666 157 -84.999v-37h-427v37c56.667 10 93.334 23 110.001 39
c33.333 31.333 71 96.333 113 195l477 1116h35l472 -1128c32 -76 59.333 -127 82 -153c36 -42 86.333 -65 151 -69v-37zM1486 -287.001c-90.667 -50.667 -167.667 -76 -231 -76c-62 0 -114.333 14.667 -157 44c-48 34 -72 80.667 -72 140c0 79.333 26.667 144.333 80 195h52
c-17.333 -34.667 -26 -67.667 -26 -99c0 -56 17.333 -100 52 -132c46 -42 100 -63 162 -63c38 0 77.667 7.66699 119 23zM908.999 527.999l-230 548l-236 -548h466z" />
    <glyph glyph-name="aogonek" unicode="&#x105;" horiz-adv-x="909" 
d="M905 132c-74.667 -100 -146 -149.998 -214 -149.998c-70.667 0 -106.667 50 -108 150c-94.667 -73.333 -153.667 -115.333 -177 -126c-36 -16.667 -74.333 -25 -115 -25c-66.667 0 -120 23 -160 69c-38.667 44 -58 99.667 -58 167c0 94.667 57.667 176 173 244
c67.333 40 179.666 88.667 336.999 146v36c0 74.667 -9.66699 130 -29 166c-26.667 48.667 -73.667 73 -141 73c-34.667 0 -65.667 -9.66699 -93 -29c-31.333 -21.333 -46.333 -49 -45 -83l2 -58c2 -64 -26.333 -96 -85 -96c-56 0 -84 32.333 -84 97
c0 75.333 39 134.333 117 177c64 35.333 136.667 53 218 53c152.667 0 248.334 -46 287.001 -138c12 -28.667 18 -87.334 18 -176.001v-311c0 -120.667 7.33301 -187.334 22 -200.001c7.33301 -6.66699 16 -10 26 -10c10.667 0 20 2.33301 28 7
c13.333 8 40.333 32.333 81 73v-56zM1033 -286.998c-90.667 -50.667 -167.667 -76 -231 -76c-62 0 -114.333 14.667 -157 44c-48 34 -72 80.667 -72 140c0 79.333 26.667 144.333 80 195h52c-17.333 -34.667 -26 -67.667 -26 -99c0 -56 17.333 -100 52 -132
c46 -42 100 -63 162 -63c38 0 77.667 7.66699 119 23zM583 197.002l-0.000976562 349c-99.333 -39.333 -164.333 -67.666 -195 -84.999c-98 -54.667 -147 -120.334 -147 -197.001c0 -43.333 12.667 -81.333 38 -114c27.333 -35.333 62 -53 104 -53
c50.667 0 117.334 33.333 200.001 100z" />
    <glyph glyph-name="Cacute" unicode="&#x106;" horiz-adv-x="1366" 
d="M977 1797l-295 -345h-34l105 345h224zM1295 318c-131.333 -232.667 -318.335 -349.001 -561.002 -349.001c-224.667 0 -398.667 83.333 -522 250c-92 124 -138 270 -138 438c0 132 28.667 253.667 86 365c60.667 116.667 146 207.334 256 272.001c106 62 222 93 348 93
c98.667 0 195.334 -24 290.001 -72c28.667 -14.667 48.667 -22 60 -22c41.333 0 69.333 31.333 84 94h35l31 -461h-31c-78 259.333 -229 389 -453 389c-197.333 0 -335.666 -95.667 -414.999 -287c-42 -100 -63 -224.333 -63 -373c0 -254.667 79 -430 237 -526
c78.667 -48 168.667 -72 270 -72c102 0 190 25.667 264 77c58 40 121.667 108 191 204z" />
    <glyph glyph-name="cacute" unicode="&#x107;" horiz-adv-x="909" 
d="M712 1390l-295 -345h-34l105 345h224zM842 348c-21.333 -105.333 -63.3359 -192.001 -126.003 -260.001c-71.333 -77.333 -157.333 -116 -258 -116c-122 0 -219.333 52 -292 156c-64 92 -96 201.667 -96 329c0 133.333 39 246.333 117 339
c82.667 98 189.334 147 320.001 147c70.667 0 137.334 -18.667 200.001 -56c72.667 -43.333 109 -98 109 -164c0 -56.667 -31 -85 -93 -85c-39.333 0 -69 12.667 -89 38c-9.33301 12 -17 39.667 -23 83c-5.33301 39.333 -19 68.666 -41 87.999s-54 29 -96 29
c-66.667 0 -120.334 -24.667 -161.001 -74c-54 -65.333 -81 -151.666 -81 -258.999c0 -103.333 23.333 -194.666 70 -273.999c55.333 -94 131.333 -141 228 -141c64.667 0 123.334 22.333 176.001 67c36.667 31.333 72.334 87 107.001 167z" />
    <glyph glyph-name="Ccircumflex" unicode="&#x108;" horiz-adv-x="1366" 
d="M997 1491h-31l-273 213l-229 -213h-30l189 331h184zM1295 318c-131.333 -232.667 -318.335 -349.001 -561.002 -349.001c-224.667 0 -398.667 83.333 -522 250c-92 124 -138 270 -138 438c0 132 28.667 253.667 86 365c60.667 116.667 146 207.334 256 272.001
c106 62 222 93 348 93c98.667 0 195.334 -24 290.001 -72c28.667 -14.667 48.667 -22 60 -22c41.333 0 69.333 31.333 84 94h35l31 -461h-31c-78 259.333 -229 389 -453 389c-197.333 0 -335.666 -95.667 -414.999 -287c-42 -100 -63 -224.333 -63 -373
c0 -254.667 79 -430 237 -526c78.667 -48 168.667 -72 270 -72c102 0 190 25.667 264 77c58 40 121.667 108 191 204z" />
    <glyph glyph-name="ccircumflex" unicode="&#x109;" horiz-adv-x="909" 
d="M737 1054h-31l-273 213l-229 -213h-30l189 331h184zM842 348c-21.333 -105.333 -63.3359 -192.001 -126.003 -260.001c-71.333 -77.333 -157.333 -116 -258 -116c-122 0 -219.333 52 -292 156c-64 92 -96 201.667 -96 329c0 133.333 39 246.333 117 339
c82.667 98 189.334 147 320.001 147c70.667 0 137.334 -18.667 200.001 -56c72.667 -43.333 109 -98 109 -164c0 -56.667 -31 -85 -93 -85c-39.333 0 -69 12.667 -89 38c-9.33301 12 -17 39.667 -23 83c-5.33301 39.333 -19 68.666 -41 87.999s-54 29 -96 29
c-66.667 0 -120.334 -24.667 -161.001 -74c-54 -65.333 -81 -151.666 -81 -258.999c0 -103.333 23.333 -194.666 70 -273.999c55.333 -94 131.333 -141 228 -141c64.667 0 123.334 22.333 176.001 67c36.667 31.333 72.334 87 107.001 167z" />
    <glyph glyph-name="Cdot" unicode="&#x10a;" horiz-adv-x="1366" 
d="M832 1600c0 -30 -10.667 -55.667 -32 -77s-47 -32 -77 -32s-55.667 10.667 -77 32s-32 47 -32 77c0 30.667 10.5 56.5 31.5 77.5s46.833 31.5 77.5 31.5c30 0 55.667 -10.667 77 -32s32 -47 32 -77zM1295 318c-131.333 -232.667 -318.335 -349.001 -561.002 -349.001
c-224.667 0 -398.667 83.333 -522 250c-92 124 -138 270 -138 438c0 132 28.667 253.667 86 365c60.667 116.667 146 207.334 256 272.001c106 62 222 93 348 93c98.667 0 195.334 -24 290.001 -72c28.667 -14.667 48.667 -22 60 -22c41.333 0 69.333 31.333 84 94h35
l31 -461h-31c-78 259.333 -229 389 -453 389c-197.333 0 -335.666 -95.667 -414.999 -287c-42 -100 -63 -224.333 -63 -373c0 -254.667 79 -430 237 -526c78.667 -48 168.667 -72 270 -72c102 0 190 25.667 264 77c58 40 121.667 108 191 204z" />
    <glyph glyph-name="cdot" unicode="&#x10b;" horiz-adv-x="909" 
d="M565 1228c0 -30 -10.667 -55.667 -32 -77s-47 -32 -77 -32s-55.667 10.667 -77 32s-32 47 -32 77c0 30.667 10.5 56.5 31.5 77.5s46.833 31.5 77.5 31.5c30 0 55.667 -10.667 77 -32s32 -47 32 -77zM842 348c-21.333 -105.333 -63.3359 -192.001 -126.003 -260.001
c-71.333 -77.333 -157.333 -116 -258 -116c-122 0 -219.333 52 -292 156c-64 92 -96 201.667 -96 329c0 133.333 39 246.333 117 339c82.667 98 189.334 147 320.001 147c70.667 0 137.334 -18.667 200.001 -56c72.667 -43.333 109 -98 109 -164c0 -56.667 -31 -85 -93 -85
c-39.333 0 -69 12.667 -89 38c-9.33301 12 -17 39.667 -23 83c-5.33301 39.333 -19 68.666 -41 87.999s-54 29 -96 29c-66.667 0 -120.334 -24.667 -161.001 -74c-54 -65.333 -81 -151.666 -81 -258.999c0 -103.333 23.333 -194.666 70 -273.999
c55.333 -94 131.333 -141 228 -141c64.667 0 123.334 22.333 176.001 67c36.667 31.333 72.334 87 107.001 167z" />
    <glyph glyph-name="Ccaron" unicode="&#x10c;" horiz-adv-x="1366" 
d="M1039 1793l-189 -331h-184l-190 331h31l273 -212l229 212h30zM1295 318c-131.333 -232.667 -318.335 -349.001 -561.002 -349.001c-224.667 0 -398.667 83.333 -522 250c-92 124 -138 270 -138 438c0 132 28.667 253.667 86 365c60.667 116.667 146 207.334 256 272.001
c106 62 222 93 348 93c98.667 0 195.334 -24 290.001 -72c28.667 -14.667 48.667 -22 60 -22c41.333 0 69.333 31.333 84 94h35l31 -461h-31c-78 259.333 -229 389 -453 389c-197.333 0 -335.666 -95.667 -414.999 -287c-42 -100 -63 -224.333 -63 -373
c0 -254.667 79 -430 237 -526c78.667 -48 168.667 -72 270 -72c102 0 190 25.667 264 77c58 40 121.667 108 191 204z" />
    <glyph glyph-name="ccaron" unicode="&#x10d;" horiz-adv-x="909" 
d="M774 1385l-189 -331h-184l-190 331h31l273 -212l229 212h30zM842 348c-21.333 -105.333 -63.3359 -192.001 -126.003 -260.001c-71.333 -77.333 -157.333 -116 -258 -116c-122 0 -219.333 52 -292 156c-64 92 -96 201.667 -96 329c0 133.333 39 246.333 117 339
c82.667 98 189.334 147 320.001 147c70.667 0 137.334 -18.667 200.001 -56c72.667 -43.333 109 -98 109 -164c0 -56.667 -31 -85 -93 -85c-39.333 0 -69 12.667 -89 38c-9.33301 12 -17 39.667 -23 83c-5.33301 39.333 -19 68.666 -41 87.999s-54 29 -96 29
c-66.667 0 -120.334 -24.667 -161.001 -74c-54 -65.333 -81 -151.666 -81 -258.999c0 -103.333 23.333 -194.666 70 -273.999c55.333 -94 131.333 -141 228 -141c64.667 0 123.334 22.333 176.001 67c36.667 31.333 72.334 87 107.001 167z" />
    <glyph glyph-name="Dcaron" unicode="&#x10e;" horiz-adv-x="1479" 
d="M963 1793l-189 -331h-184l-190 331h31l273 -212l229 212h30zM1401 685c0 -189.333 -57.334 -347 -172.001 -473c-128 -141.333 -324 -212 -588 -212h-606v37h51c57.333 0 98 18.333 122 55c14.667 22 22 71.333 22 148v876c0 84.667 -9.33301 137.667 -28 159
c-26 29.333 -64.667 44 -116 44h-51v37h552c174.667 0 310.334 -16.333 407.001 -49c134 -44.667 237.667 -128 311 -250c64 -107.333 96 -231.333 96 -372zM1173 675c0 175.333 -46.333 318.333 -139 429c-99.333 117.333 -235 176 -407 176
c-60 0 -128.333 -9.66699 -205 -29v-1153c84.667 -18.667 155.667 -28 213 -28c168 0 301.333 60 400 180c92 111.333 138 253 138 425z" />
    <glyph glyph-name="dcaron" unicode="&#x10f;" horiz-adv-x="1324" 
d="M1306 1225c0 -149.333 -86.334 -256.333 -259.001 -321v47c68.667 41.333 115.334 79.333 140.001 114c17.333 24.667 26 55 26 91c0 40.667 -12.333 61 -37 61c-7.33301 0 -17 -2.33301 -29 -7c-17.333 -6.66699 -32.333 -10 -45 -10c-28 0 -51.667 10.667 -71 32
s-29 46 -29 74c0 33.333 10.333 59.333 31 78c28 25.333 61.333 38 100 38c50 0 91.333 -20.167 124 -60.5s49 -85.833 49 -136.5zM1029 85l-272.003 -113.002h-46v131c-83.333 -87.333 -173 -131 -269 -131c-113.333 0 -205.666 47.667 -276.999 143
c-64.667 86.667 -97 188.334 -97 305.001c0 134 39.667 252.667 119 356c86 112 194 168 324 168c80.667 0 147.334 -25.667 200.001 -77v169c0 144.667 -10.333 225.334 -31 242.001c-10.667 8.66699 -24 13 -40 13c-17.333 0 -40.333 -5.33301 -69 -16l-13 35l273 112h45
v-1059c0 -146 10.667 -228 32 -246c10.667 -9.33301 23.334 -14 38.001 -14c18 0 42 5.66699 72 17zM710.996 172.998l-0.00195312 472c-8.66699 100 -47 169.667 -115 209c-33.333 18.667 -65.666 28 -96.999 28c-58.667 0 -111 -26.333 -157 -79
c-60.667 -69.333 -91 -170.666 -91 -303.999c0 -102.667 21.333 -193.334 64 -272.001c52 -96.667 125.333 -145 220 -145c60.667 0 119.334 30.333 176.001 91z" />
    <glyph glyph-name="Dslash" unicode="&#x110;" horiz-adv-x="1479" 
d="M1400 687c0 -224 -72 -396.333 -216 -517c-134 -113.333 -315.333 -170 -544 -170h-605v37h51c57.333 0 98.333 18.667 123 56c14 21.333 21 70.333 21 147v438h-195v74h195v364c0 84.667 -9.33301 137.667 -28 159c-26 29.333 -64.667 44 -116 44h-51v37h552
c176 0 311.333 -16.333 406 -49c128.667 -44 231.667 -127.667 309 -251c65.333 -105.333 98 -228.333 98 -369zM1173 677c0 174.667 -46.334 317.333 -139.001 428c-99.333 118 -234.666 177 -405.999 177c-60 0 -128.333 -9.66699 -205 -29v-501h393v-74h-393v-578
c84.667 -18.667 155.667 -28 213 -28c168 0 301.333 60 400 180c91.333 111.333 137 253 137 425z" />
    <glyph glyph-name="dcroat" unicode="&#x111;" 
d="M999 85l-272.004 -113.001h-46v131c-83.333 -87.333 -173 -131 -269 -131c-113.333 0 -205.666 47.667 -276.999 143c-64.667 86.667 -97 188.334 -97 305.001c0 134 39.667 252.667 119 356c86 112 194 168 324 168c80.667 0 147.334 -25.667 200.001 -77v201h-291v82
h290c-2 46.667 -5 76.667 -9 90c-9.33301 34 -29.666 51 -60.999 51c-17.333 0 -40.333 -5.33301 -69 -16l-13 35l273 112h45v-272h153v-82h-153v-705c0 -146 10.667 -228 32 -246c10.667 -9.33301 23.334 -14 38.001 -14c18 0 42 5.66699 72 17zM680.996 172.999
l-0.00195312 472c-8.66699 100 -47 169.667 -115 209c-33.333 18.667 -65.666 28 -96.999 28c-58.667 0 -111 -26.333 -157 -79c-60.667 -69.333 -91 -170.666 -91 -303.999c0 -102.667 21.333 -193.334 64 -272.001c52 -96.667 125.333 -145 220 -145
c60.667 0 119.334 30.333 176.001 91z" />
    <glyph glyph-name="Emacron" unicode="&#x112;" horiz-adv-x="1251" 
d="M946 1508h-638v128h638v-128zM1204 340l-117.001 -339.999h-1045v37h48c31.333 0 61.666 7.66699 90.999 23c27.333 14 44.333 40.333 51 79c2.66699 14 4 47.333 4 100v881c0 86.667 -8.66699 139.667 -26 159c-23.333 26.667 -63.333 40 -120 40h-48v37h1045l15 -297
h-39c-11.333 58 -22.666 99 -33.999 123c-19.333 40.667 -48.666 69 -87.999 85c-24.667 10 -71.667 15 -141 15h-372v-536h298c77.333 0 129 11.667 155 35c34.667 30.667 54 84.667 58 162h37v-472h-37c-9.33301 66.667 -18.666 109 -27.999 127
c-25.333 50 -87 75 -185 75h-298v-447c0 -46.667 0.333008 -72.334 1 -77.001c4 -31.333 15.667 -52.333 35 -63c13.333 -8 38.666 -12 75.999 -12h230c66 0 114 3.33301 144 10c46.667 10.667 87.667 33.667 123 69c40.667 40.667 83 103 127 187h40z" />
    <glyph glyph-name="emacron" unicode="&#x113;" horiz-adv-x="909" 
d="M775 1119h-638v128h638v-128zM851 334c-15.333 -98.667 -56.3311 -182.333 -122.998 -251c-71.333 -74 -155.333 -111 -252 -111c-124.667 0 -224.334 49 -299.001 147c-67.333 89.333 -101 198.333 -101 327c0 140.667 34.667 256.334 104 347.001
c76.667 100.667 183 151 319 151c108 0 194 -35.667 258 -107c62.667 -68.667 94 -157.334 94 -266.001h-633c-0.666992 -113.333 25.666 -211 78.999 -293c62 -95.333 147 -143 255 -143c124 0 213.333 73 268 219zM642.002 629.001
c-3.33301 58.667 -10.334 100 -21.001 124c-35.333 80 -94.666 120 -177.999 120c-64 0 -117 -25.333 -159 -76c-37.333 -45.333 -59.333 -101.333 -66 -168h424z" />
    <glyph glyph-name="Ebreve" unicode="&#x114;" horiz-adv-x="1251" 
d="M911 1770c-6 -79.333 -35 -145.333 -87 -198c-54 -54.667 -120.333 -82 -199 -82s-144.667 27.333 -198 82c-52 52.667 -81.333 118.667 -88 198h31c22 -40 47.333 -68.667 76 -86c48.667 -28.667 109 -43 181 -43s132 14 180 42c34 20 57.667 49 71 87h33zM1204 340
l-117.001 -339.999h-1045v37h48c31.333 0 61.666 7.66699 90.999 23c27.333 14 44.333 40.333 51 79c2.66699 14 4 47.333 4 100v881c0 86.667 -8.66699 139.667 -26 159c-23.333 26.667 -63.333 40 -120 40h-48v37h1045l15 -297h-39c-11.333 58 -22.666 99 -33.999 123
c-19.333 40.667 -48.666 69 -87.999 85c-24.667 10 -71.667 15 -141 15h-372v-536h298c77.333 0 129 11.667 155 35c34.667 30.667 54 84.667 58 162h37v-472h-37c-9.33301 66.667 -18.666 109 -27.999 127c-25.333 50 -87 75 -185 75h-298v-447
c0 -46.667 0.333008 -72.334 1 -77.001c4 -31.333 15.667 -52.333 35 -63c13.333 -8 38.666 -12 75.999 -12h230c66 0 114 3.33301 144 10c46.667 10.667 87.667 33.667 123 69c40.667 40.667 83 103 127 187h40z" />
    <glyph glyph-name="ebreve" unicode="&#x115;" horiz-adv-x="909" 
d="M748 1358c-6 -79.333 -35 -145.333 -87 -198c-54 -54.667 -120.333 -82 -199 -82s-144.667 27.333 -198 82c-52 52.667 -81.333 118.667 -88 198h31c22 -40 47.333 -68.667 76 -86c48.667 -28.667 109 -43 181 -43s132 14 180 42c34 20 57.667 49 71 87h33zM851 334
c-15.333 -98.667 -56.3311 -182.333 -122.998 -251c-71.333 -74 -155.333 -111 -252 -111c-124.667 0 -224.334 49 -299.001 147c-67.333 89.333 -101 198.333 -101 327c0 140.667 34.667 256.334 104 347.001c76.667 100.667 183 151 319 151c108 0 194 -35.667 258 -107
c62.667 -68.667 94 -157.334 94 -266.001h-633c-0.666992 -113.333 25.666 -211 78.999 -293c62 -95.333 147 -143 255 -143c124 0 213.333 73 268 219zM642.002 629.001c-3.33301 58.667 -10.334 100 -21.001 124c-35.333 80 -94.666 120 -177.999 120
c-64 0 -117 -25.333 -159 -76c-37.333 -45.333 -59.333 -101.333 -66 -168h424z" />
    <glyph glyph-name="Edot" unicode="&#x116;" horiz-adv-x="1251" 
d="M735 1600c0 -30 -10.667 -55.667 -32 -77s-47 -32 -77 -32s-55.667 10.667 -77 32s-32 47 -32 77c0 30.667 10.5 56.5 31.5 77.5s46.833 31.5 77.5 31.5c30 0 55.667 -10.667 77 -32s32 -47 32 -77zM1204 340l-117.001 -339.999h-1045v37h48
c31.333 0 61.666 7.66699 90.999 23c27.333 14 44.333 40.333 51 79c2.66699 14 4 47.333 4 100v881c0 86.667 -8.66699 139.667 -26 159c-23.333 26.667 -63.333 40 -120 40h-48v37h1045l15 -297h-39c-11.333 58 -22.666 99 -33.999 123
c-19.333 40.667 -48.666 69 -87.999 85c-24.667 10 -71.667 15 -141 15h-372v-536h298c77.333 0 129 11.667 155 35c34.667 30.667 54 84.667 58 162h37v-472h-37c-9.33301 66.667 -18.666 109 -27.999 127c-25.333 50 -87 75 -185 75h-298v-447
c0 -46.667 0.333008 -72.334 1 -77.001c4 -31.333 15.667 -52.333 35 -63c13.333 -8 38.666 -12 75.999 -12h230c66 0 114 3.33301 144 10c46.667 10.667 87.667 33.667 123 69c40.667 40.667 83 103 127 187h40z" />
    <glyph glyph-name="edot" unicode="&#x117;" horiz-adv-x="909" 
d="M565 1228c0 -30 -10.667 -55.667 -32 -77s-47 -32 -77 -32s-55.667 10.667 -77 32s-32 47 -32 77c0 30.667 10.5 56.5 31.5 77.5s46.833 31.5 77.5 31.5c30 0 55.667 -10.667 77 -32s32 -47 32 -77zM851 334c-15.333 -98.667 -56.3311 -182.333 -122.998 -251
c-71.333 -74 -155.333 -111 -252 -111c-124.667 0 -224.334 49 -299.001 147c-67.333 89.333 -101 198.333 -101 327c0 140.667 34.667 256.334 104 347.001c76.667 100.667 183 151 319 151c108 0 194 -35.667 258 -107c62.667 -68.667 94 -157.334 94 -266.001h-633
c-0.666992 -113.333 25.666 -211 78.999 -293c62 -95.333 147 -143 255 -143c124 0 213.333 73 268 219zM642.002 629.001c-3.33301 58.667 -10.334 100 -21.001 124c-35.333 80 -94.666 120 -177.999 120c-64 0 -117 -25.333 -159 -76
c-37.333 -45.333 -59.333 -101.333 -66 -168h424z" />
    <glyph glyph-name="Eogonek" unicode="&#x118;" horiz-adv-x="1251" 
d="M1204 340l-117.001 -339.999h-1045v37h48c31.333 0 61.666 7.66699 90.999 23c27.333 14 44.333 40.333 51 79c2.66699 14 4 47.333 4 100v881c0 86.667 -8.66699 139.667 -26 159c-23.333 26.667 -63.333 40 -120 40h-48v37h1045l15 -297h-39
c-11.333 58 -22.666 99 -33.999 123c-19.333 40.667 -48.666 69 -87.999 85c-24.667 10 -71.667 15 -141 15h-372v-536h298c77.333 0 129 11.667 155 35c34.667 30.667 54 84.667 58 162h37v-472h-37c-9.33301 66.667 -18.666 109 -27.999 127c-25.333 50 -87 75 -185 75
h-298v-447c0 -46.667 0.333008 -72.334 1 -77.001c4 -31.333 15.667 -52.333 35 -63c13.333 -8 38.666 -12 75.999 -12h230c66 0 114 3.33301 144 10c46.667 10.667 87.667 33.667 123 69c40.667 40.667 83 103 127 187h40zM1192 -286.999
c-90.667 -50.667 -167.667 -76 -231 -76c-62 0 -114.333 14.667 -157 44c-48 34 -72 80.667 -72 140c0 79.333 26.667 144.333 80 195h52c-17.333 -34.667 -26 -67.667 -26 -99c0 -56 17.333 -100 52 -132c46 -42 100 -63 162 -63c38 0 77.667 7.66699 119 23z" />
    <glyph glyph-name="eogonek" unicode="&#x119;" horiz-adv-x="909" 
d="M851 334c-15.333 -98.667 -56.3311 -182.333 -122.998 -251c-71.333 -74 -155.333 -111 -252 -111c-124.667 0 -224.334 49 -299.001 147c-67.333 89.333 -101 198.333 -101 327c0 140.667 34.667 256.334 104 347.001c76.667 100.667 183 151 319 151
c108 0 194 -35.667 258 -107c62.667 -68.667 94 -157.334 94 -266.001h-633c-0.666992 -113.333 25.666 -211 78.999 -293c62 -95.333 147 -143 255 -143c124 0 213.333 73 268 219zM948.002 -286.999c-90.667 -50.667 -167.667 -76 -231 -76c-62 0 -114.333 14.667 -157 44
c-48 34 -72 80.667 -72 140c0 79.333 26.667 144.333 80 195h52c-17.333 -34.667 -26 -67.667 -26 -99c0 -56 17.333 -100 52 -132c46 -42 100 -63 162 -63c38 0 77.667 7.66699 119 23zM642.002 629.001c-3.33301 58.667 -10.334 100 -21.001 124
c-35.333 80 -94.666 120 -177.999 120c-64 0 -117 -25.333 -159 -76c-37.333 -45.333 -59.333 -101.333 -66 -168h424z" />
    <glyph glyph-name="Ecaron" unicode="&#x11a;" horiz-adv-x="1251" 
d="M904 1793l-189 -331h-184l-190 331h31l273 -212l229 212h30zM1204 340l-117.001 -339.999h-1045v37h48c31.333 0 61.666 7.66699 90.999 23c27.333 14 44.333 40.333 51 79c2.66699 14 4 47.333 4 100v881c0 86.667 -8.66699 139.667 -26 159
c-23.333 26.667 -63.333 40 -120 40h-48v37h1045l15 -297h-39c-11.333 58 -22.666 99 -33.999 123c-19.333 40.667 -48.666 69 -87.999 85c-24.667 10 -71.667 15 -141 15h-372v-536h298c77.333 0 129 11.667 155 35c34.667 30.667 54 84.667 58 162h37v-472h-37
c-9.33301 66.667 -18.666 109 -27.999 127c-25.333 50 -87 75 -185 75h-298v-447c0 -46.667 0.333008 -72.334 1 -77.001c4 -31.333 15.667 -52.333 35 -63c13.333 -8 38.666 -12 75.999 -12h230c66 0 114 3.33301 144 10c46.667 10.667 87.667 33.667 123 69
c40.667 40.667 83 103 127 187h40z" />
    <glyph glyph-name="ecaron" unicode="&#x11b;" horiz-adv-x="909" 
d="M769 1385l-189 -331h-184l-190 331h31l273 -212l229 212h30zM851 334c-15.333 -98.667 -56.3311 -182.333 -122.998 -251c-71.333 -74 -155.333 -111 -252 -111c-124.667 0 -224.334 49 -299.001 147c-67.333 89.333 -101 198.333 -101 327
c0 140.667 34.667 256.334 104 347.001c76.667 100.667 183 151 319 151c108 0 194 -35.667 258 -107c62.667 -68.667 94 -157.334 94 -266.001h-633c-0.666992 -113.333 25.666 -211 78.999 -293c62 -95.333 147 -143 255 -143c124 0 213.333 73 268 219zM642.002 629.001
c-3.33301 58.667 -10.334 100 -21.001 124c-35.333 80 -94.666 120 -177.999 120c-64 0 -117 -25.333 -159 -76c-37.333 -45.333 -59.333 -101.333 -66 -168h424z" />
    <glyph glyph-name="Gcircumflex" unicode="&#x11c;" horiz-adv-x="1479" 
d="M1051 1491h-31l-273 213l-229 -213h-30l189 331h184zM1450 702l-24.998 0.00195312c-52 0 -87.667 -17.333 -107 -52c-13.333 -24 -20 -72.667 -20 -146v-415c-148.667 -80 -307.334 -120 -476.001 -120c-262 0 -461 84 -597 252c-102 126 -153 271.333 -153 436
c0 119.333 28.667 233.666 86 342.999c135.333 258 346 387 632 387c87.333 0 189.333 -21.667 306 -65c38 -14 63 -21 75 -21c29.333 0 45.666 28.667 48.999 86h37l35 -428h-35c-35.333 106.667 -81 187 -137 241c-80.667 78 -184.334 117 -311.001 117
c-173.333 0 -304.666 -68.333 -393.999 -205c-75.333 -114.667 -113 -252 -113 -412c0 -117.333 21.333 -227.333 64 -330c48.667 -117.333 118 -203.333 208 -258c80.667 -50 163.667 -75 249 -75c98.667 0 192 25 280 75v392c0 50.667 -2 85 -6 103
c-8.66699 37.333 -27.667 63.666 -57 78.999c-22 10.667 -60.333 16 -115 16v38h525v-38z" />
    <glyph glyph-name="gcircumflex" unicode="&#x11d;" 
d="M794 1054h-31l-273 213l-229 -213h-30l189 331h184zM987 836c0 -25.333 -5.00098 -40.001 -15.001 -44.001c-5.33301 -2 -22.333 -3 -51 -3h-119c37.333 -48 56 -109.333 56 -184c0 -96 -37 -173 -111 -231c-68 -52.667 -151.333 -79 -250 -79
c-45.333 0 -91.666 6.66699 -138.999 20c-50 -43.333 -75 -81.666 -75 -114.999c0 -29.333 27 -48 81 -56c19.333 -2.66699 66 -5 140 -7c136.667 -3.33301 225.667 -8 267 -14c59.333 -8.66699 107.333 -30 144 -64c40 -38 60 -85.667 60 -143
c0 -75.333 -35.333 -146 -106 -212c-104 -97.333 -239.667 -146 -407 -146c-129.333 0 -238 29 -326 87c-50 32.667 -75 67.334 -75 104.001c0 33.333 27 83.666 81 150.999c5.33301 6.66699 39.333 42.667 102 108c-63.333 38 -95 75 -95 111c0 54 53.333 125.667 160 215
c-116 56.667 -174 149 -174 277c0 98 37 178.667 111 242c70 60 154.667 90 254 90c87.333 0 163 -21.333 227 -64h194c36 0 56 -3.33301 60 -10s6 -17.667 6 -33zM682.999 579.999c0 106 -23 189 -69 249c-34 44 -77.667 66 -131 66c-61.333 0 -107 -26 -137 -78
c-24.667 -42.667 -37 -96.667 -37 -162c0 -105.333 22.667 -187 68 -245c34.667 -44 78.667 -66 132 -66c116 0 174 78.667 174 236zM901.999 -123.001c0 46 -34.334 76.001 -103.001 90.001c-24 4.66699 -75.333 8 -154 10c-149.333 4 -264.666 11.667 -345.999 23
c-63.333 -68.667 -95 -127.334 -95 -176.001c0 -32 19.333 -60 58 -84c66.667 -41.333 163 -62 289 -62c81.333 0 154.333 13 219 39c88 36 132 89.333 132 160z" />
    <glyph glyph-name="Gbreve" unicode="&#x11e;" horiz-adv-x="1479" 
d="M1095 1756c-6 -79.333 -35 -145.333 -87 -198c-54 -54.667 -120.333 -82 -199 -82s-144.667 27.333 -198 82c-52 52.667 -81.333 118.667 -88 198h31c22 -40 47.333 -68.667 76 -86c48.667 -28.667 109 -43 181 -43s132 14 180 42c34 20 57.667 49 71 87h33zM1450 702
l-24.998 0.00195312c-52 0 -87.667 -17.333 -107 -52c-13.333 -24 -20 -72.667 -20 -146v-415c-148.667 -80 -307.334 -120 -476.001 -120c-262 0 -461 84 -597 252c-102 126 -153 271.333 -153 436c0 119.333 28.667 233.666 86 342.999c135.333 258 346 387 632 387
c87.333 0 189.333 -21.667 306 -65c38 -14 63 -21 75 -21c29.333 0 45.666 28.667 48.999 86h37l35 -428h-35c-35.333 106.667 -81 187 -137 241c-80.667 78 -184.334 117 -311.001 117c-173.333 0 -304.666 -68.333 -393.999 -205c-75.333 -114.667 -113 -252 -113 -412
c0 -117.333 21.333 -227.333 64 -330c48.667 -117.333 118 -203.333 208 -258c80.667 -50 163.667 -75 249 -75c98.667 0 192 25 280 75v392c0 50.667 -2 85 -6 103c-8.66699 37.333 -27.667 63.666 -57 78.999c-22 10.667 -60.333 16 -115 16v38h525v-38z" />
    <glyph glyph-name="gbreve" unicode="&#x11f;" 
d="M810 1358c-6 -79.333 -35 -145.333 -87 -198c-54 -54.667 -120.333 -82 -199 -82s-144.667 27.333 -198 82c-52 52.667 -81.333 118.667 -88 198h31c22 -40 47.333 -68.667 76 -86c48.667 -28.667 109 -43 181 -43s132 14 180 42c34 20 57.667 49 71 87h33zM987 836
c0 -25.333 -5.00098 -40.001 -15.001 -44.001c-5.33301 -2 -22.333 -3 -51 -3h-119c37.333 -48 56 -109.333 56 -184c0 -96 -37 -173 -111 -231c-68 -52.667 -151.333 -79 -250 -79c-45.333 0 -91.666 6.66699 -138.999 20c-50 -43.333 -75 -81.666 -75 -114.999
c0 -29.333 27 -48 81 -56c19.333 -2.66699 66 -5 140 -7c136.667 -3.33301 225.667 -8 267 -14c59.333 -8.66699 107.333 -30 144 -64c40 -38 60 -85.667 60 -143c0 -75.333 -35.333 -146 -106 -212c-104 -97.333 -239.667 -146 -407 -146c-129.333 0 -238 29 -326 87
c-50 32.667 -75 67.334 -75 104.001c0 33.333 27 83.666 81 150.999c5.33301 6.66699 39.333 42.667 102 108c-63.333 38 -95 75 -95 111c0 54 53.333 125.667 160 215c-116 56.667 -174 149 -174 277c0 98 37 178.667 111 242c70 60 154.667 90 254 90
c87.333 0 163 -21.333 227 -64h194c36 0 56 -3.33301 60 -10s6 -17.667 6 -33zM682.999 579.999c0 106 -23 189 -69 249c-34 44 -77.667 66 -131 66c-61.333 0 -107 -26 -137 -78c-24.667 -42.667 -37 -96.667 -37 -162c0 -105.333 22.667 -187 68 -245
c34.667 -44 78.667 -66 132 -66c116 0 174 78.667 174 236zM901.999 -123.001c0 46 -34.334 76.001 -103.001 90.001c-24 4.66699 -75.333 8 -154 10c-149.333 4 -264.666 11.667 -345.999 23c-63.333 -68.667 -95 -127.334 -95 -176.001c0 -32 19.333 -60 58 -84
c66.667 -41.333 163 -62 289 -62c81.333 0 154.333 13 219 39c88 36 132 89.333 132 160z" />
    <glyph glyph-name="Gdot" unicode="&#x120;" horiz-adv-x="1479" 
d="M867 1600c0 -30 -10.667 -55.667 -32 -77s-47 -32 -77 -32s-55.667 10.667 -77 32s-32 47 -32 77c0 30.667 10.5 56.5 31.5 77.5s46.833 31.5 77.5 31.5c30 0 55.667 -10.667 77 -32s32 -47 32 -77zM1450 702l-24.998 0.00195312c-52 0 -87.667 -17.333 -107 -52
c-13.333 -24 -20 -72.667 -20 -146v-415c-148.667 -80 -307.334 -120 -476.001 -120c-262 0 -461 84 -597 252c-102 126 -153 271.333 -153 436c0 119.333 28.667 233.666 86 342.999c135.333 258 346 387 632 387c87.333 0 189.333 -21.667 306 -65c38 -14 63 -21 75 -21
c29.333 0 45.666 28.667 48.999 86h37l35 -428h-35c-35.333 106.667 -81 187 -137 241c-80.667 78 -184.334 117 -311.001 117c-173.333 0 -304.666 -68.333 -393.999 -205c-75.333 -114.667 -113 -252 -113 -412c0 -117.333 21.333 -227.333 64 -330
c48.667 -117.333 118 -203.333 208 -258c80.667 -50 163.667 -75 249 -75c98.667 0 192 25 280 75v392c0 50.667 -2 85 -6 103c-8.66699 37.333 -27.667 63.666 -57 78.999c-22 10.667 -60.333 16 -115 16v38h525v-38z" />
    <glyph glyph-name="gdot" unicode="&#x121;" 
d="M622 1228c0 -30 -10.667 -55.667 -32 -77s-47 -32 -77 -32s-55.667 10.667 -77 32s-32 47 -32 77c0 30.667 10.5 56.5 31.5 77.5s46.833 31.5 77.5 31.5c30 0 55.667 -10.667 77 -32s32 -47 32 -77zM987 836c0 -25.333 -5.00098 -40.001 -15.001 -44.001
c-5.33301 -2 -22.333 -3 -51 -3h-119c37.333 -48 56 -109.333 56 -184c0 -96 -37 -173 -111 -231c-68 -52.667 -151.333 -79 -250 -79c-45.333 0 -91.666 6.66699 -138.999 20c-50 -43.333 -75 -81.666 -75 -114.999c0 -29.333 27 -48 81 -56c19.333 -2.66699 66 -5 140 -7
c136.667 -3.33301 225.667 -8 267 -14c59.333 -8.66699 107.333 -30 144 -64c40 -38 60 -85.667 60 -143c0 -75.333 -35.333 -146 -106 -212c-104 -97.333 -239.667 -146 -407 -146c-129.333 0 -238 29 -326 87c-50 32.667 -75 67.334 -75 104.001
c0 33.333 27 83.666 81 150.999c5.33301 6.66699 39.333 42.667 102 108c-63.333 38 -95 75 -95 111c0 54 53.333 125.667 160 215c-116 56.667 -174 149 -174 277c0 98 37 178.667 111 242c70 60 154.667 90 254 90c87.333 0 163 -21.333 227 -64h194
c36 0 56 -3.33301 60 -10s6 -17.667 6 -33zM682.999 579.999c0 106 -23 189 -69 249c-34 44 -77.667 66 -131 66c-61.333 0 -107 -26 -137 -78c-24.667 -42.667 -37 -96.667 -37 -162c0 -105.333 22.667 -187 68 -245c34.667 -44 78.667 -66 132 -66
c116 0 174 78.667 174 236zM901.999 -123.001c0 46 -34.334 76.001 -103.001 90.001c-24 4.66699 -75.333 8 -154 10c-149.333 4 -264.666 11.667 -345.999 23c-63.333 -68.667 -95 -127.334 -95 -176.001c0 -32 19.333 -60 58 -84c66.667 -41.333 163 -62 289 -62
c81.333 0 154.333 13 219 39c88 36 132 89.333 132 160z" />
    <glyph glyph-name="Gcedilla" unicode="&#x122;" horiz-adv-x="1479" 
d="M1450 702l-24.998 0.00195312c-52 0 -87.667 -17.333 -107 -52c-13.333 -24 -20 -72.667 -20 -146v-415c-148.667 -80 -307.334 -120 -476.001 -120c-262 0 -461 84 -597 252c-102 126 -153 271.333 -153 436c0 119.333 28.667 233.666 86 342.999
c135.333 258 346 387 632 387c87.333 0 189.333 -21.667 306 -65c38 -14 63 -21 75 -21c29.333 0 45.666 28.667 48.999 86h37l35 -428h-35c-35.333 106.667 -81 187 -137 241c-80.667 78 -184.334 117 -311.001 117c-173.333 0 -304.666 -68.333 -393.999 -205
c-75.333 -114.667 -113 -252 -113 -412c0 -117.333 21.333 -227.333 64 -330c48.667 -117.333 118 -203.333 208 -258c80.667 -50 163.667 -75 249 -75c98.667 0 192 25 280 75v392c0 50.667 -2 85 -6 103c-8.66699 37.333 -27.667 63.666 -57 78.999
c-22 10.667 -60.333 16 -115 16v38h525v-38zM894.002 -208.998c0 -54.667 -22.666 -99.333 -67.999 -134c-42 -31.333 -91 -47 -147 -47c-24.667 0 -56 2.33301 -94 7v43c18.667 -2.66699 34.667 -4 48 -4c31.333 0 59.333 10.5 84 31.5s37 47.167 37 78.5
c0 21.333 -8 39 -24 53s-34.667 21 -56 21c-6.66699 0 -15.334 -0.666992 -26.001 -2l111 178h60l-50 -79c83.333 -21.333 125 -70 125 -146z" />
    <glyph glyph-name="gcedilla" unicode="&#x123;" 
d="M627 1215c0 -28.667 -10.166 -51.834 -30.499 -69.501s-45.166 -26.5 -74.499 -26.5c-42 0 -75.333 16.667 -100 50c-22 30.667 -33 67.667 -33 111c0 138 79.333 209.333 238 214v-41c-42.667 0 -81.334 -12.667 -116.001 -38c-38.667 -27.333 -58 -61.666 -58 -102.999
c0 -22 7.33301 -33 22 -33c5.33301 0 13.666 3 24.999 9c17.333 9.33301 31.333 14 42 14c56.667 0 85 -29 85 -87zM987.001 836c0 -25.333 -5.00098 -40.001 -15.001 -44.001c-5.33301 -2 -22.333 -3 -51 -3h-119c37.333 -48 56 -109.333 56 -184c0 -96 -37 -173 -111 -231
c-68 -52.667 -151.333 -79 -250 -79c-45.333 0 -91.666 6.66699 -138.999 20c-50 -43.333 -75 -81.666 -75 -114.999c0 -29.333 27 -48 81 -56c19.333 -2.66699 66 -5 140 -7c136.667 -3.33301 225.667 -8 267 -14c59.333 -8.66699 107.333 -30 144 -64
c40 -38 60 -85.667 60 -143c0 -75.333 -35.333 -146 -106 -212c-104 -97.333 -239.667 -146 -407 -146c-129.333 0 -238 29 -326 87c-50 32.667 -75 67.334 -75 104.001c0 33.333 27 83.666 81 150.999c5.33301 6.66699 39.333 42.667 102 108c-63.333 38 -95 75 -95 111
c0 54 53.333 125.667 160 215c-116 56.667 -174 149 -174 277c0 98 37 178.667 111 242c70 60 154.667 90 254 90c87.333 0 163 -21.333 227 -64h194c36 0 56 -3.33301 60 -10s6 -17.667 6 -33zM683 579.999c0 106 -23 189 -69 249c-34 44 -77.667 66 -131 66
c-61.333 0 -107 -26 -137 -78c-24.667 -42.667 -37 -96.667 -37 -162c0 -105.333 22.667 -187 68 -245c34.667 -44 78.667 -66 132 -66c116 0 174 78.667 174 236zM902 -123.001c0 46 -34.334 76.001 -103.001 90.001c-24 4.66699 -75.333 8 -154 10
c-149.333 4 -264.666 11.667 -345.999 23c-63.333 -68.667 -95 -127.334 -95 -176.001c0 -32 19.333 -60 58 -84c66.667 -41.333 163 -62 289 -62c81.333 0 154.333 13 219 39c88 36 132 89.333 132 160z" />
    <glyph glyph-name="Hcircumflex" unicode="&#x124;" horiz-adv-x="1479" 
d="M1022 1491h-31l-273 213l-229 -213h-30l189 331h184zM1437 0l-580.001 0.000976562v37h48c55.333 0 95.666 16.333 120.999 49c16.667 21.333 25 72.666 25 153.999v413h-630v-413c0 -68.667 4.33301 -114 13 -136c18 -44.667 62.333 -67 133 -67h49v-37h-581v37h48
c56 0 96.667 16.333 122 49c16 20.667 24 72 24 154v875c0 69.333 -4.33301 115 -13 137c-6.66699 17.333 -20.334 31.666 -41.001 42.999c-28.667 16 -59.334 24 -92.001 24h-48v37h581v-37h-49c-31.333 0 -61.166 -7.33301 -89.499 -22s-45.833 -41.667 -52.5 -81
c-2.66699 -15.333 -4 -49 -4 -101v-388h630v388c0 69.333 -4.33301 115 -13 137c-18 44.667 -62.333 67 -133 67h-48v37h580v-37h-48c-31.333 0 -61.166 -7.33301 -89.499 -22s-45.833 -41.667 -52.5 -81c-2.66699 -14 -4 -47.667 -4 -101v-875
c0 -68.667 4.33301 -114 13 -136c6.66699 -17.333 20.334 -31.666 41.001 -42.999c28.667 -16 59.334 -24 92.001 -24h48v-37z" />
    <glyph glyph-name="hcircumflex" unicode="&#x125;" 
d="M794 1491h-31l-273 213l-229 -213h-30l189 331h184zM1011 0l-450.002 -0.00195312v36h21c70 0 111.333 25.667 124 77c2 8 3 39.333 3 94v324c0 74 -1.33301 121.667 -4 143c-8.66699 60.667 -29 102.334 -61 125.001c-22.667 15.333 -50 23 -82 23
c-70.667 0 -147 -43.667 -229 -131v-484c0 -48.667 1 -78 3 -88c5.33301 -31.333 21 -53.666 47 -66.999c18.667 -10.667 51.334 -16 98.001 -16v-36h-454v36c40 0 72 6.33301 96 19c29.333 15.333 44 66 44 152v829c0 144 -10 224.667 -30 242
c-10.667 8.66699 -24.667 13 -42 13c-14 0 -36.667 -5.33301 -68 -16l-14 35l274 112h46v-670c56 61.333 101 104.333 135 129c56 41.333 113 62 171 62c110 0 182.333 -59.333 217 -178c12.667 -42.667 19 -120.667 19 -234v-324c0 -57.333 4.66699 -97 14 -119
c14.667 -34.667 55.334 -52 122.001 -52v-36z" />
    <glyph glyph-name="Hbar" unicode="&#x126;" horiz-adv-x="1479" 
d="M1437 0l-579.999 -0.000976562v37h48c74.667 0 120 25.667 136 77c6.66699 20.667 10 62.667 10 126v413h-630v-413c0 -55.333 1.66699 -90.333 5 -105c7.33301 -37.333 27 -63.666 59 -78.999c24 -12.667 51.333 -19 82 -19h49v-37h-581v37h48
c75.333 0 121 25.667 137 77c6 20.667 9 62.667 9 126v828h-185v82h185c-2 45.333 -4.66699 74 -8 86c-7.33301 26.667 -24.666 47.667 -51.999 63c-24.667 13.333 -53.334 20 -86.001 20h-48v37h581v-37h-49c-69.333 0 -113.333 -21.667 -132 -65
c-6.66699 -15.333 -11 -50 -13 -104h628c-2 45.333 -4.66699 74 -8 86c-7.33301 27.333 -24.666 48.333 -51.999 63c-24.667 13.333 -53 20 -85 20h-48v37h580v-37h-48c-69.333 0 -113.333 -21.667 -132 -65c-6.66699 -15.333 -11.334 -50 -14.001 -104h185v-82h-185v-828
c0 -55.333 1.66699 -90.333 5 -105c7.33301 -36.667 26.666 -63 57.999 -79c24 -12.667 51.667 -19 83 -19h48v-37zM1051 716.999v351h-630v-351h630z" />
    <glyph glyph-name="hbar" unicode="&#x127;" 
d="M1012 0h-450.998v36h21c68 0 108 21.333 120 64c5.33301 18 8 53.667 8 107v324c0 92.667 -4.66699 155.334 -14 188.001c-20 68.667 -64 103 -132 103c-71.333 0 -148.333 -43.667 -231 -131v-484c0 -52 0.666992 -81 2 -87c3.33301 -18.667 17.333 -40.334 42 -65.001
c12 -12.667 47 -19 105 -19v-36h-454v36c60.667 0 100.334 13.667 119.001 41c14 21.333 21 64.666 21 129.999l-1 861h-154v82h153c-0.666992 44 -3.33398 74 -8.00098 90c-10 34 -30.667 51 -62 51c-14.667 0 -37.334 -5.33301 -68.001 -16l-15 35l274 112h46v-272h290
v-82h-290v-316c54.667 60.667 99.667 104 135 130c56 40.667 113.333 61 172 61c111.333 0 182.666 -56.333 213.999 -169c14 -51.333 21 -132.333 21 -243v-324c0 -59.333 5 -99.666 15 -120.999c16 -33.333 49.667 -50 101 -50h21v-36z" />
    <glyph glyph-name="Itilde" unicode="&#x128;" horiz-adv-x="682" 
d="M661 1750c1.33301 -112 -30.6689 -189.333 -96.002 -232c-31.333 -20.667 -62.666 -31 -93.999 -31c-52.667 0 -118 26.667 -196 80c-59.333 40.667 -102 61 -128 61c-27.333 0 -49 -12 -65 -36c-7.33301 -11.333 -16.666 -45 -27.999 -101h-32
c5.33301 172.667 68 259 188 259c27.333 0 52.333 -4.33301 75 -13c16 -6 58.667 -30.333 128 -73c57.333 -35.333 98 -53 122 -53c48 0 79.667 46.333 95 139h31zM631.998 0h-580.999v37h48c56 0 96.667 16.333 122 49c16 20.667 24 72 24 154v876
c0 68.667 -4.33301 114 -13 136c-6.66699 17.333 -20.334 31.666 -41.001 42.999c-28.667 16 -59.334 24 -92.001 24h-48v37h581v-37h-49c-55.333 0 -95.666 -16.333 -120.999 -49c-16.667 -21.333 -25 -72.666 -25 -153.999v-876c0 -68.667 4.33301 -114 13 -136
c18 -44.667 62.333 -67 133 -67h49v-37z" />
    <glyph glyph-name="itilde" unicode="&#x129;" horiz-adv-x="569" 
d="M605 1356c1.33301 -112 -30.6689 -189.333 -96.002 -232c-31.333 -20.667 -62.666 -31 -93.999 -31c-52.667 0 -118 26.667 -196 80c-59.333 40.667 -102 61 -128 61c-27.333 0 -49 -12 -65 -36c-7.33301 -11.333 -16.666 -45 -27.999 -101h-32
c5.33301 172.667 68 259 188 259c27.333 0 52.333 -4.33301 75 -13c16 -6 58.667 -30.333 128 -73c57.333 -35.333 98 -53 122 -53c48 0 79.667 46.333 95 139h31zM519.998 0l-444.998 -0.000976562v36c67.333 0 109.666 18.667 126.999 56c8.66699 20 13 58.333 13 115v353
c0 100 -3 164.333 -9 193c-8 38 -29 57 -63 57c-18.667 0 -41.334 -5 -68.001 -15l-14 36l276 112h43v-736c0 -85.333 17 -137.666 51 -156.999c16 -9.33301 45.667 -14 89 -14v-36z" />
    <glyph glyph-name="Imacron" unicode="&#x12a;" horiz-adv-x="682" 
d="M661 1508h-638v128h638v-128zM632 0h-580.999v37h48c56 0 96.667 16.333 122 49c16 20.667 24 72 24 154v876c0 68.667 -4.33301 114 -13 136c-6.66699 17.333 -20.334 31.666 -41.001 42.999c-28.667 16 -59.334 24 -92.001 24h-48v37h581v-37h-49
c-55.333 0 -95.666 -16.333 -120.999 -49c-16.667 -21.333 -25 -72.666 -25 -153.999v-876c0 -68.667 4.33301 -114 13 -136c18 -44.667 62.333 -67 133 -67h49v-37z" />
    <glyph glyph-name="imacron" unicode="&#x12b;" horiz-adv-x="569" 
d="M595 1119h-638v128h638v-128zM520 0l-444.998 -0.000976562v36c67.333 0 109.666 18.667 126.999 56c8.66699 20 13 58.333 13 115v353c0 100 -3 164.333 -9 193c-8 38 -29 57 -63 57c-18.667 0 -41.334 -5 -68.001 -15l-14 36l276 112h43v-736
c0 -85.333 17 -137.666 51 -156.999c16 -9.33301 45.667 -14 89 -14v-36z" />
    <glyph glyph-name="Ibreve" unicode="&#x12c;" horiz-adv-x="682" 
d="M626 1770c-6 -79.333 -35 -145.333 -87 -198c-54 -54.667 -120.333 -82 -199 -82s-144.667 27.333 -198 82c-52 52.667 -81.333 118.667 -88 198h31c22 -40 47.333 -68.667 76 -86c48.667 -28.667 109 -43 181 -43s132 14 180 42c34 20 57.667 49 71 87h33zM632 0
h-580.999v37h48c56 0 96.667 16.333 122 49c16 20.667 24 72 24 154v876c0 68.667 -4.33301 114 -13 136c-6.66699 17.333 -20.334 31.666 -41.001 42.999c-28.667 16 -59.334 24 -92.001 24h-48v37h581v-37h-49c-55.333 0 -95.666 -16.333 -120.999 -49
c-16.667 -21.333 -25 -72.666 -25 -153.999v-876c0 -68.667 4.33301 -114 13 -136c18 -44.667 62.333 -67 133 -67h49v-37z" />
    <glyph glyph-name="ibreve" unicode="&#x12d;" horiz-adv-x="569" 
d="M570 1358c-6 -79.333 -35 -145.333 -87 -198c-54 -54.667 -120.333 -82 -199 -82s-144.667 27.333 -198 82c-52 52.667 -81.333 118.667 -88 198h31c22 -40 47.333 -68.667 76 -86c48.667 -28.667 109 -43 181 -43s132 14 180 42c34 20 57.667 49 71 87h33zM520 0
l-444.998 -0.000976562v36c67.333 0 109.666 18.667 126.999 56c8.66699 20 13 58.333 13 115v353c0 100 -3 164.333 -9 193c-8 38 -29 57 -63 57c-18.667 0 -41.334 -5 -68.001 -15l-14 36l276 112h43v-736c0 -85.333 17 -137.666 51 -156.999
c16 -9.33301 45.667 -14 89 -14v-36z" />
    <glyph glyph-name="Iogonek" unicode="&#x12e;" horiz-adv-x="682" 
d="M632 0h-580.999v37h48c56 0 96.667 16.333 122 49c16 20.667 24 72 24 154v876c0 68.667 -4.33301 114 -13 136c-6.66699 17.333 -20.334 31.666 -41.001 42.999c-28.667 16 -59.334 24 -92.001 24h-48v37h581v-37h-49c-55.333 0 -95.666 -16.333 -120.999 -49
c-16.667 -21.333 -25 -72.666 -25 -153.999v-876c0 -68.667 4.33301 -114 13 -136c18 -44.667 62.333 -67 133 -67h49v-37zM681.001 -287c-90.667 -50.667 -167.667 -76 -231 -76c-62 0 -114.333 14.667 -157 44c-48 34 -72 80.667 -72 140c0 79.333 26.667 144.333 80 195
h52c-17.333 -34.667 -26 -67.667 -26 -99c0 -56 17.333 -100 52 -132c46 -42 100 -63 162 -63c38 0 77.667 7.66699 119 23z" />
    <glyph glyph-name="iogonek" unicode="&#x12f;" horiz-adv-x="569" 
d="M398 1321c0 -28 -9.83398 -52 -29.501 -72s-43.5 -30 -71.5 -30s-52 10 -72 30s-30 44 -30 72c0 28.667 9.83301 52.667 29.5 72s43.834 29 72.501 29c28 0 51.833 -9.83301 71.5 -29.5s29.5 -43.5 29.5 -71.5zM518.999 0h-444.998v36
c67.333 0 109.666 18.667 126.999 56c8.66699 20 13 58.333 13 115v353c0 100 -3 164.333 -9 193c-8 38 -29 57 -63 57c-18.667 0 -41.334 -5 -68.001 -15l-14 36l276 112h44v-736c0 -86 16.667 -138.333 50 -157c16 -9.33301 45.667 -14 89 -14v-36zM650.001 -287
c-90.667 -50.667 -167.667 -76 -231 -76c-62 0 -114.333 14.667 -157 44c-48 34 -72 80.667 -72 140c0 79.333 26.667 144.333 80 195h52c-17.333 -34.667 -26 -67.667 -26 -99c0 -56 17.333 -100 52 -132c46 -42 100 -63 162 -63c38 0 77.667 7.66699 119 23z" />
    <glyph glyph-name="Idotaccent" unicode="&#x130;" horiz-adv-x="682" 
d="M450 1600c0 -30 -10.667 -55.667 -32 -77s-47 -32 -77 -32s-55.667 10.667 -77 32s-32 47 -32 77c0 30.667 10.5 56.5 31.5 77.5s46.833 31.5 77.5 31.5c30 0 55.667 -10.667 77 -32s32 -47 32 -77zM632 0h-580.999v37h48c56 0 96.667 16.333 122 49
c16 20.667 24 72 24 154v876c0 68.667 -4.33301 114 -13 136c-6.66699 17.333 -20.334 31.666 -41.001 42.999c-28.667 16 -59.334 24 -92.001 24h-48v37h581v-37h-49c-55.333 0 -95.666 -16.333 -120.999 -49c-16.667 -21.333 -25 -72.666 -25 -153.999v-876
c0 -68.667 4.33301 -114 13 -136c18 -44.667 62.333 -67 133 -67h49v-37z" />
    <glyph glyph-name="dotlessi" unicode="&#x131;" horiz-adv-x="569" 
d="M519 0l-444.998 -0.000976562v36c67.333 0 109.666 18.667 126.999 56c8.66699 20 13 58.333 13 115v353c0 100 -3 164.333 -9 193c-8 38 -29 57 -63 57c-18.667 0 -41.334 -5 -68.001 -15l-14 36l276 112h43v-736c0 -85.333 17 -137.666 51 -156.999
c16 -9.33301 45.667 -14 89 -14v-36z" />
    <glyph glyph-name="IJ" unicode="&#x132;" horiz-adv-x="1451" 
d="M1445 1319l-49.001 -0.000976562c-55.333 0 -95.666 -16.333 -120.999 -49c-16 -20.667 -24 -72 -24 -154v-663c0 -190 -49.667 -327.667 -149 -413c-54.667 -47.333 -120.667 -71 -198 -71c-51.333 0 -96.333 12.333 -135 37c-44.667 28.667 -67 67.334 -67 116.001
c0 70 34 105 102 105c30.667 0 57 -15.333 79 -46c10 -14 24.333 -43 43 -87c15.333 -36 35 -54 59 -54c49.333 0 74 50 74 150v926c0 68.667 -4.33301 114 -13 136c-18 44.667 -62.333 67 -133 67h-49v37h581v-37zM631.999 -0.000976562h-580.999v37h48
c56 0 96.667 16.333 122 49c16 20.667 24 72 24 154v876c0 68.667 -4.33301 114 -13 136c-6.66699 17.333 -20.334 31.666 -41.001 42.999c-28.667 16 -59.334 24 -92.001 24h-48v37h581v-37h-49c-55.333 0 -95.666 -16.333 -120.999 -49
c-16.667 -21.333 -25 -72.666 -25 -153.999v-876c0 -68.667 4.33301 -114 13 -136c18 -44.667 62.333 -67 133 -67h49v-37z" />
    <glyph glyph-name="ij" unicode="&#x133;" horiz-adv-x="1131" 
d="M967 1320c0 -28.667 -10.001 -52.833 -30.001 -72.5s-44.333 -29.5 -73 -29.5c-28 0 -52 10 -72 30s-30 44 -30 72c0 28.667 9.83301 53 29.5 73s43.834 30 72.501 30s53 -10 73 -30s30 -44.333 30 -73zM397.999 1321c0 -28 -9.83398 -52 -29.501 -72
s-43.5 -30 -71.5 -30s-52 10 -72 30s-30 44 -30 72c0 28.667 9.83301 52.667 29.5 72s43.834 29 72.501 29c28 0 51.833 -9.83301 71.5 -29.5s29.5 -43.5 29.5 -71.5zM949.998 21.001c0 -132.667 -25.999 -239.334 -77.999 -320.001
c-62.667 -95.333 -156.667 -143 -282 -143c-40.667 0 -77.667 7 -111 21c-45.333 18 -68 44.667 -68 80c0 22.667 8 42.5 24 59.5s35.333 25.5 58 25.5c16 0 33.667 -4.33301 53 -13c10 -4.66699 33.667 -23 71 -55c30 -26 55.333 -39 76 -39c40.667 0 67.667 26.667 81 80
c7.33301 29.333 11 92.333 11 189v652c0 100.667 -3 165.334 -9 194.001c-8 38.667 -29 58 -63 58c-18.667 0 -41.334 -5 -68.001 -15l-14 36l276 112h43v-922zM518.999 0.000976562h-444.998v36c67.333 0 109.666 18.667 126.999 56c8.66699 20 13 58.333 13 115v353
c0 100 -3 164.333 -9 193c-8 38 -29 57 -63 57c-18.667 0 -41.334 -5 -68.001 -15l-14 36l276 112h44v-736c0 -86 16.667 -138.333 50 -157c16 -9.33301 45.667 -14 89 -14v-36z" />
    <glyph glyph-name="Jcircumflex" unicode="&#x134;" horiz-adv-x="797" 
d="M767 1491h-31l-273 213l-229 -213h-30l189 331h184zM785 1319l-49.001 -0.000976562c-55.333 0 -95.666 -16.333 -120.999 -49c-16 -20.667 -24 -72 -24 -154v-663c0 -190 -49.667 -327.667 -149 -413c-54.667 -47.333 -120.667 -71 -198 -71
c-51.333 0 -96.333 12.333 -135 37c-44.667 28.667 -67 67.334 -67 116.001c0 70 34 105 102 105c30.667 0 57 -15.333 79 -46c10 -14 24.333 -43 43 -87c15.333 -36 35 -54 59 -54c49.333 0 74 50 74 150v926c0 68.667 -4.33301 114 -13 136c-18 44.667 -62.333 67 -133 67
h-49v37h581v-37z" />
    <glyph glyph-name="jcircumflex" unicode="&#x135;" horiz-adv-x="569" 
d="M565 1054h-31l-273 213l-229 -213h-30l189 331h184zM382 21c0 -132.667 -26.333 -239.333 -79 -320c-62 -95.333 -155.667 -143 -281 -143c-40.667 0 -78 7 -112 21c-44.667 18 -67 44.667 -67 80c0 22.667 8 42.5 24 59.5s35.333 25.5 58 25.5
c31.333 0 69.333 -19.667 114 -59c36 -32 64.667 -48 86 -48c45.333 0 74 36.667 86 110c4 24 6 77 6 159v652v149c-8 68.667 -32.333 103 -73 103c-18 0 -40.333 -5 -67 -15l-14 36l276 112h43v-922z" />
    <glyph glyph-name="Kcedilla" unicode="&#x136;" horiz-adv-x="1479" 
d="M1496 0h-644.999v37c72.667 0 109 21 109 63c0 28.667 -24 66.667 -72 114l-468 463v-437c0 -68.667 4.33301 -114 13 -136c18 -44.667 62.333 -67 133 -67h46v-37h-578v37h48c56 0 96.667 16.333 122 49c16 20.667 24 72 24 154v876c0 69.333 -4.33301 115 -13 137
c-6.66699 16 -20.334 30 -41.001 42c-28.667 16 -59.334 24 -92.001 24h-48v37h578v-37h-46c-31.333 0 -61.166 -7.33301 -89.499 -22s-45.833 -41.667 -52.5 -81c-2.66699 -14.667 -4 -48 -4 -100v-415l137 127c199.333 182.667 319 303.667 359 363c18 26.667 27 50 27 70
c0 38.667 -30.667 58 -92 58h-31v37h498v-37c-54 -1.33301 -110 -19.333 -168 -54c-34 -21.333 -76.667 -55.333 -128 -102l-203 -205l-207 -206l500 -497c138 -137.333 266 -210 384 -218v-37zM895.001 -209c0 -58.667 -24.667 -104.668 -74 -138.001
c-42.667 -29.333 -95 -44 -157 -44c-24 0 -50 2.66699 -78 8v43c16 -2.66699 30 -4 42 -4c34 0 63 9.66699 87 29c26.667 20.667 40 47.667 40 81c0 49.333 -27.667 74 -83 74c-6 0 -13.667 -0.666992 -23 -2v97c28.667 3.33301 54 5 76 5c48.667 0 88.667 -12.333 120 -37
c33.333 -27.333 50 -64.666 50 -111.999z" />
    <glyph glyph-name="kcedilla" unicode="&#x137;" 
d="M1036 0h-445v36c43.333 1.33301 65 15 65 41c0 15.333 -13.333 40 -40 74l-281 359v-304c0 -88 16 -140.333 48 -157c15.333 -8 48.666 -12.333 99.999 -13v-36h-466v36c75.333 0 121 17 137 51c10 21.333 15 59.333 15 114v834c0 145.333 -10 226.666 -30 243.999
c-10.667 8.66699 -24.667 13 -42 13c-14 0 -35 -5.66699 -63 -17l-17 35l272 112h46v-912l233 213c48.667 44.667 77.334 73.334 86.001 86.001c5.33301 8 8 16 8 24c0 31.333 -23.667 48.333 -71 51v32h398v-32c-96 -2.66699 -181.333 -38.334 -256 -107.001l-235 -217
l235 -297c62.667 -79.333 106.667 -131.333 132 -156c32 -31.333 60 -51.666 84 -60.999c16.667 -6.66699 45.667 -10 87 -10v-36zM667 -209c0 -58.667 -24.667 -104.668 -74 -138.001c-42.667 -29.333 -95 -44 -157 -44c-24 0 -50 2.66699 -78 8v43
c16 -2.66699 30 -4 42 -4c34 0 63 9.66699 87 29c26.667 20.667 40 47.667 40 81c0 49.333 -27.667 74 -83 74c-6 0 -13.667 -0.666992 -23 -2v97c28.667 3.33301 54 5 76 5c48.667 0 88.667 -12.333 120 -37c33.333 -27.333 50 -64.666 50 -111.999z" />
    <glyph glyph-name="kgreenlandic" unicode="&#x138;" 
d="M1036 0l-444.999 -0.00390625v37c43.333 0.666992 65 14.334 65 41.001c0 14.667 -13.333 39 -40 73l-281 359v-304c0 -70 7.33301 -114.333 22 -133c17.333 -24 59.333 -36 126 -36v-37h-466v37c64 0 106 11.333 126 34c17.333 20.667 26 64 26 130v511
c0 67.333 -8 111 -24 131c-18.667 23.333 -60 35 -124 35v38h466v-38c-64 0 -105.667 -11.333 -125 -34c-18 -20 -27 -63 -27 -129v-205l229 209c62 56.667 93 93 93 109c0 30.667 -23.667 47.334 -71 50.001v38h398v-38c-94 -1.33301 -179 -36.666 -255 -105.999l-231 -212
l235 -297c67.333 -85.333 106.666 -133.666 117.999 -144.999c54 -54 107.333 -81 160 -81h25v-37z" />
    <glyph glyph-name="Lacute" unicode="&#x139;" horiz-adv-x="1251" 
d="M759 1797l-295 -345h-34l105 345h224zM1207 368l-116.002 -367.998h-1050v37h51c57.333 0 98.333 18.667 123 56c14 21.333 21 70.666 21 147.999v875c0 84.667 -9.33301 137.667 -28 159c-26 29.333 -64.667 44 -116 44h-51v37h614v-37
c-116 1.33301 -186.333 -23 -211 -73c-10.667 -21.333 -16 -72.333 -16 -153v-852c0 -56 5.33301 -94 16 -114c12 -22.667 41.667 -36.334 89 -41.001h104h99c84.667 0 145.334 4.33301 182.001 13c59.333 14 110 44.667 152 92c34.667 38.667 69.334 100 104.001 184z" />
    <glyph glyph-name="lacute" unicode="&#x13a;" horiz-adv-x="569" 
d="M514 1797l-295 -345h-34l105 345h224zM527 0l-448.999 -0.000976562v36c65.333 0 106 18.667 122 56c8.66699 20 13 58.333 13 115v832c0 142.667 -9.66699 222.334 -29 239.001c-10.667 8.66699 -24 13 -40 13c-17.333 0 -39.333 -5.33301 -66 -16l-17 35l273 112h45
v-1215c0 -85.333 17 -137.333 51 -156c17.333 -10 49.666 -15 96.999 -15v-36z" />
    <glyph glyph-name="Lcedilla" unicode="&#x13b;" horiz-adv-x="1251" 
d="M1207 368l-116.002 -367.998h-1050v37h51c57.333 0 98.333 18.667 123 56c14 21.333 21 70.666 21 147.999v875c0 84.667 -9.33301 137.667 -28 159c-26 29.333 -64.667 44 -116 44h-51v37h614v-37c-116 1.33301 -186.333 -23 -211 -73
c-10.667 -21.333 -16 -72.333 -16 -153v-852c0 -56 5.33301 -94 16 -114c12 -22.667 41.667 -36.334 89 -41.001h104h99c84.667 0 145.334 4.33301 182.001 13c59.333 14 110 44.667 152 92c34.667 38.667 69.334 100 104.001 184zM780.998 -208.998
c0 -58.667 -24.667 -104.668 -74 -138.001c-42.667 -29.333 -95 -44 -157 -44c-24 0 -50 2.66699 -78 8v43c16 -2.66699 30 -4 42 -4c34 0 63 9.66699 87 29c26.667 20.667 40 47.667 40 81c0 49.333 -27.667 74 -83 74c-6 0 -13.667 -0.666992 -23 -2v97
c28.667 3.33301 54 5 76 5c48.667 0 88.667 -12.333 120 -37c33.333 -27.333 50 -64.666 50 -111.999z" />
    <glyph glyph-name="lcedilla" unicode="&#x13c;" horiz-adv-x="569" 
d="M527 0l-448.999 -0.000976562v36c65.333 0 106 18.667 122 56c8.66699 20 13 58.333 13 115v832c0 142.667 -9.66699 222.334 -29 239.001c-10.667 8.66699 -24 13 -40 13c-17.333 0 -39.333 -5.33301 -66 -16l-17 35l273 112h45v-1215c0 -85.333 17 -137.333 51 -156
c17.333 -10 49.666 -15 96.999 -15v-36zM440.001 -209.001c0 -58.667 -24.667 -104.668 -74 -138.001c-42.667 -29.333 -95 -44 -157 -44c-24 0 -50 2.66699 -78 8v43c16 -2.66699 30 -4 42 -4c34 0 63 9.66699 87 29c26.667 20.667 40 47.667 40 81
c0 49.333 -27.667 74 -83 74c-6 0 -13.667 -0.666992 -23 -2v97c28.667 3.33301 54 5 76 5c48.667 0 88.667 -12.333 120 -37c33.333 -27.333 50 -64.666 50 -111.999z" />
    <glyph glyph-name="Lcaron" unicode="&#x13d;" horiz-adv-x="1251" 
d="M1117 1178c0 -155.333 -99.332 -265.666 -297.999 -330.999v44c61.333 19.333 111.666 50.666 150.999 93.999c43.333 48 65 102 65 162c0 27.333 -7.66699 41 -23 41c-8 0 -24 -6.33301 -48 -19c-12.667 -6.66699 -25.334 -10 -38.001 -10
c-71.333 0 -107 36.333 -107 109c0 34 12.833 62.333 38.5 85s55.834 34 90.501 34c52 0 94 -22.667 126 -68c28.667 -40.667 43 -87.667 43 -141zM1207 368l-116.002 -367.998h-1050v37h51c57.333 0 98.333 18.667 123 56c14 21.333 21 70.666 21 147.999v875
c0 84.667 -9.33301 137.667 -28 159c-26 29.333 -64.667 44 -116 44h-51v37h614v-37c-116 1.33301 -186.333 -23 -211 -73c-10.667 -21.333 -16 -72.333 -16 -153v-852c0 -56 5.33301 -94 16 -114c12 -22.667 41.667 -36.334 89 -41.001h104h99
c84.667 0 145.334 4.33301 182.001 13c59.333 14 110 44.667 152 92c34.667 38.667 69.334 100 104.001 184z" />
    <glyph glyph-name="lcaron" unicode="&#x13e;" horiz-adv-x="832" 
d="M814 1225c0 -148.667 -86.333 -255.666 -259 -320.999v47c68 40.667 114.333 78.667 139 114c18 25.333 27 55.666 27 90.999c0 40.667 -12.667 61 -38 61c-7.33301 0 -17 -2.33301 -29 -7c-17.333 -6.66699 -31.666 -10 -42.999 -10
c-28.667 0 -52.834 10.5 -72.501 31.5s-29.5 45.833 -29.5 74.5c0 33.333 10.333 59.333 31 78c28.667 25.333 62 38 100 38c50 0 92 -20.667 126 -62c32 -38.667 48 -83.667 48 -135zM526 0.000976562l-448.999 -0.000976562v36c65.333 0 106 18.667 122 56
c8.66699 20 13 58.333 13 115v832c0 142.667 -9.66699 222.334 -29 239.001c-10.667 8.66699 -24 13 -40 13c-17.333 0 -39.333 -5.33301 -66 -16l-17 35l273 112h45v-1215c0 -85.333 17 -137.333 51 -156c17.333 -10 49.666 -15 96.999 -15v-36z" />
    <glyph glyph-name="Ldot" unicode="&#x13f;" horiz-adv-x="1251" 
d="M925 708c0 -28.667 -10.3291 -53.334 -30.9961 -74.001s-45.334 -31 -74.001 -31s-53.334 10.333 -74.001 31s-31 45.334 -31 74.001c0 29.333 10.167 54.166 30.5 74.499s45.166 30.5 74.499 30.5s54.166 -10.167 74.499 -30.5s30.5 -45.166 30.5 -74.499zM1207 368
l-116.002 -367.998h-1050v37h51c57.333 0 98.333 18.667 123 56c14 21.333 21 70.666 21 147.999v875c0 84.667 -9.33301 137.667 -28 159c-26 29.333 -64.667 44 -116 44h-51v37h614v-37c-116 1.33301 -186.333 -23 -211 -73c-10.667 -21.333 -16 -72.333 -16 -153v-852
c0 -56 5.33301 -94 16 -114c12 -22.667 41.667 -36.334 89 -41.001h104h99c84.667 0 145.334 4.33301 182.001 13c59.333 14 110 44.667 152 92c34.667 38.667 69.334 100 104.001 184z" />
    <glyph glyph-name="ldot" unicode="&#x140;" horiz-adv-x="704" 
d="M716 703c0 -28.667 -10.3291 -53.334 -30.9961 -74.001s-45.334 -31 -74.001 -31s-53.334 10.333 -74.001 31s-31 45.334 -31 74.001c0 29.333 10.167 54.166 30.5 74.499s45.166 30.5 74.499 30.5s54.166 -10.167 74.499 -30.5s30.5 -45.166 30.5 -74.499zM527.004 0
l-448.999 -0.000976562v36c65.333 0 106 18.667 122 56c8.66699 20 13 58.333 13 115v832c0 142.667 -9.66699 222.334 -29 239.001c-10.667 8.66699 -24 13 -40 13c-17.333 0 -39.333 -5.33301 -66 -16l-17 35l273 112h45v-1215c0 -85.333 17 -137.333 51 -156
c17.333 -10 49.666 -15 96.999 -15v-36z" />
    <glyph glyph-name="Lslash" unicode="&#x141;" horiz-adv-x="1251" 
d="M1199 368l-113 -367.997h-1049v37h42c73.333 0 119.333 24.333 138 73c8 21.333 12 65.666 12 132.999v299l-207 -166v92l207 174v470c0 60.667 -0.666992 95.667 -2 105c-6.66699 37.333 -24.667 64.666 -54 81.999c-23.333 13.333 -54.666 20 -93.999 20h-42v37h602
v-37h-60c-83.333 0 -133.666 -30 -150.999 -90c-4.66699 -16 -7 -55 -7 -117v-311l227 187v-95l-227 -192v-453c0 -46.667 1 -75.334 3 -86.001c6 -29.333 22.333 -50.333 49 -63c14.667 -7.33301 52.667 -11 114 -11h152c95.333 0 159.666 5 192.999 15
c103.333 30.667 181.666 121.667 234.999 273z" />
    <glyph glyph-name="lslash" unicode="&#x142;" horiz-adv-x="569" 
d="M551 870l-171 -141.999v-522c0 -48.667 0.666992 -77 2 -85c5.33301 -34 19.666 -56.667 42.999 -68c26 -12.667 59.667 -18.334 101 -17.001v-36h-462v36l25 -1c60 -2.66699 98.667 16.333 116 57c7.33301 17.333 11 59 11 125v379l-186 -153v84l186 154v355
c0 96.667 -3 158.667 -9 186c-8.66699 38.667 -30.667 58 -66 58c-11.333 0 -33.666 -5.66699 -66.999 -17l-10 36l284 123h32v-608l171 141v-85z" />
    <glyph glyph-name="Nacute" unicode="&#x143;" horiz-adv-x="1479" 
d="M931 1797l-295 -345h-34l105 345h224zM1450 1319l-48.001 0.000976562c-57.333 0 -98 -17.333 -122 -52c-14.667 -21.333 -22 -70 -22 -146v-1143h-36l-894 1092v-835c0 -84 9 -136 27 -156c24.667 -28 63.667 -42 117 -42h48v-37h-472v37h47c58 0 99 17.333 123 52
c14.667 21.333 22 70 22 146v943c-35.333 41.333 -61.666 68.666 -78.999 81.999c-24.667 20 -58 36.667 -100 50c-18.667 6 -48 9 -88 9v37h368l829 -1017v782c0 83.333 -9.33301 135.333 -28 156c-24.667 28 -63.667 42 -117 42h-47v37h472v-37z" />
    <glyph glyph-name="nacute" unicode="&#x144;" 
d="M709 1390l-295 -345h-34l105 345h224zM1015 0l-452.999 -0.000976562v36h19c70 0 111.667 25.667 125 77c2.66699 10 4 41.333 4 94v375c0 158.667 -47.333 238 -142 238c-79.333 0 -158.333 -43.333 -237 -130v-483c0 -62 3.66699 -100.333 11 -115
c18 -37.333 64 -56 138 -56v-36h-453v36h20c51.333 0 85.333 16.333 102 49c11.333 22.667 17 63.334 17 122.001v340c0 149.333 -10 232.666 -30 249.999c-10.667 8.66699 -24.667 13 -42 13c-18.667 0 -41 -5 -67 -15l-15 36l276 112h43v-194
c107.333 129.333 209.666 194 306.999 194c103.333 0 175 -53.667 215 -161c14.667 -39.333 22 -100.666 22 -183.999v-391c0 -86 16.667 -138.333 50 -157c16 -9.33301 46 -14 90 -14v-36z" />
    <glyph glyph-name="Ncedilla" unicode="&#x145;" horiz-adv-x="1479" 
d="M1450 1319l-48.001 0.000976562c-57.333 0 -98 -17.333 -122 -52c-14.667 -21.333 -22 -70 -22 -146v-1143h-36l-894 1092v-835c0 -84 9 -136 27 -156c24.667 -28 63.667 -42 117 -42h48v-37h-472v37h47c58 0 99 17.333 123 52c14.667 21.333 22 70 22 146v943
c-35.333 41.333 -61.666 68.666 -78.999 81.999c-24.667 20 -58 36.667 -100 50c-18.667 6 -48 9 -88 9v37h368l829 -1017v782c0 83.333 -9.33301 135.333 -28 156c-24.667 28 -63.667 42 -117 42h-47v37h472v-37zM893.999 -208.999
c0 -58.667 -24.667 -104.668 -74 -138.001c-42.667 -29.333 -95 -44 -157 -44c-24 0 -50 2.66699 -78 8v43c16 -2.66699 30 -4 42 -4c34 0 63 9.66699 87 29c26.667 20.667 40 47.667 40 81c0 49.333 -27.667 74 -83 74c-6 0 -13.667 -0.666992 -23 -2v97
c28.667 3.33301 54 5 76 5c48.667 0 88.667 -12.333 120 -37c33.333 -27.333 50 -64.666 50 -111.999z" />
    <glyph glyph-name="ncedilla" unicode="&#x146;" 
d="M1015 0l-452.999 -0.000976562v36h19c70 0 111.667 25.667 125 77c2.66699 10 4 41.333 4 94v375c0 158.667 -47.333 238 -142 238c-79.333 0 -158.333 -43.333 -237 -130v-483c0 -62 3.66699 -100.333 11 -115c18 -37.333 64 -56 138 -56v-36h-453v36h20
c51.333 0 85.333 16.333 102 49c11.333 22.667 17 63.334 17 122.001v340c0 149.333 -10 232.666 -30 249.999c-10.667 8.66699 -24.667 13 -42 13c-18.667 0 -41 -5 -67 -15l-15 36l276 112h43v-194c107.333 129.333 209.666 194 306.999 194
c103.333 0 175 -53.667 215 -161c14.667 -39.333 22 -100.666 22 -183.999v-391c0 -86 16.667 -138.333 50 -157c16 -9.33301 46 -14 90 -14v-36zM667.001 -209.001c0 -58.667 -24.667 -104.668 -74 -138.001c-42.667 -29.333 -95 -44 -157 -44c-24 0 -50 2.66699 -78 8v43
c16 -2.66699 30 -4 42 -4c34 0 63 9.66699 87 29c26.667 20.667 40 47.667 40 81c0 49.333 -27.667 74 -83 74c-6 0 -13.667 -0.666992 -23 -2v97c28.667 3.33301 54 5 76 5c48.667 0 88.667 -12.333 120 -37c33.333 -27.333 50 -64.666 50 -111.999z" />
    <glyph glyph-name="Ncaron" unicode="&#x147;" horiz-adv-x="1479" 
d="M1029 1793l-189 -331h-184l-190 331h31l273 -212l229 212h30zM1450 1319l-48.001 0.000976562c-57.333 0 -98 -17.333 -122 -52c-14.667 -21.333 -22 -70 -22 -146v-1143h-36l-894 1092v-835c0 -84 9 -136 27 -156c24.667 -28 63.667 -42 117 -42h48v-37h-472v37h47
c58 0 99 17.333 123 52c14.667 21.333 22 70 22 146v943c-35.333 41.333 -61.666 68.666 -78.999 81.999c-24.667 20 -58 36.667 -100 50c-18.667 6 -48 9 -88 9v37h368l829 -1017v782c0 83.333 -9.33301 135.333 -28 156c-24.667 28 -63.667 42 -117 42h-47v37h472v-37z
" />
    <glyph glyph-name="ncaron" unicode="&#x148;" 
d="M771 1385l-189 -331h-184l-190 331h31l273 -212l229 212h30zM1015 0l-452.999 -0.000976562v36h19c70 0 111.667 25.667 125 77c2.66699 10 4 41.333 4 94v375c0 158.667 -47.333 238 -142 238c-79.333 0 -158.333 -43.333 -237 -130v-483
c0 -62 3.66699 -100.333 11 -115c18 -37.333 64 -56 138 -56v-36h-453v36h20c51.333 0 85.333 16.333 102 49c11.333 22.667 17 63.334 17 122.001v340c0 149.333 -10 232.666 -30 249.999c-10.667 8.66699 -24.667 13 -42 13c-18.667 0 -41 -5 -67 -15l-15 36l276 112h43
v-194c107.333 129.333 209.666 194 306.999 194c103.333 0 175 -53.667 215 -161c14.667 -39.333 22 -100.666 22 -183.999v-391c0 -86 16.667 -138.333 50 -157c16 -9.33301 46 -14 90 -14v-36z" />
    <glyph glyph-name="napostrophe" unicode="&#x149;" horiz-adv-x="1237" 
d="M308 1190c0 -78.667 -29.665 -150.333 -88.998 -215c-39.333 -42.667 -96.333 -78 -171 -106v47c69.333 40.667 116 78.667 140 114c17.333 25.333 26 55.666 26 90.999c0 40.667 -12.333 61 -37 61c-6.66699 0 -16.334 -2.33301 -29.001 -7c-16.667 -6 -31 -9 -43 -9
c-28.667 0 -52.834 10.333 -72.501 31s-29.5 45.334 -29.5 74.001c0 33.333 10.333 59.333 31 78c28 25.333 61.333 38 100 38c50 0 92 -20.667 126 -62c32 -39.333 48 -84.333 48 -135zM1230 0.000976562l-452.999 -0.000976562v36h19c70 0 111.667 25.667 125 77
c2.66699 10 4 41.333 4 94v375c0 158.667 -47.333 238 -142 238c-79.333 0 -158.333 -43.333 -237 -130v-483c0 -62 3.66699 -100.333 11 -115c18 -37.333 64 -56 138 -56v-36h-453v36h20c51.333 0 85.333 16.333 102 49c11.333 22.667 17 63.334 17 122.001v340
c0 149.333 -10 232.666 -30 249.999c-10.667 8.66699 -24.667 13 -42 13c-18.667 0 -41 -5 -67 -15l-15 36l276 112h43v-194c107.333 129.333 209.666 194 306.999 194c103.333 0 175 -53.667 215 -161c14.667 -39.333 22 -100.666 22 -183.999v-391
c0 -86 16.667 -138.333 50 -157c16 -9.33301 46 -14 90 -14v-36z" />
    <glyph glyph-name="Eng" unicode="&#x14a;" horiz-adv-x="1437" 
d="M1344 736c0 -314.667 -74.002 -536.002 -222.002 -664.002c-80 -68.667 -157.667 -103 -233 -103c-56 0 -105.333 18.333 -148 55c-44.667 38 -67 84.667 -67 140c0 28.667 9.16699 53.834 27.5 75.501s41.5 32.5 69.5 32.5c54.667 0 94.667 -45.667 120 -137
c15.333 -54.667 42 -82 80 -82c80.667 0 131.667 85.333 153 256c6.66699 51.333 10 163 10 335c0 177.333 -14.667 313 -44 407c-50 158.667 -144 238 -282 238c-83.333 0 -160.333 -33.333 -231 -100c-47.333 -45.333 -98.333 -115 -153 -209v-740
c0 -54 1.33301 -87.667 4 -101c6.66699 -35.333 24.334 -61.666 53.001 -78.999c24.667 -15.333 54.334 -23 89.001 -23h49v-37h-581v37h48c68 0 112.333 22.333 133 67c8.66699 20 13 65.333 13 136v884c0 74 -6.66699 124 -20 150c-20 40 -62 60 -126 60h-48v38h386v-281
c61.333 96 120.333 166 177 210c73.333 57.333 158.333 86 255 86c168.667 0 295.667 -69.333 381 -208c71.333 -115.333 107 -263 107 -443z" />
    <glyph glyph-name="eng" unicode="&#x14b;" horiz-adv-x="1013" 
d="M875 21c0 -133.333 -26.002 -240 -78.002 -320c-62 -95.333 -156 -143 -282 -143c-40.667 0 -78 6.66699 -112 20c-44.667 18.667 -67 45.667 -67 81c0 22.667 8 42.5 24 59.5s35.333 25.5 58 25.5c31.333 0 69.333 -19.667 114 -59c36.667 -32 65.334 -48 86.001 -48
c46 0 75 36.667 87 110c3.33301 22.667 5 75.667 5 159v676c0 158.667 -47 238 -141 238c-81.333 0 -160.666 -43.333 -237.999 -130v-483c0 -64.667 5.66699 -106.667 17 -126c16.667 -29.333 53.667 -44 111 -44h21v-37h-453v37h20c51.333 0 85.333 16.333 102 49
c11.333 22 17 62.333 17 121v340c0 108.667 0.333008 160 1 154c-7.33301 72.667 -32 109 -74 109c-18.667 0 -40.667 -5 -66 -15l-15 36l276 112h43v-194c107.333 129.333 210 194 308 194c157.333 0 236 -115 236 -345v-577z" />
    <glyph glyph-name="Omacron" unicode="&#x14c;" horiz-adv-x="1479" 
d="M1059 1508h-638v128h638v-128zM1400 686c0 -197.333 -61.332 -364.668 -183.999 -502.001c-127.333 -143.333 -288.333 -215 -483 -215c-198 0 -359 70.333 -483 211c-118.667 134.667 -178 302.334 -178 503.001c0 215.333 73.333 391 220 527
c127.333 118 279.666 177 456.999 177c187.333 0 344 -70.667 470 -212c120.667 -136 181 -299 181 -489zM1171 658.998c0 182 -28.334 328 -85.001 438c-74 144.667 -192.667 217 -356 217c-121.333 0 -218.666 -45 -291.999 -135c-91.333 -112 -137 -276 -137 -492
c0 -222 47.333 -392.333 142 -511c72 -90.667 168 -136 288 -136c158 0 274.667 67.333 350 202c60 106.667 90 245.667 90 417z" />
    <glyph glyph-name="omacron" unicode="&#x14d;" 
d="M832 1119h-638v128h638v-128zM953 475c0 -84.667 -19.3311 -167 -57.998 -247c-40.667 -86 -95.334 -150.167 -164.001 -192.5s-145.334 -63.5 -230.001 -63.5c-138 0 -247.667 55 -329 165c-68.667 92.667 -103 196.667 -103 312c0 84 20 166 60 246
c42.667 85.333 98.167 148 166.5 188s140.5 60 216.5 60c138.667 0 250 -52.667 334 -158c71.333 -90 107 -193.333 107 -310zM767.002 398c0 162 -35.001 290.001 -105.001 384.001c-48 64 -108.333 96 -181 96c-89.333 0 -153.666 -47.333 -192.999 -142
c-22 -52.667 -33 -120.334 -33 -203.001c0 -113.333 20.333 -216.333 61 -309c52.667 -120.667 128.667 -181 228 -181c148.667 0 223 118.333 223 355z" />
    <glyph glyph-name="Obreve" unicode="&#x14e;" horiz-adv-x="1479" 
d="M1025 1770c-6 -79.333 -35 -145.333 -87 -198c-54 -54.667 -120.333 -82 -199 -82s-144.667 27.333 -198 82c-52 52.667 -81.333 118.667 -88 198h31c22 -40 47.333 -68.667 76 -86c48.667 -28.667 109 -43 181 -43s132 14 180 42c34 20 57.667 49 71 87h33zM1400 686
c0 -197.333 -61.332 -364.668 -183.999 -502.001c-127.333 -143.333 -288.333 -215 -483 -215c-198 0 -359 70.333 -483 211c-118.667 134.667 -178 302.334 -178 503.001c0 215.333 73.333 391 220 527c127.333 118 279.666 177 456.999 177
c187.333 0 344 -70.667 470 -212c120.667 -136 181 -299 181 -489zM1171 658.998c0 182 -28.334 328 -85.001 438c-74 144.667 -192.667 217 -356 217c-121.333 0 -218.666 -45 -291.999 -135c-91.333 -112 -137 -276 -137 -492c0 -222 47.333 -392.333 142 -511
c72 -90.667 168 -136 288 -136c158 0 274.667 67.333 350 202c60 106.667 90 245.667 90 417z" />
    <glyph glyph-name="obreve" unicode="&#x14f;" 
d="M778 1358c-6 -79.333 -35 -145.333 -87 -198c-54 -54.667 -120.333 -82 -199 -82s-144.667 27.333 -198 82c-52 52.667 -81.333 118.667 -88 198h31c22 -40 47.333 -68.667 76 -86c48.667 -28.667 109 -43 181 -43s132 14 180 42c34 20 57.667 49 71 87h33zM953 475
c0 -84.667 -19.3311 -167 -57.998 -247c-40.667 -86 -95.334 -150.167 -164.001 -192.5s-145.334 -63.5 -230.001 -63.5c-138 0 -247.667 55 -329 165c-68.667 92.667 -103 196.667 -103 312c0 84 20 166 60 246c42.667 85.333 98.167 148 166.5 188s140.5 60 216.5 60
c138.667 0 250 -52.667 334 -158c71.333 -90 107 -193.333 107 -310zM767.002 398c0 162 -35.001 290.001 -105.001 384.001c-48 64 -108.333 96 -181 96c-89.333 0 -153.666 -47.333 -192.999 -142c-22 -52.667 -33 -120.334 -33 -203.001
c0 -113.333 20.333 -216.333 61 -309c52.667 -120.667 128.667 -181 228 -181c148.667 0 223 118.333 223 355z" />
    <glyph glyph-name="Odblacute" unicode="&#x150;" horiz-adv-x="1479" 
d="M1087 1797l-218 -346h-34l65 346h187zM774 1797l-220 -346h-33l66 346h187zM1400 686c0 -197.333 -61.332 -364.668 -183.999 -502.001c-127.333 -143.333 -288.333 -215 -483 -215c-198 0 -359 70.333 -483 211c-118.667 134.667 -178 302.334 -178 503.001
c0 215.333 73.333 391 220 527c127.333 118 279.666 177 456.999 177c187.333 0 344 -70.667 470 -212c120.667 -136 181 -299 181 -489zM1171 658.998c0 182 -28.334 328 -85.001 438c-74 144.667 -192.667 217 -356 217c-121.333 0 -218.666 -45 -291.999 -135
c-91.333 -112 -137 -276 -137 -492c0 -222 47.333 -392.333 142 -511c72 -90.667 168 -136 288 -136c158 0 274.667 67.333 350 202c60 106.667 90 245.667 90 417z" />
    <glyph glyph-name="odblacute" unicode="&#x151;" 
d="M850 1390l-218 -346h-34l65 346h187zM537 1390l-220 -346h-33l66 346h187zM953 475c0 -84.667 -19.3311 -167 -57.998 -247c-40.667 -86 -95.334 -150.167 -164.001 -192.5s-145.334 -63.5 -230.001 -63.5c-138 0 -247.667 55 -329 165
c-68.667 92.667 -103 196.667 -103 312c0 84 20 166 60 246c42.667 85.333 98.167 148 166.5 188s140.5 60 216.5 60c138.667 0 250 -52.667 334 -158c71.333 -90 107 -193.333 107 -310zM767.002 398c0 162 -35.001 290.001 -105.001 384.001c-48 64 -108.333 96 -181 96
c-89.333 0 -153.666 -47.333 -192.999 -142c-22 -52.667 -33 -120.334 -33 -203.001c0 -113.333 20.333 -216.333 61 -309c52.667 -120.667 128.667 -181 228 -181c148.667 0 223 118.333 223 355z" />
    <glyph glyph-name="OE" unicode="&#x152;" horiz-adv-x="1821" 
d="M1763 340l-107.996 -340h-485c-86 0 -143 -0.333008 -171 -1c-10.667 0 -66.334 -3 -167.001 -9c-70 -4 -118.333 -6 -145 -6c-117.333 0 -221.833 29.5 -313.5 88.5s-163.834 141.5 -216.501 247.5c-54.667 109.333 -82 228 -82 356c0 172 47 323.667 141 455
c112.667 158 277 237 493 237c8.66699 0 73.334 -2.33301 194.001 -7c86.667 -3.33301 175.667 -5 267 -5h473l12 -298h-32c-16 79.333 -30.333 129 -43 149c-16.667 27.333 -42.334 48 -77.001 62c-21.333 8.66699 -69 13 -143 13h-256v-535h183
c141.333 0 211.333 65.333 210 196h39v-472h-39c-6 80 -22.333 133.333 -49 160c-28.667 28 -82.334 42 -161.001 42h-183v-448c0 -78 14.333 -125 43 -141c9.33301 -5.33301 35 -8 77 -8h104c70 0 117.333 2.66699 142 8c45.333 8.66699 86.666 30 123.999 64
c50 45.333 93 109.333 129 192h40zM912.004 340v701.999c0 62.667 -2.33301 105.667 -7 129c-9.33301 50 -30.833 84.667 -64.5 104s-76.167 29 -127.5 29c-178 0 -298 -98.667 -360 -296c-32 -100.667 -48 -214 -48 -340c0 -248 59.333 -424.667 178 -530
c62 -55.333 137.333 -83 226 -83c99.333 0 161.333 32.333 186 97c11.333 30.667 17 93.334 17 188.001z" />
    <glyph glyph-name="oe" unicode="&#x153;" horiz-adv-x="1479" 
d="M1411 338c-45.333 -244 -158.666 -365.999 -339.999 -365.999c-123.333 0 -213 53.667 -269 161c-83.333 -107.333 -189.333 -161 -318 -161s-231.667 47.333 -309 142c-72 88 -108 197.667 -108 329c0 136 35.667 251 107 345c78.667 103.333 184 155 316 155
c137.333 0 241.333 -52.667 312 -158c73.333 106 167.666 159 282.999 159c106 0 188.333 -36 247 -108c56 -68 82.333 -155.667 79 -263h-548c-1.33301 -16.667 -2 -29.334 -2 -38.001c0 -64.667 10.333 -128 31 -190c24 -72 58 -124.667 102 -158s92.333 -50 145 -50
c114 0 193.667 72.667 239 218zM1214 638.001c0.666992 46 -7.33398 90.667 -24.001 134c-26.667 70 -77 105 -151 105c-56.667 0 -101 -27 -133 -81c-25.333 -43.333 -39.666 -96 -42.999 -158h351zM714.999 378.001c0 124.667 -15 230.333 -45 317
c-44 128.667 -116.333 193 -217 193c-74 0 -128 -39 -162 -117c-24.667 -56.667 -37 -134 -37 -232c0 -172 34 -307.333 102 -406c41.333 -60 92.333 -90 153 -90c137.333 0 206 111.667 206 335z" />
    <glyph glyph-name="Racute" unicode="&#x154;" horiz-adv-x="1366" 
d="M809 1797l-295 -345h-34l105 345h224zM1384 0h-361.999l-459 634c-34 -1.33301 -61.667 -2 -83 -2c-18 0 -37.667 0.666992 -59 2v-394c0 -84.667 9.33301 -137.667 28 -159c26 -29.333 64 -44 114 -44h53v-37h-581v37h51c57.333 0 98.333 18.667 123 56
c14 21.333 21 70.333 21 147v876c0 85.333 -9.33301 138.333 -28 159c-26 29.333 -64.667 44 -116 44h-51v37h494c120.667 0 209.667 -6 267 -18c95.333 -20.667 170.666 -63.667 225.999 -129c47.333 -56.667 71 -124 71 -202c0 -182 -111.333 -297.667 -334 -347l280 -389
c56.667 -79.333 104.667 -133.333 144 -162c52 -39.333 119 -63.333 201 -72v-37zM868.001 994c0 86 -26.667 155.167 -80 207.5s-123.333 78.5 -210 78.5c-38.667 0 -91 -6.33301 -157 -19v-564h28c12.667 -0.666992 22 -1 28 -1c108.667 0 197.667 22 267 66
c82.667 52 124 129.333 124 232z" />
    <glyph glyph-name="racute" unicode="&#x155;" horiz-adv-x="682" 
d="M574 1390l-295 -345h-34l105 345h224zM695 832c0 -25.333 -8.33496 -47.1641 -25.002 -65.4971s-37.667 -27.5 -63 -27.5c-21.333 0 -47.5 11.5 -78.5 34.5s-52.5 34.5 -64.5 34.5c-11.333 0 -24.333 -6.66699 -39 -20c-30.667 -28 -61.667 -73 -93 -135v-439
c0 -64 11.5 -109.667 34.5 -137s64.833 -41 125.5 -41v-36h-469v36c78.667 0 125 24.333 139 73c3.33301 11.333 5 43.666 5 96.999v355c0 91.333 0.333008 131.666 1 120.999c-3.33301 61.333 -13.666 99.333 -30.999 114c-12 9.33301 -26.667 14 -44 14
c-20.667 0 -44 -5 -70 -15l-10 36l277 112h42v-206c76.667 137.333 155.334 206 236.001 206c33.333 0 62.833 -10.333 88.5 -31s38.5 -47.334 38.5 -80.001z" />
    <glyph glyph-name="Rcedilla" unicode="&#x156;" horiz-adv-x="1366" 
d="M1384 0h-361.999l-459 634c-34 -1.33301 -61.667 -2 -83 -2c-18 0 -37.667 0.666992 -59 2v-394c0 -84.667 9.33301 -137.667 28 -159c26 -29.333 64 -44 114 -44h53v-37h-581v37h51c57.333 0 98.333 18.667 123 56c14 21.333 21 70.333 21 147v876
c0 85.333 -9.33301 138.333 -28 159c-26 29.333 -64.667 44 -116 44h-51v37h494c120.667 0 209.667 -6 267 -18c95.333 -20.667 170.666 -63.667 225.999 -129c47.333 -56.667 71 -124 71 -202c0 -182 -111.333 -297.667 -334 -347l280 -389
c56.667 -79.333 104.667 -133.333 144 -162c52 -39.333 119 -63.333 201 -72v-37zM849.001 -209c0 -58.667 -24.667 -104.668 -74 -138.001c-42.667 -29.333 -95 -44 -157 -44c-24 0 -50 2.66699 -78 8v43c16 -2.66699 30 -4 42 -4c34 0 63 9.66699 87 29
c26.667 20.667 40 47.667 40 81c0 49.333 -27.667 74 -83 74c-6 0 -13.667 -0.666992 -23 -2v97c28.667 3.33301 54 5 76 5c48.667 0 88.667 -12.333 120 -37c33.333 -27.333 50 -64.666 50 -111.999zM868.001 993.999c0 86 -26.667 155.167 -80 207.5
s-123.333 78.5 -210 78.5c-38.667 0 -91 -6.33301 -157 -19v-564h28c12.667 -0.666992 22 -1 28 -1c108.667 0 197.667 22 267 66c82.667 52 124 129.333 124 232z" />
    </font>
</defs>
</svg>
